<svg width="409" height="334" viewBox="0 0 409 334" fill="none" xmlns="http://www.w3.org/2000/svg">
<g filter="url(#filter0_d_360_714)">
<path fill-rule="evenodd" clip-rule="evenodd" d="M113.661 41.8833L114.987 40.3773L116.362 38.9259L117.785 37.5298L119.253 36.1892L120.764 34.9039L122.316 33.6737L123.906 32.498L125.533 31.3758L127.193 30.3062L128.884 29.2878L130.604 28.319L132.349 27.3982L134.119 26.5236L135.909 25.6934L137.719 24.9055L139.547 24.1581L141.389 23.4493L143.245 22.7771L145.113 22.1398L146.99 21.5353L148.877 20.9616L150.77 20.4167L152.67 19.8984L154.574 19.4047L156.482 18.9335L158.392 18.4827L160.304 18.0504L162.216 17.6346L164.13 17.2339L166.043 16.8464L167.955 16.471L169.867 16.1063L171.778 15.7512L173.688 15.4047L175.597 15.0659L177.505 14.7337L179.412 14.4076L181.318 14.0871L183.224 13.7715L185.129 13.4606L187.035 13.154L188.94 12.8516L190.846 12.5532L192.753 12.2589L194.661 11.9686L196.57 11.6825L198.481 11.4008L200.395 11.1237L202.31 10.8517L204.229 10.5853L206.151 10.3249L208.075 10.0713L210.004 9.82527L211.936 9.58765L213.873 9.35944L215.813 9.14172L217.758 8.93562L219.707 8.74255L221.661 8.56383L223.618 8.40104L225.58 8.25564L227.546 8.12949L229.515 8.02425L231.488 7.94182L233.464 7.88408L235.442 7.85303L237.422 7.85066L239.403 7.8791L241.384 7.94035L243.364 8.03656L245.342 8.16981L247.318 8.34221L249.29 8.55578L251.257 8.8125L253.217 9.1144L255.169 9.46334L257.112 9.86109L259.044 10.3094L260.963 10.8099L262.867 11.364L264.756 11.973L266.626 12.6382L268.477 13.3607L270.307 14.1414L272.113 14.9809L273.893 15.8798L275.647 16.8386L277.372 17.8573L279.066 18.9361L280.728 20.0748L282.356 21.273L283.947 22.5302L285.502 23.8456L287.018 25.2184L288.493 26.6476L289.926 28.1318L291.317 29.6698L292.664 31.2599L293.965 32.9005L295.22 34.5897L296.428 36.3257L297.589 38.1064L298.701 39.9295L299.765 41.7929L300.779 43.6942L301.744 45.631L302.659 47.6008L303.525 49.601L304.342 51.6291L305.109 53.6825L305.828 55.7583L306.499 57.8541L307.122 59.9671L307.699 62.0944L308.23 64.2335L308.716 66.3814L309.159 68.5354L309.56 70.6927L309.921 72.8503L310.243 75.0052L310.529 77.1545L310.78 79.2951L310.999 81.4241L311.19 83.5385L311.353 85.6352L311.494 87.7115L311.614 89.7643L311.717 91.7908L311.807 93.7881L311.887 95.7538L311.961 97.6851L312.033 99.58L312.107 101.436L312.185 103.253L312.273 105.028L312.372 106.76L312.487 108.449L312.621 110.093L312.776 111.693L312.957 113.249L313.165 114.759L313.404 116.226L313.677 117.648L313.984 119.027L314.33 120.364L314.716 121.66L315.144 122.915L315.616 124.133L316.133 125.312L316.697 126.457L317.309 127.568L317.97 128.648L318.681 129.698L319.442 130.72L320.253 131.718L321.116 132.693L322.029 133.647L322.992 134.584L324.006 135.505L325.068 136.413L326.179 137.312L327.337 138.202L328.541 139.087L329.79 139.97L331.08 140.852L332.412 141.737L333.782 142.627L335.189 143.525L336.629 144.431L338.101 145.35L339.602 146.283L341.128 147.232L342.678 148.199L344.247 149.185L345.833 150.194L347.433 151.226L349.043 152.282L350.66 153.365L352.28 154.475L353.901 155.614L355.519 156.782L357.131 157.98L358.733 159.208L360.323 160.469L361.897 161.76L363.452 163.084L364.985 164.439L366.494 165.827L367.977 167.245L369.43 168.696L370.851 170.177L372.239 171.689L373.592 173.23L374.908 174.8L376.185 176.399L377.424 178.025L378.622 179.678L379.779 181.357L380.894 183.06L381.969 184.787L383.001 186.537L383.993 188.308L384.944 190.101L385.855 191.913L386.727 193.745L387.561 195.595L388.357 197.463L389.117 199.347L389.842 201.248L390.533 203.165L391.191 205.097L391.817 207.043L392.41 209.004L392.973 210.978L393.506 212.965L394.008 214.966L394.48 216.978L394.92 219.003L395.328 221.038L395.703 223.083L396.043 225.138L396.346 227.202L396.611 229.272L396.834 231.349L397.012 233.43L397.144 235.514L397.224 237.598L397.251 239.682L397.22 241.761L397.13 243.835L396.976 245.901L396.756 247.956L396.467 249.998L396.107 252.023L395.674 254.029L395.165 256.014L394.579 257.973L393.914 259.905L393.169 261.807L392.345 263.676L391.439 265.508L390.453 267.303L389.387 269.056L388.241 270.766L387.017 272.431L385.716 274.048L384.339 275.615L382.889 277.132L381.369 278.596L379.779 280.007L378.125 281.363L376.408 282.663L374.632 283.907L372.8 285.095L370.917 286.226L368.985 287.301L367.009 288.32L364.994 289.284L362.942 290.193L360.858 291.049L358.746 291.852L356.611 292.605L354.457 293.31L352.287 293.967L350.106 294.579L347.917 295.148L345.725 295.677L343.532 296.167L341.344 296.622L339.163 297.045L336.992 297.437L334.834 297.803L332.692 298.144L330.57 298.463L328.469 298.764L326.391 299.049L324.339 299.322L322.315 299.585L320.319 299.84L318.354 300.092L316.42 300.341L314.518 300.592L312.65 300.846L310.815 301.105L309.014 301.372L307.246 301.65L305.513 301.939L303.813 302.242L302.145 302.561L300.51 302.896L298.907 303.249L297.334 303.622L295.791 304.015L294.275 304.429L292.787 304.864L291.325 305.322L289.886 305.801L288.471 306.304L287.076 306.828L285.7 307.374L284.342 307.942L283 308.531L281.671 309.14L280.355 309.767L279.05 310.413L277.752 311.074L276.462 311.75L275.176 312.439L273.893 313.138L272.612 313.845L271.33 314.558L270.046 315.275L268.758 315.992L267.466 316.708L266.168 317.418L264.862 318.122L263.548 318.816L262.225 319.497L260.891 320.163L259.548 320.811L258.194 321.44L256.828 322.047L255.452 322.63L254.065 323.189L252.667 323.722L251.259 324.228L249.841 324.706L248.414 325.155L246.977 325.574L245.531 325.962L244.078 326.319L242.617 326.645L241.15 326.939L239.676 327.2L238.197 327.43L236.714 327.626L235.226 327.791L233.735 327.923L232.242 328.023L230.747 328.091L229.251 328.127L227.754 328.132L226.258 328.106L224.763 328.051L223.27 327.966L221.778 327.852L220.29 327.712L218.805 327.544L217.324 327.352L215.848 327.136L214.376 326.897L212.909 326.638L211.448 326.359L209.992 326.062L208.542 325.75L207.098 325.423L205.659 325.085L204.226 324.736L202.798 324.379L201.376 324.017L199.958 323.651L198.544 323.283L197.133 322.916L195.726 322.551L194.32 322.192L192.916 321.839L191.512 321.495L190.107 321.162L188.7 320.842L187.289 320.536L185.875 320.247L184.455 319.975L183.028 319.723L181.592 319.491L180.146 319.281L178.69 319.093L177.22 318.929L175.736 318.79L174.237 318.675L172.72 318.585L171.185 318.521L169.63 318.481L168.053 318.467L166.454 318.477L164.832 318.511L163.184 318.569L161.511 318.649L159.81 318.75L158.081 318.871L156.324 319.011L154.538 319.168L152.721 319.341L150.874 319.527L148.996 319.726L147.087 319.934L145.147 320.15L143.175 320.372L141.173 320.597L139.139 320.823L137.075 321.048L134.981 321.27L132.857 321.485L130.705 321.693L128.525 321.889L126.318 322.072L124.085 322.239L121.828 322.387L119.548 322.515L117.246 322.619L114.924 322.697L112.583 322.748L110.225 322.77L107.85 322.76L105.46 322.718L103.057 322.642L100.641 322.532L98.2133 322.386L95.7754 322.202L93.3287 321.981L90.8744 321.72L88.4143 321.419L85.9498 321.076L83.4828 320.691L81.0148 320.262L78.5478 319.788L76.0835 319.268L73.6242 318.702L71.1718 318.088L68.7285 317.426L66.2966 316.714L63.8782 315.951L61.4757 315.138L59.0914 314.273L56.7275 313.356L54.3865 312.387L52.0705 311.364L49.782 310.289L47.5233 309.16L45.2967 307.978L43.1045 306.743L40.949 305.454L38.8325 304.112L36.7572 302.718L34.7253 301.272L32.7392 299.774L30.8009 298.224L28.9126 296.624L27.0766 294.974L25.2948 293.276L23.5695 291.529L21.9025 289.735L20.2959 287.895L18.7517 286.009L17.2717 284.081L15.8578 282.109L14.5118 280.097L13.2354 278.045L12.0303 275.954L10.898 273.827L9.83995 271.665L8.85763 269.47L7.95234 267.243L7.12527 264.986L6.37751 262.702L5.71003 260.391L5.12373 258.057L4.61934 255.701L4.19747 253.325L3.8586 250.932L3.60308 248.523L3.43112 246.101L3.34277 243.668L3.33797 241.226L3.41647 238.777L3.5779 236.325L3.82175 233.87L4.14735 231.415L4.5539 228.963L5.04041 226.515L5.60584 224.074L6.24894 221.642L6.96835 219.221L7.76261 216.813L8.63011 214.421L9.56916 212.045L10.5779 209.688L11.6545 207.352L12.7969 205.039L14.003 202.749L15.2707 200.486L16.5977 198.25L17.9818 196.043L19.4207 193.866L20.9119 191.72L22.4531 189.607L24.0419 187.527L25.6758 185.482L27.3523 183.473L29.0691 181.5L30.8236 179.565L32.6134 177.667L34.436 175.808L36.289 173.987L38.17 172.206L40.0763 170.464L42.0055 168.762L43.9548 167.099L45.921 165.477L47.9007 163.893L49.8903 162.349L51.8859 160.844L53.8831 159.376L55.8778 157.944L57.8652 156.549L59.8405 155.187L61.7989 153.857L63.735 152.557L65.6436 151.286L67.5192 150.039L69.3568 148.816L71.1514 147.613L72.8986 146.426L74.5942 145.254L76.2348 144.092L77.8171 142.938L79.3383 141.789L80.796 140.641L82.1882 139.491L83.5135 138.336L84.7705 137.173L85.9584 135.999L87.0768 134.811L88.1256 133.607L89.1049 132.382L90.0156 131.135L90.8585 129.863L91.6348 128.564L92.3462 127.236L92.9947 125.876L93.5823 124.483L94.1115 123.055L94.5851 121.591L95.0061 120.09L95.3777 118.55L95.7033 116.972L95.9865 115.354L96.2312 113.697L96.4412 112L96.6208 110.263L96.774 108.489L96.9052 106.676L97.0187 104.827L97.119 102.942L97.2106 101.024L97.2978 99.073L97.3851 97.0925L97.4769 95.0843L97.5776 93.0507L97.6913 90.9945L97.8224 88.9185L97.9748 86.8258L98.1523 84.7193L98.3588 82.6024L98.5978 80.4786L98.8727 78.3512L99.1868 76.2239L99.5428 74.1002L99.9436 71.9837L100.392 69.8783L100.889 67.7875L101.438 65.7148L102.04 63.664L102.697 61.6385L103.409 59.6416L104.178 57.6766L105.005 55.7467L105.889 53.8548L106.83 52.0037L107.829 50.196L108.885 48.4342L109.997 46.7201L111.165 45.056L112.387 43.4432L113.661 41.8833Z" fill="url(#paint0_linear_360_714)"/>
</g>
<g filter="url(#filter1_d_360_714)">
<path fill-rule="evenodd" clip-rule="evenodd" d="M121.281 47.1234L122.455 45.6406L123.677 44.2072L124.948 42.8238L126.264 41.4908L127.623 40.2081L129.024 38.9755L130.464 37.7928L131.941 36.659L133.452 35.5732L134.995 34.5344L136.567 33.5413L138.166 32.5923L139.79 31.6859L141.436 30.8203L143.103 29.9939L144.788 29.205L146.489 28.4518L148.205 27.7327L149.934 27.0459L151.674 26.3897L153.423 25.7622L155.181 25.1616L156.946 24.5858L158.716 24.0331L160.491 23.5014L162.27 22.9889L164.05 22.4938L165.833 22.0143L167.617 21.5489L169.401 21.0962L171.185 20.6547L172.97 20.2235L174.753 19.8014L176.537 19.3875L178.32 18.9807L180.102 18.5805L181.884 18.1859L183.665 17.7966L185.446 17.412L187.227 17.0319L189.008 16.6559L190.789 16.2838L192.571 15.9155L194.354 15.551L196.139 15.1902L197.925 14.8333L199.712 14.4805L201.503 14.132L203.295 13.7881L205.091 13.4494L206.889 13.1163L208.692 12.7894L210.498 12.4695L212.308 12.1574L214.122 11.854L215.941 11.5603L217.764 11.2774L219.592 11.0066L221.425 10.7492L223.263 10.5066L225.106 10.2802L226.953 10.0719L228.805 9.88315L230.661 9.71578L232.521 9.57163L234.385 9.45256L236.251 9.36056L238.121 9.29754L239.992 9.26559L241.864 9.26665L243.736 9.30277L245.608 9.376L247.479 9.48828L249.346 9.6416L251.21 9.8379L253.069 10.079L254.921 10.3666L256.765 10.7025L258.6 11.0882L260.424 11.5252L262.236 12.0149L264.034 12.5585L265.816 13.157L267.581 13.8115L269.326 14.5226L271.051 15.291L272.754 16.1171L274.432 17.0013L276.085 17.9436L277.71 18.9438L279.306 20.0019L280.871 21.1173L282.403 22.2894L283.902 23.5175L285.366 24.8007L286.794 26.1377L288.183 27.5275L289.534 28.9685L290.845 30.4593L292.114 31.9981L293.342 33.5832L294.527 35.2127L295.668 36.8845L296.766 38.5965L297.819 40.3466L298.828 42.1324L299.791 43.9517L300.71 45.8019L301.583 47.6808L302.411 49.5856L303.195 51.514L303.934 53.4634L304.629 55.4311L305.281 57.4146L305.891 59.4112L306.459 61.4182L306.986 63.4329L307.474 65.4526L307.924 67.4744L308.337 69.4955L308.716 71.5129L309.062 73.5236L309.377 75.5248L309.664 77.5135L309.925 79.4868L310.163 81.4418L310.381 83.3755L310.581 85.2852L310.768 87.168L310.943 89.0211L311.112 90.8423L311.276 92.629L311.44 94.3794L311.606 96.0917L311.779 97.7644L311.961 99.3963L312.155 100.986L312.365 102.534L312.593 104.038L312.843 105.499L313.116 106.917L313.416 108.291L313.745 109.623L314.106 110.911L314.5 112.159L314.93 113.365L315.397 114.532L315.904 115.66L316.452 116.751L317.042 117.807L317.676 118.829L318.354 119.819L319.077 120.778L319.847 121.71L320.663 122.616L321.526 123.497L322.435 124.358L323.391 125.199L324.394 126.023L325.442 126.833L326.536 127.631L327.673 128.419L328.853 129.201L330.075 129.978L331.338 130.753L332.638 131.529L333.976 132.307L335.348 133.091L336.752 133.883L338.187 134.684L339.649 135.497L341.137 136.324L342.648 137.167L344.178 138.028L345.725 138.909L347.285 139.811L348.857 140.736L350.437 141.685L352.022 142.661L353.608 143.663L355.193 144.692L356.774 145.751L358.348 146.839L359.911 147.957L361.46 149.106L362.994 150.286L364.509 151.497L366.003 152.739L367.473 154.012L368.917 155.316L370.333 156.651L371.719 158.016L373.073 159.411L374.393 160.835L375.679 162.287L376.93 163.767L378.143 165.274L379.32 166.807L380.459 168.365L381.56 169.948L382.623 171.554L383.648 173.183L384.636 174.833L385.587 176.504L386.503 178.194L387.383 179.904L388.229 181.633L389.042 183.378L389.822 185.141L390.571 186.921L391.29 188.716L391.979 190.526L392.638 192.351L393.27 194.191L393.873 196.044L394.448 197.911L394.995 199.79L395.514 201.683L396.002 203.587L396.46 205.502L396.885 207.428L397.276 209.363L397.631 211.308L397.947 213.259L398.221 215.217L398.451 217.179L398.633 219.145L398.764 221.112L398.841 223.078L398.861 225.041L398.821 226.999L398.719 228.951L398.55 230.892L398.314 232.822L398.007 234.737L397.628 236.634L397.175 238.512L396.647 240.368L396.042 242.198L395.359 244L394.598 245.773L393.76 247.512L392.844 249.217L391.85 250.884L390.781 252.512L389.636 254.099L388.418 255.642L387.128 257.141L385.768 258.593L384.342 259.998L382.85 261.353L381.297 262.66L379.686 263.915L378.019 265.121L376.301 266.275L374.534 267.378L372.723 268.43L370.871 269.432L368.982 270.384L367.061 271.287L365.111 272.142L363.136 272.95L361.14 273.713L359.127 274.432L357.102 275.109L355.067 275.746L353.026 276.345L350.984 276.908L348.944 277.437L346.908 277.935L344.881 278.404L342.865 278.847L340.863 279.266L338.878 279.664L336.912 280.044L334.967 280.408L333.046 280.758L331.15 281.098L329.282 281.431L327.441 281.757L325.63 282.081L323.85 282.403L322.101 282.728L320.384 283.056L318.699 283.391L317.047 283.733L315.427 284.085L313.839 284.448L312.283 284.825L310.758 285.215L309.264 285.622L307.8 286.045L306.365 286.486L304.957 286.946L303.576 287.425L302.22 287.924L300.888 288.442L299.578 288.981L298.29 289.539L297.021 290.118L295.769 290.716L294.533 291.333L293.311 291.968L292.102 292.621L290.904 293.29L289.714 293.973L288.532 294.671L287.354 295.379L286.18 296.098L285.008 296.824L283.835 297.556L282.661 298.291L281.484 299.027L280.301 299.762L279.113 300.492L277.918 301.216L276.714 301.931L275.501 302.634L274.278 303.324L273.044 303.997L271.799 304.653L270.542 305.288L269.274 305.902L267.995 306.493L266.704 307.059L265.402 307.601L264.089 308.117L262.765 308.606L261.432 309.066L260.089 309.499L258.736 309.902L257.376 310.276L256.007 310.62L254.63 310.934L253.248 311.218L251.859 311.471L250.464 311.694L249.065 311.886L247.662 312.048L246.256 312.18L244.847 312.282L243.436 312.355L242.024 312.399L240.611 312.414L239.198 312.401L237.786 312.362L236.376 312.297L234.967 312.206L233.561 312.092L232.157 311.954L230.757 311.796L229.361 311.617L227.969 311.42L226.581 311.205L225.198 310.976L223.82 310.733L222.446 310.479L221.077 310.214L219.712 309.942L218.352 309.664L216.997 309.383L215.645 309.1L214.296 308.817L212.95 308.536L211.606 308.26L210.264 307.991L208.922 307.729L207.581 307.479L206.237 307.24L204.892 307.015L203.544 306.806L202.191 306.613L200.832 306.44L199.466 306.286L198.093 306.153L196.709 306.042L195.315 305.954L193.909 305.889L192.489 305.849L191.054 305.833L189.603 305.842L188.135 305.875L186.648 305.933L185.141 306.015L183.612 306.121L182.062 306.25L180.487 306.402L178.889 306.574L177.265 306.767L175.615 306.979L173.939 307.209L172.234 307.454L170.502 307.714L168.741 307.986L166.952 308.27L165.133 308.562L163.286 308.861L161.409 309.164L159.503 309.47L157.568 309.777L155.604 310.081L153.613 310.381L151.594 310.674L149.548 310.959L147.476 311.231L145.379 311.49L143.258 311.733L141.114 311.957L138.949 312.16L136.764 312.339L134.559 312.493L132.336 312.62L130.097 312.719L127.841 312.788L125.571 312.825L123.287 312.831L120.99 312.803L118.682 312.74L116.364 312.642L114.036 312.507L111.701 312.334L109.36 312.122L107.014 311.87L104.665 311.576L102.314 311.241L99.964 310.862L97.6161 310.438L95.2724 309.97L92.9347 309.455L90.6052 308.892L88.286 308.282L85.9791 307.623L83.6867 306.914L81.411 306.155L79.1541 305.345L76.9182 304.484L74.7055 303.572L72.5182 302.608L70.3584 301.593L68.2284 300.525L66.1302 299.405L64.0661 298.234L62.0382 297.011L60.0486 295.737L58.0994 294.412L56.1928 293.036L54.3309 291.61L52.5156 290.135L50.749 288.611L49.0331 287.039L47.3699 285.42L45.7612 283.755L44.2092 282.044L42.7154 280.289L41.2818 278.491L39.9102 276.651L38.6022 274.77L37.3593 272.85L36.1833 270.892L35.0756 268.898L34.0376 266.868L33.0706 264.806L32.1758 262.711L31.3545 260.587L30.6075 258.435L29.9358 256.257L29.3403 254.054L28.8215 251.829L28.3802 249.583L28.0166 247.319L27.7312 245.039L27.5241 242.745L27.3953 240.438L27.3447 238.122L27.3721 235.797L27.4771 233.467L27.6592 231.133L27.9177 228.798L28.2519 226.464L28.6608 224.133L29.1435 221.806L29.6987 219.486L30.3251 217.176L31.0213 214.876L31.7859 212.589L32.6172 210.317L33.5135 208.062L34.4729 205.824L35.4938 203.607L36.5739 201.411L37.7115 199.239L38.9043 197.091L40.1503 194.969L41.4473 192.875L42.7931 190.808L44.1854 188.772L45.622 186.766L47.1007 184.792L48.6192 182.851L50.1751 180.943L51.7663 179.069L53.3903 177.23L55.045 175.426L56.7279 173.658L58.4369 171.926L60.1695 170.23L61.923 168.571L63.6944 166.949L65.4807 165.364L67.2783 163.815L69.0833 162.302L70.892 160.825L72.7 159.382L74.503 157.974L76.2964 156.597L78.0754 155.252L79.8349 153.937L81.57 152.649L83.2752 151.387L84.9457 150.148L86.5767 148.93L88.1639 147.73L89.7032 146.545L91.191 145.373L92.6243 144.211L94.0003 143.057L95.3164 141.906L96.5708 140.757L97.7617 139.606L98.8878 138.45L99.9482 137.287L100.942 136.114L101.87 134.929L102.731 133.727L103.526 132.508L104.257 131.268L104.922 130.006L105.526 128.719L106.068 127.405L106.551 126.062L106.978 124.69L107.35 123.285L107.67 121.848L107.942 120.377L108.169 118.871L108.354 117.33L108.5 115.753L108.612 114.14L108.693 112.492L108.747 110.809L108.778 109.09L108.791 107.338L108.79 105.553L108.779 103.737L108.762 101.89L108.743 100.015L108.727 98.1142L108.719 96.1886L108.721 94.2411L108.739 92.274L108.777 90.2901L108.837 88.2922L108.924 86.2831L109.041 84.266L109.192 82.2438L109.38 80.22L109.607 78.1977L109.878 76.1802L110.193 74.171L110.556 72.1733L110.968 70.1905L111.431 68.2258L111.947 66.2826L112.518 64.3639L113.143 62.4728L113.824 60.6122L114.561 58.7849L115.355 56.9936L116.205 55.2406L117.111 53.5283L118.072 51.8587L119.089 50.2337L120.159 48.6548L121.281 47.1234Z" fill="url(#paint1_linear_360_714)"/>
</g>
<g filter="url(#filter2_d_360_714)">
<path fill-rule="evenodd" clip-rule="evenodd" d="M134.948 53.6829L136.065 52.2825L137.229 50.9282L138.437 49.6204L139.688 48.3594L140.979 47.1453L142.308 45.9779L143.674 44.8568L145.075 43.7813L146.507 42.7507L147.968 41.7638L149.458 40.8195L150.972 39.9164L152.509 39.053L154.067 38.2278L155.644 37.4391L157.237 36.6854L158.846 35.9651L160.468 35.2767L162.102 34.6184L163.746 33.9887L165.4 33.3859L167.06 32.8082L168.727 32.2538L170.4 31.7209L172.076 31.2077L173.755 30.7125L175.437 30.2336L177.12 29.7694L178.804 29.3183L180.488 28.8791L182.172 28.4505L183.857 28.0314L185.541 27.621L187.224 27.2182L188.907 26.8222L190.589 26.4322L192.27 26.0476L193.951 25.6679L195.632 25.2927L197.313 24.9216L198.993 24.5544L200.674 24.1908L202.356 23.8308L204.039 23.4744L205.722 23.1214L207.408 22.7721L209.095 22.4266L210.784 22.0851L212.475 21.748L214.169 21.4156L215.866 21.0885L217.567 20.7672L219.27 20.4524L220.978 20.1449L222.689 19.8454L224.405 19.5551L226.125 19.2749L227.849 19.006L229.578 18.7496L231.311 18.507L233.049 18.2797L234.79 18.0692L236.536 17.877L238.286 17.7049L240.039 17.5545L241.796 17.4276L243.555 17.326L245.316 17.2516L247.079 17.2063L248.843 17.192L250.606 17.2106L252.369 17.264L254.13 17.354L255.888 17.4825L257.642 17.6514L259.391 17.8623L261.133 18.1169L262.867 18.4169L264.593 18.7636L266.308 19.1586L268.01 19.603L269.699 20.0982L271.373 20.645L273.03 21.2443L274.669 21.897L276.287 22.6036L277.884 23.3645L279.458 24.18L281.007 25.0502L282.529 25.9751L284.024 26.9543L285.489 27.9876L286.923 29.0744L288.325 30.214L289.694 31.4055L291.027 32.6478L292.325 33.9398L293.585 35.2803L294.808 36.6678L295.991 38.1006L297.135 39.5773L298.237 41.0958L299.299 42.6544L300.319 44.2511L301.297 45.8839L302.232 47.5505L303.125 49.2489L303.975 50.9767L304.782 52.7317L305.547 54.5114L306.269 56.3136L306.95 58.1359L307.588 59.9757L308.186 61.8306L308.744 63.6982L309.263 65.5759L309.743 67.4611L310.186 69.3513L310.593 71.2439L310.966 73.136L311.306 75.025L311.616 76.908L311.896 78.7823L312.151 80.6452L312.38 82.4937L312.589 84.3253L312.778 86.1371L312.951 87.9265L313.111 89.6908L313.262 91.4274L313.405 93.1341L313.545 94.8085L313.685 96.4488L313.828 98.0534L313.977 99.6208L314.135 101.15L314.305 102.639L314.49 104.089L314.693 105.498L314.916 106.866L315.162 108.194L315.433 109.48L315.732 110.726L316.061 111.932L316.423 113.099L316.818 114.227L317.248 115.317L317.717 116.371L318.224 117.39L318.771 118.375L319.359 119.329L319.99 120.251L320.664 121.145L321.381 122.013L322.142 122.856L322.948 123.675L323.798 124.475L324.691 125.256L325.629 126.021L326.61 126.772L327.633 127.511L328.698 128.241L329.804 128.965L330.948 129.684L332.131 130.4L333.35 131.117L334.603 131.837L335.889 132.56L337.206 133.291L338.551 134.031L339.922 134.781L341.316 135.545L342.732 136.323L344.166 137.118L345.616 137.932L347.079 138.765L348.552 139.62L350.033 140.497L351.518 141.399L353.004 142.326L354.488 143.279L355.969 144.259L357.442 145.266L358.905 146.302L360.356 147.367L361.791 148.461L363.208 149.584L364.605 150.737L365.979 151.919L367.329 153.13L368.652 154.371L369.946 155.639L371.21 156.936L372.442 158.261L373.642 159.613L374.807 160.991L375.938 162.394L377.034 163.822L378.094 165.275L379.118 166.75L380.106 168.247L381.059 169.766L381.976 171.306L382.859 172.865L383.707 174.444L384.522 176.04L385.305 177.654L386.056 179.285L386.777 180.932L387.468 182.594L388.13 184.272L388.764 185.964L389.371 187.671L389.951 189.391L390.504 191.124L391.03 192.87L391.53 194.629L392.003 196.399L392.448 198.181L392.863 199.974L393.248 201.776L393.6 203.588L393.919 205.409L394.2 207.236L394.443 209.07L394.643 210.909L394.799 212.751L394.906 214.594L394.963 216.438L394.966 218.279L394.912 220.116L394.799 221.947L394.625 223.769L394.386 225.581L394.082 227.379L393.709 229.162L393.267 230.927L392.754 232.672L392.169 234.393L391.511 236.089L390.781 237.758L389.977 239.396L389.1 241.002L388.15 242.574L387.129 244.11L386.038 245.607L384.878 247.065L383.65 248.481L382.358 249.854L381.003 251.183L379.587 252.467L378.113 253.704L376.585 254.895L375.005 256.039L373.377 257.136L371.704 258.185L369.989 259.186L368.237 260.141L366.45 261.049L364.633 261.912L362.789 262.73L360.922 263.504L359.035 264.236L357.133 264.926L355.22 265.578L353.298 266.192L351.371 266.77L349.443 267.315L347.516 267.828L345.595 268.312L343.681 268.769L341.779 269.2L339.89 269.61L338.016 270L336.161 270.372L334.327 270.729L332.514 271.073L330.726 271.408L328.963 271.734L327.226 272.056L325.518 272.374L323.838 272.691L322.188 273.01L320.568 273.332L318.978 273.659L317.419 273.994L315.89 274.337L314.391 274.691L312.923 275.057L311.483 275.436L310.073 275.829L308.69 276.238L307.334 276.664L306.004 277.106L304.699 277.567L303.418 278.045L302.159 278.543L300.921 279.058L299.703 279.593L298.503 280.146L297.319 280.717L296.15 281.306L294.994 281.912L293.849 282.534L292.715 283.171L291.589 283.822L290.469 284.485L289.354 285.159L288.243 285.843L287.132 286.534L286.022 287.23L284.91 287.929L283.795 288.629L282.675 289.327L281.55 290.022L280.418 290.711L279.278 291.391L278.129 292.061L276.971 292.717L275.804 293.359L274.625 293.984L273.437 294.59L272.237 295.176L271.027 295.741L269.807 296.283L268.576 296.802L267.335 297.296L266.084 297.765L264.824 298.208L263.556 298.625L262.278 299.014L260.993 299.376L259.701 299.71L258.402 300.016L257.097 300.293L255.787 300.542L254.472 300.762L253.152 300.954L251.829 301.117L250.503 301.253L249.175 301.36L247.846 301.44L246.515 301.492L245.184 301.518L243.854 301.518L242.524 301.492L241.196 301.442L239.87 301.369L238.546 301.273L237.225 301.156L235.908 301.019L234.594 300.862L233.284 300.689L231.979 300.499L230.678 300.295L229.381 300.079L228.089 299.851L226.802 299.615L225.519 299.371L224.24 299.121L222.965 298.868L221.694 298.614L220.426 298.359L219.16 298.107L217.897 297.859L216.635 297.617L215.373 297.383L214.111 297.159L212.848 296.946L211.582 296.746L210.314 296.561L209.041 296.392L207.762 296.24L206.477 296.107L205.184 295.993L203.882 295.901L202.57 295.829L201.246 295.78L199.909 295.754L198.557 295.751L197.191 295.771L195.807 295.814L194.406 295.881L192.985 295.97L191.545 296.082L190.083 296.216L188.599 296.371L187.092 296.546L185.561 296.74L184.005 296.952L182.424 297.181L180.816 297.425L179.182 297.683L177.522 297.953L175.834 298.233L174.118 298.522L172.375 298.817L170.605 299.117L168.807 299.42L166.982 299.723L165.13 300.025L163.251 300.322L161.347 300.614L159.418 300.897L157.464 301.17L155.486 301.43L153.487 301.675L151.465 301.903L149.424 302.111L147.364 302.297L145.286 302.459L143.191 302.597L141.081 302.708L138.955 302.79L136.817 302.844L134.665 302.868L132.502 302.86L130.328 302.82L128.145 302.747L125.954 302.64L123.756 302.497L121.552 302.317L119.344 302.1L117.134 301.844L114.923 301.548L112.712 301.212L110.504 300.834L108.3 300.414L106.102 299.95L103.912 299.441L101.733 298.888L99.565 298.288L97.4114 297.642L95.274 296.949L93.1547 296.208L91.0556 295.419L88.9787 294.582L86.9262 293.696L84.9001 292.761L82.9023 291.777L80.9351 290.744L79.0003 289.662L77.1001 288.532L75.2364 287.353L73.4112 286.126L71.6265 284.851L69.8842 283.529L68.1863 282.161L66.5347 280.746L64.9312 279.286L63.3778 277.781L61.8761 276.232L60.4281 274.64L59.0354 273.006L57.6997 271.332L56.4227 269.617L55.2059 267.864L54.0509 266.073L52.9592 264.246L51.932 262.385L50.9708 260.49L50.0768 258.564L49.2511 256.607L48.4947 254.621L47.8087 252.609L47.1938 250.571L46.6509 248.51L46.1804 246.428L45.783 244.325L45.4591 242.205L45.2089 240.069L45.0325 237.918L44.93 235.756L44.9013 233.584L44.9461 231.404L45.0641 229.218L45.2547 227.027L45.5173 224.835L45.8512 222.643L46.2555 220.453L46.7291 218.267L47.271 216.087L47.88 213.915L48.5546 211.752L49.2935 209.601L50.0951 207.464L50.9578 205.341L51.8799 203.235L52.8596 201.147L53.8951 199.079L54.9844 197.032L56.1256 195.008L57.3166 193.008L58.5554 191.032L59.84 189.084L61.1682 187.162L62.5378 185.27L63.9469 183.406L65.3931 181.573L66.8743 179.771L68.3884 178L69.9332 176.262L71.5066 174.556L73.1064 172.884L74.7304 171.246L76.3763 169.642L78.0415 168.072L79.7235 166.536L81.4191 165.034L83.125 163.567L84.8376 162.134L86.5534 160.733L88.2683 159.365L89.9782 158.029L91.6788 156.724L93.3655 155.448L95.0337 154.2L96.6786 152.978L98.2952 151.78L99.8789 150.604L101.425 149.449L102.93 148.31L104.39 147.187L105.801 146.075L107.16 144.974L108.466 143.88L109.715 142.79L110.906 141.702L112.037 140.612L113.108 139.52L114.116 138.42L115.062 137.312L115.945 136.192L116.766 135.059L117.526 133.909L118.223 132.74L118.861 131.551L119.44 130.338L119.961 129.102L120.427 127.839L120.84 126.548L121.202 125.227L121.516 123.877L121.784 122.495L122.01 121.081L122.197 119.634L122.347 118.154L122.466 116.64L122.556 115.094L122.62 113.514L122.664 111.903L122.691 110.259L122.704 108.585L122.708 106.882L122.707 105.15L122.705 103.392L122.706 101.609L122.714 99.8028L122.732 97.9762L122.765 96.1312L122.816 94.2703L122.889 92.396L122.988 90.511L123.115 88.6182L123.273 86.7204L123.467 84.8208L123.698 82.9222L123.969 81.0279L124.282 79.1409L124.64 77.2643L125.045 75.4013L125.497 73.5549L125.999 71.7282L126.552 69.924L127.156 68.1452L127.813 66.3947L128.522 64.6749L129.285 62.9883L130.1 61.3373L130.967 59.724L131.887 58.1503L132.857 56.6179L133.878 55.1283L134.948 53.6829Z" fill="url(#paint2_linear_360_714)"/>
</g>
<defs>
<filter id="filter0_d_360_714" x="1.99244" y="2.46879" width="404.677" height="331.045" filterUnits="userSpaceOnUse" color-interpolation-filters="sRGB">
<feFlood flood-opacity="0" result="BackgroundImageFix"/>
<feColorMatrix in="SourceAlpha" type="matrix" values="0 0 0 0 0 0 0 0 0 0 0 0 0 0 0 0 0 0 127 0" result="hardAlpha"/>
<feOffset dx="4.03635"/>
<feGaussianBlur stdDeviation="2.6909"/>
<feComposite in2="hardAlpha" operator="out"/>
<feColorMatrix type="matrix" values="0 0 0 0 0 0 0 0 0 0 0 0 0 0 0 0 0 0 0.25 0"/>
<feBlend mode="normal" in2="BackgroundImageFix" result="effect1_dropShadow_360_714"/>
<feBlend mode="normal" in="SourceGraphic" in2="effect1_dropShadow_360_714" result="shape"/>
</filter>
<filter id="filter1_d_360_714" x="25.9993" y="3.88383" width="382.28" height="314.329" filterUnits="userSpaceOnUse" color-interpolation-filters="sRGB">
<feFlood flood-opacity="0" result="BackgroundImageFix"/>
<feColorMatrix in="SourceAlpha" type="matrix" values="0 0 0 0 0 0 0 0 0 0 0 0 0 0 0 0 0 0 127 0" result="hardAlpha"/>
<feOffset dx="4.03635"/>
<feGaussianBlur stdDeviation="2.6909"/>
<feComposite in2="hardAlpha" operator="out"/>
<feColorMatrix type="matrix" values="0 0 0 0 0 0 0 0 0 0 0 0 0 0 0 0 0 0 0.25 0"/>
<feBlend mode="normal" in2="BackgroundImageFix" result="effect1_dropShadow_360_714"/>
<feBlend mode="normal" in="SourceGraphic" in2="effect1_dropShadow_360_714" result="shape"/>
</filter>
<filter id="filter2_d_360_714" x="43.5559" y="11.8101" width="360.828" height="296.44" filterUnits="userSpaceOnUse" color-interpolation-filters="sRGB">
<feFlood flood-opacity="0" result="BackgroundImageFix"/>
<feColorMatrix in="SourceAlpha" type="matrix" values="0 0 0 0 0 0 0 0 0 0 0 0 0 0 0 0 0 0 127 0" result="hardAlpha"/>
<feOffset dx="4.03635"/>
<feGaussianBlur stdDeviation="2.6909"/>
<feComposite in2="hardAlpha" operator="out"/>
<feColorMatrix type="matrix" values="0 0 0 0 0 0 0 0 0 0 0 0 0 0 0 0 0 0 0.25 0"/>
<feBlend mode="normal" in2="BackgroundImageFix" result="effect1_dropShadow_360_714"/>
<feBlend mode="normal" in="SourceGraphic" in2="effect1_dropShadow_360_714" result="shape"/>
</filter>
<linearGradient id="paint0_linear_360_714" x1="8.90729" y1="290.879" x2="337.29" y2="111.133" gradientUnits="userSpaceOnUse">
<stop stop-color="#032B4D"/>
<stop offset="1" stop-color="#108AEF"/>
</linearGradient>
<linearGradient id="paint1_linear_360_714" x1="35.174" y1="287.09" x2="335.43" y2="101.992" gradientUnits="userSpaceOnUse">
<stop stop-color="#003D71"/>
<stop offset="1" stop-color="#49ADFF"/>
</linearGradient>
<linearGradient id="paint2_linear_360_714" x1="51.876" y1="279.447" x2="336.909" y2="104.511" gradientUnits="userSpaceOnUse">
<stop stop-color="#005094"/>
<stop offset="1" stop-color="#78C2FF"/>
</linearGradient>
</defs>
</svg>
