<svg width="1732" height="1087" viewBox="0 0 1732 1087" fill="none" xmlns="http://www.w3.org/2000/svg">
<g opacity="0.75" filter="url(#filter0_f_360_678)">
<path fill-rule="evenodd" clip-rule="evenodd" d="M266 420.246L294.46 474.378C322.919 526.964 380.533 633.683 437.452 581.097C494.371 526.964 551.29 313.527 608.904 273.314C665.823 233.101 722.742 366.113 780.355 406.326C837.275 446.538 894.194 393.953 951.113 406.326C1008.73 420.246 1065.65 500.671 1122.56 567.177C1180.18 633.683 1237.1 687.815 1294.02 647.602C1350.94 607.39 1408.55 474.378 1437.01 406.326L1465.47 339.82L1465.47 820.827L1437.01 820.827C1408.55 820.827 1350.94 820.827 1294.02 820.827C1237.1 820.827 1180.18 820.827 1122.56 820.827C1065.65 820.827 1008.73 820.827 951.113 820.827C894.194 820.827 837.275 820.827 780.355 820.827C722.742 820.827 665.823 820.827 608.904 820.827C551.29 820.827 494.371 820.827 437.452 820.827C380.533 820.827 322.919 820.827 294.46 820.827L266 820.827L266 420.246Z" fill="url(#paint0_linear_360_678)"/>
<path fill-rule="evenodd" clip-rule="evenodd" d="M266 420.246L294.46 474.378C322.919 526.964 380.533 633.683 437.452 581.097C494.371 526.964 551.29 313.527 608.904 273.314C665.823 233.101 722.742 366.113 780.355 406.326C837.275 446.538 894.194 393.953 951.113 406.326C1008.73 420.246 1065.65 500.671 1122.56 567.177C1180.18 633.683 1237.1 687.815 1294.02 647.602C1350.94 607.39 1408.55 474.378 1437.01 406.326L1465.47 339.82L1465.47 820.827L1437.01 820.827C1408.55 820.827 1350.94 820.827 1294.02 820.827C1237.1 820.827 1180.18 820.827 1122.56 820.827C1065.65 820.827 1008.73 820.827 951.113 820.827C894.194 820.827 837.275 820.827 780.355 820.827C722.742 820.827 665.823 820.827 608.904 820.827C551.29 820.827 494.371 820.827 437.452 820.827C380.533 820.827 322.919 820.827 294.46 820.827L266 820.827L266 420.246Z" stroke="black"/>
</g>
<defs>
<filter id="filter0_f_360_678" x="0.273621" y="0.102234" width="1730.92" height="1086.45" filterUnits="userSpaceOnUse" color-interpolation-filters="sRGB">
<feFlood flood-opacity="0" result="BackgroundImageFix"/>
<feBlend mode="normal" in="SourceGraphic" in2="BackgroundImageFix" result="shape"/>
<feGaussianBlur stdDeviation="132.863" result="effect1_foregroundBlur_360_678"/>
</filter>
<linearGradient id="paint0_linear_360_678" x1="248.647" y1="265.829" x2="1525.71" y2="551.562" gradientUnits="userSpaceOnUse">
<stop stop-color="#407BFF"/>
<stop offset="1" stop-color="#EA4492"/>
</linearGradient>
</defs>
</svg>
