<svg width="42" height="43" viewBox="0 0 42 43" fill="none" xmlns="http://www.w3.org/2000/svg">
<path d="M39.3971 0.506836H2.34663C1.73695 0.506836 1.15225 0.749028 0.721148 1.18013C0.290043 1.61124 0.0478516 2.19594 0.0478516 2.80561L0.0478516 39.8561C0.0478516 40.4658 0.290043 41.0505 0.721148 41.4816C1.15225 41.9127 1.73695 42.1549 2.34663 42.1549H22.2954V26.0488H16.886V19.7446H22.2954V15.1081C22.2954 9.72878 25.5809 6.79959 30.381 6.79959C32.6789 6.79959 34.6548 6.97042 35.229 7.04362V12.6653H31.9184C29.3072 12.6653 28.8013 13.9058 28.8013 15.7271V19.7446H35.0436L34.2301 26.0488H28.8013V42.1549H39.3955C39.6975 42.1551 39.9966 42.0958 40.2757 41.9804C40.5548 41.8649 40.8084 41.6956 41.022 41.4822C41.2356 41.2687 41.4051 41.0152 41.5207 40.7362C41.6364 40.4572 41.6959 40.1581 41.6959 39.8561V2.80561C41.6959 2.19594 41.4537 1.61124 41.0226 1.18013C40.5915 0.749028 40.0068 0.506836 39.3971 0.506836Z" fill="#4267B2"/>
<path d="M28.8026 42.1548V26.0487H34.2323L35.0457 19.7445H28.8026V15.7294C28.8026 13.9081 29.3069 12.6676 31.9197 12.6676H35.2288V7.04432C34.6529 6.96786 32.677 6.80029 30.3807 6.80029C25.5814 6.80029 22.2951 9.72867 22.2951 15.1088V19.7453H16.8857V26.0487H22.2951V42.1548H28.8026Z" fill="white"/>
</svg>
