<svg width="55" height="100" viewBox="0 0 55 100" fill="none" xmlns="http://www.w3.org/2000/svg">
<path d="M19.881 49.1445H23.2917C23.8788 44.3289 24.0364 39.4706 23.7626 34.6271C23.2985 27.0253 24.5766 26.5544 21.805 21.9261C21.4976 21.3377 21.0578 20.8287 20.5201 20.4393C20.248 20.2486 19.9279 20.1381 19.5961 20.1202C19.2643 20.1024 18.9342 20.178 18.6432 20.3384C18.0916 20.6681 19.9348 38.8653 19.881 49.1445Z" fill="#263238"/>
<g opacity="0.1">
<path d="M19.882 49.145H23.2927C23.8798 44.3294 24.0374 39.4711 23.7636 34.6276C23.2994 27.0258 24.5776 26.5549 21.806 21.9265C21.4986 21.3381 21.0587 20.8292 20.5211 20.4398C20.249 20.2491 19.9288 20.1386 19.5971 20.1207C19.2653 20.1029 18.9351 20.1785 18.6442 20.3389C18.0925 20.6686 19.9358 38.8658 19.882 49.145Z" fill="black"/>
</g>
<path d="M43.293 85.4251L44.8402 93.4103L48.7084 93.3161L47.9684 84.8667L43.293 85.4251Z" fill="#FFBF9D"/>
<path d="M49.0373 93.2961C49.0201 93.2905 49.005 93.2798 48.9942 93.2653C48.9834 93.2509 48.9772 93.2334 48.9767 93.2153C48.9737 93.1976 48.9767 93.1793 48.9852 93.1635C48.9938 93.1477 49.0074 93.1351 49.0238 93.1279C49.0844 93.1279 50.4702 92.4552 51.0891 92.6906C51.2034 92.7328 51.2972 92.817 51.3514 92.9261C51.3911 92.9834 51.4123 93.0514 51.4123 93.1211C51.4123 93.1909 51.3911 93.2589 51.3514 93.3162C51.0079 93.515 50.6038 93.5819 50.2146 93.5046C49.8167 93.4706 49.4227 93.4008 49.0373 93.2961ZM49.34 93.2019C50.0127 93.3499 50.9882 93.4306 51.1833 93.2019C51.1833 93.1682 51.2438 93.1212 51.1833 93.0001C51.169 92.9657 51.147 92.9351 51.119 92.9106C51.091 92.8861 51.0578 92.8684 51.0218 92.8588C50.9681 92.8379 50.9112 92.8265 50.8536 92.8251C50.3295 92.8521 49.8156 92.98 49.34 93.2019Z" fill="#1494FF"/>
<path d="M48.9897 93.2899C48.9678 93.266 48.9558 93.2347 48.9561 93.2024C49.0438 92.6699 49.2956 92.1782 49.6762 91.7957C49.7495 91.7434 49.8325 91.7063 49.9204 91.6866C50.0082 91.667 50.0992 91.6652 50.1878 91.6813C50.4301 91.7284 50.4974 91.863 50.4974 91.9639C50.5445 92.3947 49.5618 93.1351 49.0907 93.3101H49.0503C49.0284 93.3106 49.007 93.3034 48.9897 93.2899ZM50.1137 91.8495C49.9999 91.8386 49.8859 91.8671 49.7907 91.9303C49.4817 92.2329 49.2727 92.6228 49.1916 93.0476C49.683 92.812 50.3358 92.2264 50.3358 91.9639C50.3358 91.9639 50.3358 91.8765 50.1676 91.8495H50.1137Z" fill="#1494FF"/>
<path d="M48.7017 92.7305L44.5779 92.3672C44.5026 92.3615 44.4274 92.3808 44.3642 92.4221C44.3009 92.4635 44.2531 92.5246 44.2281 92.5959L43.1921 95.8856C43.1534 96.0212 43.168 96.1664 43.2331 96.2915C43.2982 96.4167 43.4087 96.5121 43.5419 96.5583H43.6563C45.1497 96.6659 46.475 96.6995 48.325 96.8677C50.5113 97.0628 49.9328 97.2781 52.4959 97.5405C54.0432 97.6952 54.5141 95.9663 53.8413 95.8183C50.8746 95.1456 50.6392 94.2441 49.5763 93.0668C49.3345 92.8536 49.0241 92.7342 48.7017 92.7305Z" fill="#263238"/>
<path opacity="0.1" d="M44.2819 90.5243L48.4124 89.9458L47.9684 84.8667L43.293 85.4251L44.2819 90.5243Z" fill="black"/>
<path d="M20.777 44.436C20.777 44.436 45.1364 44.4899 46.3002 51.1633C47.464 57.8367 49.1391 88.1632 49.1391 88.1632L43.4949 88.9973C43.4949 88.9973 39.5124 72.2196 37.0031 55.0718C37.0031 55.0718 11.1772 57.3591 9.82503 53.7667C8.47285 50.1744 9.53576 44.7657 9.53576 44.7657L20.777 44.436Z" fill="#1494FF"/>
<path opacity="0.3" d="M20.777 44.436C20.777 44.436 45.1364 44.4899 46.3002 51.1633C47.464 57.8367 49.1391 88.1632 49.1391 88.1632L43.4949 88.9973C43.4949 88.9973 39.5124 72.2196 37.0031 55.0718C37.0031 55.0718 11.1772 57.3591 9.82503 53.7667C8.47285 50.1744 9.53576 44.7657 9.53576 44.7657L20.777 44.436Z" fill="black"/>
<path d="M42.9496 89.7573L49.8652 88.7684L49.7643 86.2793L42.3711 87.1606L42.9496 89.7573Z" fill="#1494FF"/>
<path opacity="0.4" d="M31.4991 53.3965C31.4991 53.457 31.4991 53.5176 31.4991 53.5781C31.4973 52.7586 31.4366 51.9402 31.3174 51.1294C30.5371 46.6558 18.8653 45.0009 14.0755 44.5098L8.25643 44.6847C8.25643 44.6847 7.35499 49.2659 8.49862 52.2932C9.64225 55.3205 31.4991 53.3965 31.4991 53.3965Z" fill="black"/>
<path d="M21.6371 29.8914L20.2916 40.8433C20.7962 41.8928 21.9667 44.4626 21.2065 44.4491C20.258 44.4491 14.3514 48.4855 14.3514 48.4855L3.68876 44.2271L4.42203 41.2201C4.20676 40.2715 3.24476 34.6677 2.40386 29.7366L2.32984 29.2859L1.50241 24.005L1.20641 22.1147C1.11895 21.3007 0.903667 20.6347 0.836395 20.1907C0.812348 20.0889 0.812348 19.983 0.836395 19.8812C0.866885 19.6438 0.987272 19.4271 1.17276 19.2758L1.21312 19.2421L1.42166 19.0807C5.30329 16.2754 15.3605 18.8587 18.3071 19.6256C18.7174 19.7265 19.5247 20.231 19.518 20.6548L20.036 22.1752L21.1325 25.4043C21.2402 25.7205 21.3276 26.0434 21.4083 26.373C21.6884 27.5236 21.7658 28.7142 21.6371 29.8914Z" fill="#263238"/>
<path d="M29.7168 86.0037L29.9791 93.9822L33.8473 93.8813L34.399 85.4453L29.7168 86.0037Z" fill="#FFBF9D"/>
<path d="M34.0834 93.982C34.0669 93.9747 34.0533 93.9622 34.0448 93.9463C34.0363 93.9305 34.0333 93.9122 34.0363 93.8945C34.0396 93.8753 34.0483 93.8576 34.0614 93.8432C34.0745 93.8289 34.0915 93.8187 34.1103 93.8138C34.1709 93.8138 35.6643 93.4842 36.2159 93.8474C36.3177 93.9114 36.3902 94.0129 36.4178 94.13C36.4407 94.1968 36.442 94.2692 36.4215 94.3368C36.4009 94.4044 36.3596 94.4639 36.3034 94.5067C35.9251 94.6298 35.5144 94.6058 35.153 94.4394C34.783 94.3205 34.4249 94.1674 34.0834 93.982ZM34.3996 93.982C35.0723 94.2847 35.9536 94.5672 36.1957 94.3856C36.2294 94.3856 36.2697 94.325 36.2428 94.1972C36.2366 94.1602 36.2218 94.125 36.1996 94.0947C36.1774 94.0643 36.1484 94.0395 36.115 94.0223C36.0639 93.9922 36.0098 93.9674 35.9536 93.9483C35.4397 93.853 34.9126 93.8553 34.3996 93.955V93.982Z" fill="#1494FF"/>
<path d="M34.0422 93.9619C34.0338 93.9489 34.0293 93.9337 34.0293 93.9182C34.0293 93.9027 34.0338 93.8875 34.0422 93.8745C34.0422 93.8341 34.466 92.8856 35.0513 92.6568C35.1333 92.6226 35.2213 92.605 35.3102 92.605C35.3992 92.605 35.4872 92.6226 35.5692 92.6568C35.798 92.7577 35.8316 92.899 35.8114 92.9999C35.7576 93.4305 34.6409 93.935 34.1498 93.9888H34.1094C34.0968 93.9922 34.0834 93.9914 34.0713 93.9866C34.0592 93.9817 34.049 93.9731 34.0422 93.9619ZM35.4482 92.8116C35.342 92.7712 35.2247 92.7712 35.1185 92.8116C34.75 93.038 34.4591 93.3712 34.2843 93.7668C34.8158 93.6457 35.5827 93.2152 35.6298 92.9663C35.6298 92.9663 35.6298 92.8721 35.4953 92.8116H35.4482Z" fill="#1494FF"/>
<path d="M33.8736 93.3633L29.9315 92.0986C29.8603 92.0749 29.7831 92.0767 29.7131 92.1037C29.6432 92.1307 29.5848 92.1812 29.548 92.2466L27.8056 95.2267C27.7682 95.2888 27.7436 95.3578 27.7332 95.4295C27.7228 95.5012 27.7268 95.5743 27.7449 95.6444C27.7631 95.7146 27.7951 95.7805 27.839 95.8381C27.8829 95.8958 27.9379 95.9441 28.0007 95.9802L28.1016 96.034C29.5345 96.4646 30.7925 96.7875 32.5887 97.3795C34.6742 98.0522 34.0687 98.1329 36.5107 98.9536C37.984 99.4447 38.7912 97.8504 38.1925 97.5678C35.4411 96.2829 35.4209 95.3209 34.6405 93.9418C34.4648 93.6612 34.1917 93.4552 33.8736 93.3633Z" fill="#263238"/>
<path d="M14.4456 45.1084C14.4456 45.1084 36.0872 46.4538 37.251 53.1811C38.4148 59.9083 34.6947 89.2324 34.6947 89.2324L29.0505 89.6159C29.0505 89.6159 27.8329 69.757 27.9607 57.1098C27.9607 57.1098 4.84586 58.5225 3.49368 54.9369C2.1415 51.3513 3.21113 45.4784 3.21113 45.4784L14.4456 45.1084Z" fill="#263238"/>
<path d="M14.4458 45.109C14.4458 45.109 36.0874 46.4545 37.2512 53.1817C38.415 59.909 34.6948 89.2331 34.6948 89.2331L29.0507 89.6165C29.0507 89.6165 27.833 69.7577 27.9609 57.1104C27.9609 57.1104 8.04149 59.2363 3.31223 55.9668C-1.88793 52.3745 3.54767 44.2412 3.54767 44.2412L14.4458 45.109Z" fill="#1494FF"/>
<path opacity="0.2" d="M14.4458 45.109C14.4458 45.109 36.0874 46.4545 37.2512 53.1817C38.415 59.909 34.6948 89.2331 34.6948 89.2331L29.0507 89.6165C29.0507 89.6165 27.833 69.7577 27.9609 57.1104C27.9609 57.1104 8.04149 59.2363 3.31223 55.9668C-1.88793 52.3745 3.54767 44.2412 3.54767 44.2412L14.4458 45.109Z" fill="black"/>
<path d="M28.4184 90.3154L35.3542 89.8714L35.5829 87.167L27.9609 87.6985L28.4184 90.3154Z" fill="#1494FF"/>
<path d="M9.25289 11.0752C9.52198 13.275 9.72381 16.457 8.10254 17.8024C10.0736 19.1479 9.58925 20.9912 10.9952 22.895C11.2038 23.1708 13.8207 23.0093 14.0965 22.7941C14.1503 22.7537 14.5809 22.8681 14.6145 22.7941C16.5116 19.8879 14.85 18.2666 14.85 18.2666C13.5852 18.8923 13.6256 16.679 14.1772 15.0241L9.25289 11.0752Z" fill="#FFBF9D"/>
<path opacity="0.2" d="M13.8342 17.3453C13.8102 16.5646 13.9241 15.7858 14.1705 15.0446L13.2893 14.3248L10.5984 12.8179C9.96599 14.2844 11.9976 16.7399 13.8342 17.3453Z" fill="black"/>
<path d="M16.5721 1.77832C20.4941 5.04104 20.6892 7.83285 20.7161 9.76357C20.6599 11.6955 20.3384 13.6104 19.7608 15.4548C17.5677 13.9277 15.7716 11.7683 15.2805 9.14466C14.9927 7.89279 14.9587 6.59595 15.1806 5.33074C15.4024 4.06553 15.8756 2.8576 16.5721 1.77832Z" fill="#263238"/>
<path d="M9.39359 5.9356C8.77468 9.52795 8.43833 11.0483 9.79723 13.2548C11.8154 16.6185 16.3832 16.6185 18.0583 13.2548C19.5585 10.2545 20.3523 4.88614 17.1972 2.65942C16.5081 2.16614 15.7043 1.85721 14.8622 1.76197C14.0201 1.66672 13.1677 1.78833 12.3858 2.11524C11.6039 2.44214 10.9186 2.96349 10.3949 3.62978C9.8712 4.29607 9.52651 5.08517 9.39359 5.92214V5.9356Z" fill="#FFBF9D"/>
<path d="M16.9483 9.25879C17.0505 9.9775 17.2497 10.679 17.5403 11.3442C17.369 11.4141 17.1844 11.4454 16.9995 11.4361C16.8147 11.4268 16.6342 11.3771 16.4707 11.2904L16.9483 9.25879Z" fill="#BA4D3C"/>
<path d="M16.0669 12.5958C16.2112 12.6241 16.3573 12.6421 16.5042 12.6497C16.5225 12.6444 16.5385 12.6334 16.55 12.6182C16.5614 12.6031 16.5676 12.5846 16.5676 12.5656C16.5676 12.5466 16.5614 12.5281 16.55 12.5129C16.5385 12.4977 16.5225 12.4867 16.5042 12.4815C16.1353 12.4711 15.7739 12.3744 15.4492 12.1992C15.1244 12.024 14.8452 11.775 14.634 11.4724C14.6283 11.4622 14.6206 11.4533 14.6114 11.4461C14.6022 11.4389 14.5917 11.4336 14.5804 11.4305C14.5692 11.4274 14.5574 11.4265 14.5458 11.4279C14.5343 11.4293 14.5231 11.433 14.5129 11.4387C14.5028 11.4445 14.4938 11.4522 14.4866 11.4614C14.4795 11.4706 14.4741 11.4811 14.471 11.4923C14.4679 11.5036 14.467 11.5153 14.4684 11.5269C14.4698 11.5385 14.4735 11.5497 14.4793 11.5598C14.6626 11.8286 14.8972 12.0585 15.1697 12.2363C15.4422 12.4141 15.7471 12.5363 16.0669 12.5958Z" fill="#263238"/>
<path d="M14.4387 6.21152C14.4682 6.23237 14.5034 6.24357 14.5396 6.24357C14.5757 6.24357 14.611 6.23237 14.6405 6.21152C14.8946 6.0848 15.172 6.01165 15.4555 5.9966C15.739 5.98156 16.0226 6.02495 16.2887 6.12407C16.3107 6.13688 16.3352 6.14473 16.3605 6.14708C16.3859 6.14942 16.4114 6.14621 16.4354 6.13766C16.4594 6.12912 16.4812 6.11545 16.4993 6.0976C16.5175 6.07975 16.5315 6.05816 16.5404 6.03433C16.5494 6.0105 16.553 5.98501 16.5511 5.95963C16.5491 5.93425 16.5417 5.90959 16.5293 5.88739C16.5168 5.86519 16.4997 5.84597 16.479 5.83108C16.4584 5.81619 16.4348 5.80598 16.4098 5.80117C16.0915 5.68558 15.7529 5.63668 15.415 5.65751C15.0771 5.67834 14.747 5.76846 14.4454 5.92225C14.4085 5.94928 14.3832 5.98923 14.3744 6.03412C14.3657 6.07902 14.3742 6.12555 14.3983 6.16443C14.4077 6.18321 14.4216 6.19937 14.4387 6.21152Z" fill="#263238"/>
<path d="M19.3438 7.5508C19.3727 7.57717 19.4095 7.59312 19.4485 7.59609C19.4875 7.59907 19.5264 7.58889 19.5589 7.5672C19.5914 7.54552 19.6158 7.51356 19.628 7.47643C19.6403 7.4393 19.6397 7.39914 19.6265 7.36235C19.5479 7.09701 19.4066 6.8545 19.2144 6.65534C19.0223 6.45617 18.785 6.30622 18.5227 6.21816C18.501 6.21209 18.4784 6.21042 18.456 6.21325C18.4337 6.21609 18.4122 6.22337 18.3928 6.23467C18.3733 6.24596 18.3563 6.26104 18.3428 6.27901C18.3293 6.29699 18.3195 6.31749 18.314 6.33931C18.3016 6.38393 18.3074 6.43166 18.3301 6.47204C18.3528 6.51241 18.3906 6.54213 18.4352 6.55469C18.6409 6.63022 18.8261 6.753 18.9757 6.91315C19.1254 7.07331 19.2353 7.26636 19.2967 7.47677C19.3058 7.50505 19.3221 7.53053 19.3438 7.5508Z" fill="#263238"/>
<path d="M9.34668 19.7065C9.34668 19.7065 13.4301 22.5656 15.0716 19.7738V22.4647L15.0379 25.714L14.4997 26.4674L13.4705 26.1311L12.2663 23.8909L11.7752 23.0971L9.34668 19.7065Z" fill="#263238"/>
<path d="M8.33112 17.5271C8.33112 17.5271 12.8451 23.7902 13.9954 25.7411C15.1458 27.692 14.3789 18.3411 14.3789 18.3411C14.3789 18.3411 15.0516 17.6213 16.2222 18.6976C16.2222 18.6976 17.5138 22.8551 17.3725 23.1914C17.2313 23.5278 15.6974 23.6691 15.6974 23.6691C15.6974 23.6691 16.5855 24.7051 16.4105 25.2971C16.0366 26.0644 15.3848 26.6608 14.5874 26.9654C14.0493 27.0327 10.4502 25.25 10.2551 24.7454C10.06 24.2409 11.1767 23.5211 11.1767 23.5211C11.1767 23.5211 8.59347 23.622 8.23692 22.6802C7.88038 21.7384 6.52148 17.4935 6.52148 17.4935C6.63375 17.3617 6.77386 17.2565 6.93169 17.1853C7.08953 17.1142 7.26116 17.079 7.43425 17.0822C7.60733 17.0855 7.77757 17.127 7.93265 17.2039C8.08774 17.2809 8.22382 17.3912 8.33112 17.5271Z" fill="#1494FF"/>
<path opacity="0.5" d="M8.33112 17.5271C8.33112 17.5271 12.8451 23.7902 13.9954 25.7411C15.1458 27.692 14.3789 18.3411 14.3789 18.3411C14.3789 18.3411 15.0516 17.6213 16.2222 18.6976C16.2222 18.6976 17.5138 22.8551 17.3725 23.1914C17.2313 23.5278 15.6974 23.6691 15.6974 23.6691C15.6974 23.6691 16.5855 24.7051 16.4105 25.2971C16.0366 26.0644 15.3848 26.6608 14.5874 26.9654C14.0493 27.0327 10.4502 25.25 10.2551 24.7454C10.06 24.2409 11.1767 23.5211 11.1767 23.5211C11.1767 23.5211 8.59347 23.622 8.23692 22.6802C7.88038 21.7384 6.52148 17.4935 6.52148 17.4935C6.63375 17.3617 6.77386 17.2565 6.93169 17.1853C7.08953 17.1142 7.26116 17.079 7.43425 17.0822C7.60733 17.0855 7.77757 17.127 7.93265 17.2039C8.08774 17.2809 8.22382 17.3912 8.33112 17.5271Z" fill="white"/>
<path d="M7.81275 8.53231C7.91779 9.22942 8.29221 9.85746 8.85549 10.2814C9.60894 10.833 10.322 10.241 10.3759 9.35976C10.4297 8.47849 10.1135 7.34159 9.22548 7.11286C9.03087 7.07289 8.82938 7.08197 8.63916 7.13928C8.44894 7.19658 8.27597 7.30031 8.13583 7.44112C7.99569 7.58193 7.89278 7.75539 7.83638 7.94588C7.77998 8.13637 7.77186 8.3379 7.81275 8.53231Z" fill="#FFBF9D"/>
<path d="M32.9459 10.0116L30.4651 9.63508C29.8296 9.53863 29.2363 9.9756 29.1398 10.6111L27.7811 19.5634C27.6847 20.1989 28.1216 20.7923 28.7571 20.8887L31.238 21.2652C31.8734 21.3617 32.4668 20.9247 32.5632 20.2892L33.922 11.3369C34.0184 10.7014 33.5814 10.1081 32.9459 10.0116Z" fill="#263238"/>
<path d="M25.2295 20.5136L27.0055 19.4574C27.0055 19.4574 27.7119 17.1836 28.4519 16.9549C29.0177 16.5529 29.6037 16.1802 30.2077 15.8382C31.136 15.3942 31.6137 16.04 31.6069 17.4594C31.6002 18.8789 32.1182 19.7063 30.7257 20.3723C29.3331 21.0383 28.7075 21.294 28.7075 21.294L26.3664 23.0565L25.2295 20.5136Z" fill="#FFBF9D"/>
<path opacity="0.2" d="M9.92501 25.0343C8.87964 25.8593 7.79048 26.6273 6.66229 27.335C5.34739 28.22 3.88811 28.8689 2.35012 29.2522L1.52269 23.9713C1.4118 23.8381 1.31485 23.6938 1.2334 23.5408V22.0608V21.563L9.92501 25.0343Z" fill="black"/>
<path d="M26.7435 23.124L25.9227 23.6487C24.3015 24.6645 22.8753 25.5256 21.4491 26.3396C19.101 27.6128 16.6586 28.7035 14.1433 29.6023C11.6273 28.8556 9.08442 28.3847 6.6828 27.3689C6.54825 27.3083 6.40699 27.2545 6.27244 27.1872C5.1318 26.7208 4.04282 26.1369 3.02317 25.4449C2.45972 25.0428 1.9607 24.5574 1.54319 24.0053C1.4323 23.872 1.33536 23.7277 1.2539 23.5747C1.052 23.2675 0.891418 22.935 0.776271 22.5858C0.469004 21.6922 0.504967 20.7163 0.877175 19.8478C0.969807 19.6067 1.09668 19.3801 1.2539 19.1751C1.27863 19.1376 1.30561 19.1017 1.33464 19.0675L1.46246 19.0136C4.42245 17.6682 6.26571 18.6638 7.82644 20.8435C9.88497 21.4624 11.8628 22.9424 14.9573 22.9356C16.698 22.9472 18.4284 22.6676 20.0768 22.1082C21.1598 21.7516 22.4044 21.2673 23.9651 20.5945L25.1087 20.0967L25.3778 20.4264C25.9225 21.1539 26.3597 21.9559 26.6762 22.8078C26.7112 22.9101 26.7338 23.0163 26.7435 23.124Z" fill="#263238"/>
<path opacity="0.1" d="M26.7435 23.124L25.9227 23.6487C24.3015 24.6645 22.8753 25.5256 21.4491 26.3396C19.101 27.6128 16.6586 28.7035 14.1433 29.6023C11.6273 28.8556 9.08442 28.3847 6.6828 27.3689C6.54825 27.3083 6.40699 27.2545 6.27244 27.1872C5.1318 26.7208 4.04282 26.1369 3.02317 25.4449C2.45972 25.0428 1.9607 24.5574 1.54319 24.0053C1.4323 23.872 1.33536 23.7277 1.2539 23.5747C1.052 23.2675 0.891418 22.935 0.776271 22.5858C0.469004 21.6922 0.504967 20.7163 0.877175 19.8478C0.969807 19.6067 1.09668 19.3801 1.2539 19.1751C1.27863 19.1376 1.30561 19.1017 1.33464 19.0675L1.46246 19.0136C4.42245 17.6682 6.26571 18.6638 7.82644 20.8435C9.88497 21.4624 11.8628 22.9424 14.9573 22.9356C16.698 22.9472 18.4284 22.6676 20.0768 22.1082C21.1598 21.7516 22.4044 21.2673 23.9651 20.5945L25.1087 20.0967L25.3778 20.4264C25.9225 21.1539 26.3597 21.9559 26.6762 22.8078C26.7112 22.9101 26.7338 23.0163 26.7435 23.124Z" fill="white"/>
<path d="M27.4631 23.2455L26.4473 24.4967L23.8506 20.42L25.1489 19.458L27.4631 23.2455Z" fill="#1494FF"/>
<path opacity="0.5" d="M27.4631 23.2455L26.4473 24.4967L23.8506 20.42L25.1489 19.458L27.4631 23.2455Z" fill="white"/>
<path d="M14.9035 0.930498C12.4884 -0.939678 8.51931 0.98431 6.77695 3.5003C5.93099 4.78046 5.51878 6.29858 5.60114 7.83079C5.68351 9.363 6.25608 10.8282 7.2344 12.0103C8.37803 13.3221 10.1069 13.8334 11.6811 14.5666C11.2911 12.3986 11.617 10.1625 12.6095 8.19593C13.6517 6.22964 15.3043 4.65498 17.3185 3.70886C16.6262 2.69051 15.8155 1.75788 14.9035 0.930498Z" fill="#263238"/>
<path d="M14.9033 0.930664C16.4708 2.57884 17.3857 3.17757 17.7893 3.91756C19.1348 4.87283 20.2111 8.03464 20.7157 9.58863C21.1799 6.62191 18.5966 1.21994 14.9033 0.930664Z" fill="#263238"/>
<path d="M18.0717 8.97694C18.0043 9.26657 18.1054 9.536 18.294 9.58315C18.4826 9.6303 18.6914 9.42823 18.7587 9.1386C18.8261 8.84897 18.725 8.57955 18.5432 8.53913C18.3613 8.49872 18.1458 8.68731 18.0717 8.97694Z" fill="#263238"/>
<path d="M19.1023 8.65346L18.4287 8.53223C18.4287 8.53223 18.4287 8.74102 18.4287 8.84206C18.5467 8.88406 18.6748 8.88848 18.7954 8.85471C18.916 8.82094 19.0232 8.75063 19.1023 8.65346Z" fill="#263238"/>
<path d="M14.8158 8.21016C14.7485 8.49979 14.8495 8.76921 15.0381 8.80963C15.2267 8.85004 15.4355 8.66145 15.5029 8.37182C15.5702 8.08219 15.5029 7.81277 15.2806 7.76562C15.0583 7.71847 14.8832 7.92053 14.8158 8.21016Z" fill="#263238"/>
<path d="M15.8864 7.88003L15.2129 7.75879V8.06863C15.3308 8.11165 15.4592 8.11659 15.58 8.08275C15.7009 8.04892 15.808 7.97801 15.8864 7.88003Z" fill="#263238"/>
</svg>
