<svg width="57" height="140" viewBox="0 0 57 140" fill="none" xmlns="http://www.w3.org/2000/svg">
<path d="M53.8956 93.4943C46.4957 102.495 28.9443 118.789 28.9443 118.789L25.5806 116.575C25.5806 116.575 38.4028 94.9003 44.6188 90.7967C39.385 82.4885 22.3516 52.9491 22.3516 52.9491L34.4606 48.563C34.4606 48.563 48.164 74.8598 54.5213 87.2312C55.0403 88.2221 55.2576 89.3434 55.1464 90.4564C55.0352 91.5695 54.6004 92.6256 53.8956 93.4943Z" fill="#FF8B7B"/>
<path d="M16.0684 55.2437C16.0684 55.2437 26.8723 84.9244 30.9558 97.3496C34.5548 108.349 45.4395 135.311 45.4395 135.311L49.3212 133.966C49.3212 133.966 42.4526 103.586 39.3379 92.2571C36.4923 81.85 29.4152 50.4136 29.4152 50.4136L16.0684 55.2437Z" fill="#FF8B7B"/>
<path d="M29.6448 119.899C30.2301 123.04 30.6607 123.491 32.2618 126.269C32.6116 126.868 31.0643 127.648 29.961 126.424C28.1245 124.406 28.1043 124.325 26.5436 122.616C25.1981 121.136 23.6038 119.508 22.5072 118.351C22.4744 118.316 22.4451 118.278 22.4198 118.237C22.3446 118.102 22.3257 117.943 22.3673 117.794C22.4089 117.646 22.5076 117.519 22.6418 117.443L25.8305 115.627C25.8993 115.588 25.9793 115.573 26.0575 115.585C26.1357 115.597 26.2075 115.636 26.261 115.694L29.2076 118.95C29.4395 119.219 29.5911 119.548 29.6448 119.899Z" fill="#263238"/>
<path d="M29.0662 119.623C29.4026 120.188 30.0686 121.144 30.6336 121.211C30.7242 121.226 30.8173 121.218 30.9035 121.186C30.9897 121.154 31.066 121.1 31.1247 121.029C31.1617 120.992 31.1884 120.946 31.2026 120.895C31.2167 120.844 31.2177 120.791 31.2055 120.74C31.0777 120.202 29.3891 119.549 29.1873 119.482C29.1722 119.472 29.1547 119.467 29.1368 119.467C29.119 119.467 29.1015 119.472 29.0864 119.482C29.075 119.489 29.0653 119.499 29.0579 119.51C29.0506 119.522 29.0458 119.535 29.0439 119.548C29.042 119.561 29.043 119.575 29.0468 119.588C29.0507 119.601 29.0573 119.613 29.0662 119.623ZM31.0036 120.774C31.0104 120.793 31.0108 120.814 31.0047 120.833C30.9987 120.852 30.9865 120.869 30.97 120.881C30.9336 120.925 30.8868 120.959 30.834 120.98C30.7811 121.001 30.7238 121.009 30.6673 121.002C30.3376 120.969 29.8668 120.504 29.3824 119.764C30.0551 120.04 30.896 120.471 31.0036 120.774Z" fill="#1494FF"/>
<path d="M29.0654 119.623C29.0685 119.635 29.0745 119.645 29.0827 119.653C29.091 119.661 29.1012 119.667 29.1125 119.67C29.6036 119.886 30.8885 120.013 31.1778 119.67C31.225 119.604 31.2469 119.522 31.2395 119.441C31.2322 119.36 31.1959 119.283 31.1374 119.226C31.081 119.149 31.0096 119.085 30.9275 119.036C30.8454 118.988 30.7543 118.956 30.6598 118.944C30.0901 118.97 29.5426 119.173 29.0923 119.522C29.0846 119.536 29.0806 119.551 29.0806 119.566C29.0806 119.581 29.0846 119.597 29.0923 119.61L29.0654 119.623ZM31.0365 119.421C31.0481 119.438 31.0543 119.458 31.0543 119.479C31.0543 119.499 31.0481 119.519 31.0365 119.536C30.8616 119.751 29.9198 119.731 29.3681 119.536C29.7376 119.265 30.1816 119.115 30.6396 119.105C30.709 119.112 30.7762 119.133 30.8365 119.168C30.8969 119.203 30.9491 119.25 30.9894 119.307C31.014 119.341 31.0301 119.38 31.0365 119.421Z" fill="#1494FF"/>
<path d="M39.4061 28.738C38.101 26.6458 30.4857 22.8853 29.8937 22.5557L27.7881 27.4464C30.8221 29.2089 35.3024 31.6442 35.0333 33.3596L39.4061 28.738Z" fill="#FF8B7B"/>
<path d="M33.4517 23.0335C30.7944 21.5468 24.4775 16.979 21.5108 19.9659C21.5108 19.9659 19.7281 23.9619 24.2017 26.6259C26.0315 27.7157 29.0521 29.6599 30.2563 30.3729L33.4517 23.0335Z" fill="#1494FF"/>
<g opacity="0.2">
<path d="M33.4517 23.033C30.7944 21.5463 24.4775 16.9785 21.5108 19.9654C21.5108 19.9654 19.7281 23.9614 24.2017 26.6254C26.0315 27.7152 29.0521 29.6594 30.2563 30.3725L33.4517 23.033Z" fill="black"/>
</g>
<path d="M49.6504 133.643C50.7537 134.155 53.014 134.356 55.9269 134.107C56.566 134.06 56.8217 135.574 55.3484 136.025C53.8751 136.475 50.6393 137.37 49.563 137.68C47.8341 138.211 46.8721 138.628 45.4795 139.025C45.4394 139.031 45.3986 139.031 45.3584 139.025C45.2881 139.032 45.2171 139.024 45.1497 139.003C45.0824 138.981 45.0199 138.947 44.966 138.901C44.9122 138.855 44.868 138.799 44.836 138.736C44.804 138.673 44.785 138.604 44.7799 138.534L44.5108 135.17C44.5049 135.097 44.5245 135.025 44.5662 134.965C44.6079 134.904 44.6691 134.861 44.7395 134.841L49.0113 133.495C49.2352 133.467 49.4618 133.519 49.6504 133.643Z" fill="#263238"/>
<path d="M8.55999 23.2896C9.03763 23.0676 9.52872 22.8456 10.0131 22.6168C12.5718 21.534 15.1908 20.5996 17.8571 19.8183C18.2069 19.7241 18.5365 19.6434 18.846 19.5761C19.9761 19.3272 21.1198 19.1321 22.2634 18.9909C22.6738 18.9354 23.0914 19.0007 23.4654 19.1787C23.8393 19.3567 24.1533 19.6397 24.369 19.9932C25.7616 22.2939 28.9436 29.0683 34.5137 48.6042L16.0541 55.2642C15.4756 53.8784 14.3925 49.62 12.5223 44.1508C11.7218 41.8164 10.78 39.2735 9.66326 36.6297C8.08833 32.8396 6.2332 29.172 4.11328 25.6576C5.55378 24.7922 7.038 24.0019 8.55999 23.2896Z" fill="#1494FF"/>
<path opacity="0.2" d="M8.55999 23.2896C9.03763 23.0676 9.52872 22.8456 10.0131 22.6168C12.5718 21.534 15.1908 20.5996 17.8571 19.8183C18.2069 19.7241 18.5365 19.6434 18.846 19.5761C19.9761 19.3272 21.1198 19.1321 22.2634 18.9909C22.6738 18.9354 23.0914 19.0007 23.4654 19.1787C23.8393 19.3567 24.1533 19.6397 24.369 19.9932C25.7616 22.2939 28.9436 29.0683 34.5137 48.6042L16.0541 55.2642C15.4756 53.8784 14.3925 49.62 12.5223 44.1508C11.7218 41.8164 10.78 39.2735 9.66326 36.6297C8.08833 32.8396 6.2332 29.172 4.11328 25.6576C5.55378 24.7922 7.038 24.0019 8.55999 23.2896Z" fill="black"/>
<path opacity="0.2" d="M6.8584 30.5826C7.90112 32.6008 8.82948 34.6526 9.67038 36.6371C9.89238 37.1686 10.1077 37.6933 10.3431 38.218C11.2027 35.3342 11.2027 32.2623 10.3431 29.3784L6.8584 30.5826Z" fill="black"/>
<path d="M27.8203 50.9318C27.8203 50.9318 28.0827 51.0597 33.5721 71.9612L41.4093 88.0124L53.9355 83.0545L34.5139 48.1938L27.8203 50.9318Z" fill="#1494FF"/>
<g opacity="0.1">
<path d="M27.8213 50.9318C27.8213 50.9318 28.0836 51.0597 33.5731 71.9612L41.4103 88.0124L53.9365 83.0545L34.5149 48.1938L27.8213 50.9318Z" fill="white"/>
</g>
<path opacity="0.2" d="M39.5059 84.0771C36.2768 77.814 32.6038 70.4477 29.415 65.4494L30.6663 63.3438C34.3797 65.8597 37.9788 77.6728 39.5059 84.0771Z" fill="black"/>
<path d="M16.0684 55.2437L21.7663 76.9324C24.3832 88.88 26.1323 92.5463 26.1323 92.5463L39.1294 88.7522L33.8552 67.8102C31.0096 57.4435 29.422 50.4136 29.422 50.4136L16.0684 55.2437Z" fill="#1494FF"/>
<g opacity="0.1">
<path d="M16.0674 55.2442L21.7654 76.9329C24.3823 88.8805 26.1313 92.5468 26.1313 92.5468L39.1284 88.7527L33.8542 67.8107C31.0086 57.444 29.421 50.4141 29.421 50.4141L16.0674 55.2442Z" fill="white"/>
</g>
<path d="M50.3642 133.866C50.609 133.81 50.8274 133.673 50.9834 133.476C51.0335 133.401 51.063 133.314 51.0689 133.225C51.0748 133.135 51.0569 133.045 51.017 132.964C51.0032 132.916 50.9755 132.872 50.9373 132.838C50.8991 132.805 50.8519 132.783 50.8017 132.776C50.3507 132.695 49.4556 133.738 49.3277 133.86C49.3178 133.873 49.3125 133.89 49.3125 133.907C49.3125 133.924 49.3178 133.94 49.3277 133.954C49.3353 133.968 49.3469 133.981 49.3612 133.989C49.3755 133.997 49.3919 134.001 49.4084 134.001C49.7311 133.992 50.0517 133.947 50.3642 133.866ZM50.6603 132.978C50.6957 132.969 50.7326 132.969 50.768 132.978C50.7877 132.982 50.8057 132.992 50.82 133.007C50.8343 133.021 50.8442 133.039 50.8488 133.059C50.8783 133.11 50.8939 133.168 50.8939 133.227C50.8939 133.286 50.8783 133.344 50.8488 133.395C50.5139 133.698 50.075 133.859 49.6238 133.846C49.9194 133.503 50.2781 133.22 50.6805 133.012L50.6603 132.978Z" fill="#1494FF"/>
<path d="M49.4284 134.014H49.4621C49.7648 133.704 50.2357 132.722 50.0339 132.345C50.0037 132.288 49.954 132.242 49.8937 132.218C49.8334 132.193 49.7662 132.191 49.7043 132.211C49.6391 132.222 49.5768 132.246 49.5212 132.282C49.4657 132.317 49.4181 132.364 49.3813 132.419C49.2078 132.917 49.1844 133.455 49.3141 133.967C49.3187 133.981 49.3265 133.994 49.3371 134.004C49.3476 134.015 49.3605 134.023 49.3746 134.027L49.4284 134.014ZM49.6975 132.379H49.7379C49.8388 132.345 49.8724 132.379 49.8792 132.426C50.0003 132.641 49.7312 133.361 49.4486 133.771C49.3538 133.364 49.3819 132.938 49.5293 132.547C49.5442 132.509 49.5669 132.474 49.5958 132.445C49.6247 132.416 49.6594 132.394 49.6975 132.379Z" fill="#1494FF"/>
<path d="M4.19424 27.7095C3.91843 28.3822 3.70316 28.9944 3.48116 29.6335C3.25916 30.2726 3.05734 30.8982 2.86225 31.544C2.47207 32.8222 2.12226 34.1138 1.83298 35.4324C1.20527 38.1189 0.880334 40.8673 0.864258 43.6262C0.864258 43.6934 0.864258 43.7607 0.864258 43.8347V44.0836C0.871161 44.2464 0.891408 44.4084 0.924801 44.568C0.979543 44.8566 1.05831 45.1401 1.16026 45.4156L1.30826 45.7923C1.35535 45.9134 1.42935 46.0076 1.46972 46.122L1.6379 46.4449L1.81953 46.7274C2.26183 47.4006 2.77122 48.0272 3.33989 48.5976C4.34394 49.5886 5.4335 50.4891 6.59588 51.2885C8.81071 52.8234 11.1643 54.1477 13.6259 55.2441L15.0049 52.8627C14.0497 52.0958 13.0339 51.3019 12.0719 50.5081C11.1099 49.7143 10.1546 48.9003 9.2666 48.0661C8.40074 47.2808 7.59355 46.4332 6.85152 45.53C6.54558 45.1574 6.27952 44.7538 6.0577 44.3258L5.99715 44.1912L5.96351 44.0836V43.9692C5.96619 43.9469 5.96619 43.9243 5.96351 43.902V43.8145V43.7741C6.06629 42.6048 6.23021 41.4416 6.4546 40.2894C6.69005 39.1122 6.95242 37.9214 7.27533 36.7442C7.59823 35.5669 7.94805 34.3829 8.30459 33.2056C8.48623 32.6136 8.6746 32.0284 8.87642 31.4431L9.46168 29.7411L4.19424 27.7095Z" fill="#FF8B7B"/>
<path d="M10.6592 30.5821C9.9865 35.0691 8.88996 39.8253 8.88996 39.8253L0.386719 36.1724C0.386719 36.1724 0.992167 27.2521 4.11361 25.6375C7.8876 23.6934 11.4127 25.7048 10.6592 30.5821Z" fill="#1494FF"/>
<path opacity="0.2" d="M10.6592 30.5821C9.9865 35.0691 8.88996 39.8253 8.88996 39.8253L0.386719 36.1724C0.386719 36.1724 0.992167 27.2521 4.11361 25.6375C7.8876 23.6934 11.4127 25.7048 10.6592 30.5821Z" fill="black"/>
<path d="M13.0938 54.955C13.6319 56.6032 16.8139 55.9439 16.8139 55.9439L16.861 51.2349L13.4974 52.7687L13.0938 54.955Z" fill="#FF8B7B"/>
<path d="M16.8695 51.2676L16.8291 55.9497L19.6344 55.8556L19.8496 51.9874L16.8695 51.2676Z" fill="#FF8B7B"/>
<path d="M10.3848 22.7378L10.7682 22.9867C11.266 23.3096 11.7638 23.6594 12.2818 23.9352C13.9226 24.4396 15.6196 24.7379 17.334 24.8232C17.8835 24.4124 18.3649 23.9175 18.7602 23.3567C18.8368 22.9779 18.8112 22.5855 18.6862 22.2198C18.6306 22.0505 18.5439 21.8931 18.4306 21.7556C17.7359 21.658 17.1015 21.3084 16.6478 20.7734C16.5678 20.6802 16.4979 20.5787 16.4393 20.4707C15.9824 19.5148 15.8275 18.4424 15.9953 17.3963L10.3848 14.0327C11.2526 16.3469 12.4231 20.8945 10.3848 22.7378Z" fill="#FF8B7B"/>
<path opacity="0.2" d="M12.8521 16.7972C13.1548 17.9274 15.1999 19.9119 15.9937 18.8625C15.95 18.3814 15.95 17.8973 15.9937 17.4161L12.6705 15.3979C12.6455 15.8715 12.707 16.3457 12.8521 16.7972Z" fill="black"/>
<path d="M17.1851 10.5337L17.7636 12.0406C17.7636 12.0406 19.9769 12.0406 20.3738 11.7715C20.0292 11.3682 19.8115 10.872 19.7481 10.3453C19.7952 9.71299 20.7303 9.53135 20.8783 8.88554C21.0263 8.23972 20.7034 6.19464 20.1316 6.13409C19.5598 6.07355 16.1289 6.17445 16.1289 6.17445C13.7071 7.42572 17.1851 10.5337 17.1851 10.5337Z" fill="#263238"/>
<path d="M11.2518 7.03605C11.5604 6.48064 11.9755 5.99157 12.4734 5.59685C12.9713 5.20214 13.5422 4.90954 14.1534 4.73582C14.7645 4.56209 15.404 4.51065 16.035 4.58445C16.6661 4.65825 17.2764 4.85583 17.831 5.16588C21.1072 6.96878 20.9727 12.2429 19.8492 15.3173C18.5912 18.728 14.0638 19.8246 11.7092 16.7906C10.1485 14.7724 10.4445 12.7138 10.6463 9.17531C10.6766 8.42445 10.884 7.69139 11.2518 7.03605Z" fill="#FF8B7B"/>
<path d="M10.8286 15.5393L10.4788 13.4337L12.84 14.3688C12.84 14.3688 11.683 11.6779 11.8982 10.4333C11.952 9.80771 12.6248 9.60589 12.7862 8.96008C12.9477 8.31426 12.6046 6.22881 12.0328 6.2019C11.461 6.17499 8.57496 6.2019 8.57496 6.2019C6.15315 7.44644 10.8286 15.5393 10.8286 15.5393Z" fill="#263238"/>
<path d="M16.2708 10.5277C16.4527 10.5277 16.5807 10.7971 16.547 11.0868C16.5133 11.3764 16.3382 11.5919 16.1496 11.5717C15.961 11.5515 15.833 11.2956 15.8667 11.0059C15.9004 10.7163 16.089 10.5075 16.2708 10.5277Z" fill="#263238"/>
<path d="M19.2776 10.7427C19.4662 10.7427 19.6346 10.9515 19.6548 11.2411C19.675 11.5307 19.5335 11.7732 19.3449 11.7867C19.1563 11.8002 18.988 11.5712 18.9677 11.2815C18.9475 10.9919 19.089 10.7494 19.2776 10.7427Z" fill="#263238"/>
<path d="M17.7031 13.8645C17.9293 13.9509 18.1715 13.9872 18.4131 13.9709C18.6547 13.9546 18.8898 13.8862 19.1024 13.7703C18.6259 12.9528 18.2616 12.0749 18.0193 11.1602L17.7031 13.8645Z" fill="#BA4D3C"/>
<path d="M15.0999 9.37704C15.069 9.34559 15.0518 9.3033 15.0518 9.25925C15.0518 9.21521 15.069 9.17293 15.0999 9.14148C15.2964 8.95794 15.5338 8.82376 15.7924 8.75004C16.0511 8.67631 16.3235 8.66514 16.5873 8.71745C16.6301 8.72995 16.6663 8.75895 16.6877 8.79808C16.7092 8.83721 16.7142 8.88325 16.7017 8.9261C16.6891 8.9692 16.6605 9.00582 16.6216 9.02837C16.5828 9.05092 16.5368 9.05769 16.4931 9.04725C16.2841 9.00904 16.0691 9.02083 15.8655 9.08165C15.662 9.14248 15.4757 9.25062 15.322 9.39723C15.3013 9.41362 15.2775 9.42565 15.2521 9.43259C15.2266 9.43953 15.2 9.44125 15.1739 9.43762C15.1432 9.42618 15.1172 9.40487 15.0999 9.37704Z" fill="#263238"/>
<path d="M20.1594 9.72701C20.0477 9.54685 19.8949 9.39564 19.7136 9.2857C19.5323 9.17576 19.3276 9.11018 19.1162 9.09434C19.0797 9.08707 19.0461 9.06912 19.0197 9.04276C18.9934 9.01641 18.9754 8.98282 18.9681 8.94627C18.9653 8.92414 18.9669 8.90168 18.9729 8.88019C18.9788 8.85869 18.989 8.8386 19.0028 8.82107C19.0165 8.80353 19.0337 8.7889 19.0531 8.77804C19.0726 8.76719 19.0941 8.76031 19.1162 8.75781C19.3876 8.77013 19.6519 8.84825 19.8864 8.98544C20.1209 9.12262 20.3186 9.31475 20.4623 9.54528C20.4732 9.56288 20.4805 9.58249 20.4837 9.60294C20.4869 9.62339 20.4859 9.64427 20.4809 9.66435C20.4759 9.68443 20.4669 9.7033 20.4545 9.71984C20.442 9.73638 20.4264 9.75027 20.4085 9.76066C20.3968 9.76566 20.3842 9.76823 20.3715 9.76823C20.3587 9.76823 20.3461 9.76566 20.3344 9.76066C20.3052 9.77284 20.273 9.77614 20.2419 9.77015C20.2108 9.76417 20.1821 9.74916 20.1594 9.72701Z" fill="#263238"/>
<path d="M9.98683 10.191C11.0296 10.3659 11.5677 11.893 11.6148 12.8819C11.6686 13.9986 10.9421 14.8126 10.0137 14.187C9.29268 13.6889 8.78208 12.941 8.58083 12.0881C8.31847 11.0723 8.95083 10.0161 9.98683 10.191Z" fill="#FF8B7B"/>
<path d="M17.8921 15.1086C17.7343 15.5274 17.6062 15.9568 17.5086 16.3935H17.2732C16.2035 16.3195 15.7326 15.9293 15.5375 15.5257C15.4432 15.3264 15.3993 15.1069 15.4097 14.8866C15.4088 14.7613 15.427 14.6365 15.4635 14.5166C16.1037 14.8524 16.8074 15.0495 17.5288 15.0951L17.8921 15.1086Z" fill="#2E353A"/>
<path d="M17.528 15.1088L17.4069 15.4788C16.6881 15.5198 15.9766 15.3159 15.3887 14.9003C15.3878 14.7749 15.406 14.6502 15.4425 14.5303C16.0888 14.8688 16.7997 15.066 17.528 15.1088Z" fill="white"/>
<path d="M17.3068 16.3804C16.2366 16.3064 15.7655 15.916 15.5703 15.5122C15.976 15.5495 16.3722 15.6565 16.7414 15.8285C16.9834 15.9482 17.1813 16.1414 17.3068 16.3804Z" fill="#DE5753"/>
<path d="M20.6702 7.70873C16.612 6.83336 12.3963 7.0234 8.43329 8.26037C7.7792 8.11794 7.19854 7.74414 6.79808 7.20772C6.39762 6.6713 6.2043 6.00833 6.25366 5.34074C6.40839 4.10293 7.4242 2.93239 8.74947 2.15203C10.1516 1.39135 11.6859 0.905028 13.2702 0.719122C14.952 0.470214 16.6338 0.968028 18.134 1.45239C19.6342 1.93675 21.0267 2.79784 21.6523 3.93475C21.961 4.57843 22.0317 5.31064 21.8519 6.00148C21.6721 6.69233 21.2534 7.29717 20.6702 7.70873Z" fill="#263238"/>
<path d="M38.0124 27.6216L25.54 34.0327L25.5737 36.663C25.5737 36.663 38.5707 34.0999 40.044 32.0885C40.2845 31.4115 40.3019 30.6753 40.0937 29.9877C39.8855 29.3001 39.4626 28.6972 38.8869 28.2674L38.0124 27.6216Z" fill="#FF8B7B"/>
<path d="M25.5396 34.0321L23.6156 34.9672C23.0179 35.2571 22.5569 35.7688 22.3307 36.3934L21.4562 38.7816C21.4085 38.9204 21.4106 39.0716 21.4621 39.209C21.5137 39.3465 21.6115 39.4618 21.7387 39.535L23.2389 40.349C23.3712 40.4207 23.5253 40.4411 23.6717 40.4063C23.8182 40.3716 23.9467 40.2841 24.0327 40.1606L25.5733 38.0012L27.1138 35.5188C27.1138 35.5188 26.2796 33.6689 25.5396 34.0321Z" fill="#FF8B7B"/>
<path d="M27.8008 36.3874L26.7177 36.6027L25.3857 33.71L26.3612 33.2593L27.8008 36.3874Z" fill="#263238"/>
<path d="M25.1486 33.4481L26.2242 32.9531C26.3701 32.886 26.5367 32.8796 26.6873 32.9353C26.8379 32.9909 26.9602 33.1042 27.0273 33.2501L27.0639 33.3295L24.8883 34.3306L24.8517 34.2512C24.7846 34.1053 24.7782 33.9388 24.8339 33.7881C24.8895 33.6375 25.0028 33.5152 25.1486 33.4481Z" fill="#263238"/>
</svg>
