<svg width="261" height="133" viewBox="0 0 261 133" fill="none" xmlns="http://www.w3.org/2000/svg">
<path d="M26.654 25.9081V48.9422H66.9637V71.8148H26.654V107.745H0.828125V3.02197H72.4397V25.8946L26.654 25.9081Z" fill="#263238"/>
<path d="M130.764 87.8252H92.1567L84.9787 108.168H58.6348L98.9377 3.47217H124.373L164.804 108.175H137.936L130.764 87.8252ZM123.216 65.9885L111.477 32.4801L99.7383 65.9885H123.216Z" fill="#263238"/>
<path d="M260.217 118.925C257.357 123.042 253.531 126.394 249.074 128.688C244.617 130.982 239.666 132.148 234.654 132.084C219.787 132.084 210.005 126.251 194.741 108.007C170.745 103.365 154.048 82.1273 154.048 54.4582C154.048 23.0419 175.575 0.0078125 204.785 0.0078125C233.994 0.0078125 255.522 23.0419 255.522 54.4582C255.522 78.239 243.13 97.2367 224.482 105.013C228.135 109.501 231.263 110.994 235.178 110.994C240.13 110.994 244.96 108.451 249.003 103.668L260.217 118.925ZM204.785 84.3675C218.609 84.3675 229.433 72.5545 229.433 54.4582C229.433 36.3619 218.609 24.5421 204.785 24.5421C190.96 24.5421 180.129 36.3551 180.129 54.4582C180.129 72.5612 190.96 84.3675 204.785 84.3675Z" fill="#263238"/>
<path d="M199.349 3.60059C199.305 3.60368 199.26 3.59804 199.218 3.58399C199.176 3.56995 199.138 3.54777 199.104 3.51872C199.037 3.46005 198.995 3.37698 198.989 3.28778C198.983 3.19857 199.012 3.11052 199.071 3.04303C199.13 2.97553 199.213 2.93411 199.302 2.92787C202.106 2.54606 204.941 2.4469 207.765 2.63187C207.809 2.63444 207.852 2.6457 207.892 2.66503C207.932 2.68436 207.968 2.71137 207.997 2.74449C208.026 2.77762 208.049 2.81621 208.063 2.85806C208.078 2.89992 208.084 2.94422 208.081 2.98841C208.071 3.07698 208.028 3.15858 207.961 3.2171C207.894 3.27563 207.807 3.30684 207.718 3.30459C204.941 3.1206 202.153 3.21751 199.396 3.59386L199.349 3.60059Z" fill="white"/>
<path d="M167.293 22.9811C167.22 22.9827 167.149 22.9589 167.092 22.9139C167.02 22.8603 166.973 22.7807 166.96 22.6923C166.948 22.604 166.971 22.5143 167.024 22.443C173.429 13.9868 181.791 7.8852 191.209 4.81084C191.251 4.79623 191.295 4.79024 191.339 4.79323C191.384 4.79621 191.427 4.80812 191.467 4.82822C191.506 4.84832 191.541 4.87621 191.57 4.91022C191.598 4.94422 191.62 4.98364 191.633 5.02611C191.658 5.11088 191.65 5.20234 191.61 5.28134C191.57 5.36034 191.501 5.42075 191.417 5.44993C182.134 8.48392 173.886 14.4981 167.562 22.8466C167.531 22.888 167.49 22.9216 167.443 22.9449C167.397 22.9683 167.346 22.9806 167.293 22.9811Z" fill="white"/>
<path d="M25.5377 6.66784H20.4721C20.3829 6.66784 20.2973 6.6324 20.2343 6.56932C20.1712 6.50624 20.1357 6.42069 20.1357 6.33148C20.1357 6.24227 20.1712 6.15672 20.2343 6.09364C20.2973 6.03056 20.3829 5.99512 20.4721 5.99512H25.5377C25.6269 5.99512 25.7125 6.03056 25.7756 6.09364C25.8387 6.15672 25.8741 6.24227 25.8741 6.33148C25.8741 6.42069 25.8387 6.50624 25.7756 6.56932C25.7125 6.6324 25.6269 6.66784 25.5377 6.66784Z" fill="white"/>
<path d="M4.26507 22.9814C4.17586 22.9814 4.09031 22.946 4.02723 22.8829C3.96415 22.8198 3.92871 22.7343 3.92871 22.6451V6.33148C3.92871 6.24227 3.96415 6.15672 4.02723 6.09364C4.09031 6.03056 4.17586 5.99512 4.26507 5.99512H16.0714C16.1601 5.99684 16.2446 6.03283 16.3073 6.09554C16.37 6.15825 16.406 6.24281 16.4078 6.33148C16.4078 6.42069 16.3723 6.50624 16.3092 6.56932C16.2462 6.6324 16.1606 6.66784 16.0714 6.66784H4.60144V22.6249C4.60419 22.6707 4.59753 22.7166 4.58187 22.7598C4.5662 22.803 4.54186 22.8425 4.51035 22.8759C4.47883 22.9093 4.44081 22.9359 4.39863 22.954C4.35645 22.9722 4.311 22.9815 4.26507 22.9814Z" fill="white"/>
<path d="M122.099 6.66784H116.2C116.11 6.66784 116.025 6.6324 115.962 6.56932C115.899 6.50624 115.863 6.42069 115.863 6.33148C115.865 6.24281 115.901 6.15825 115.964 6.09554C116.026 6.03283 116.111 5.99684 116.2 5.99512H122.099C122.188 5.99684 122.273 6.03283 122.335 6.09554C122.398 6.15825 122.434 6.24281 122.436 6.33148C122.436 6.42069 122.4 6.50624 122.337 6.56932C122.274 6.6324 122.189 6.66784 122.099 6.66784Z" fill="white"/>
<path d="M94.0138 24.8785C93.974 24.8879 93.9325 24.8879 93.8927 24.8785C93.8512 24.8635 93.8132 24.8404 93.7808 24.8105C93.7484 24.7806 93.7224 24.7445 93.7042 24.7044C93.686 24.6643 93.676 24.6209 93.6749 24.5768C93.6738 24.5328 93.6815 24.4889 93.6976 24.4479L100.506 6.24397C100.53 6.1795 100.573 6.12384 100.629 6.08424C100.686 6.04464 100.753 6.02295 100.822 6.02197H110.307C110.396 6.02197 110.482 6.05742 110.545 6.1205C110.608 6.18358 110.644 6.26913 110.644 6.35834C110.644 6.44754 110.608 6.5331 110.545 6.59618C110.482 6.65926 110.396 6.6947 110.307 6.6947H101.057L94.33 24.6834C94.303 24.7439 94.2584 24.7949 94.202 24.8297C94.1456 24.8645 94.08 24.8815 94.0138 24.8785Z" fill="white"/>
</svg>
