<svg width="337" height="218" viewBox="0 0 337 218" fill="none" xmlns="http://www.w3.org/2000/svg">
<path d="M303.094 215.456H280.813V215.624H303.094V215.456Z" fill="white"/>
<path d="M223.255 217.286H217.409V217.454H223.255V217.286Z" fill="white"/>
<path d="M280.14 209.213H267.23V209.381H280.14V209.213Z" fill="white"/>
<path d="M64.7816 210.343H35.7266V210.511H64.7816V210.343Z" fill="white"/>
<path d="M75.0328 210.343H70.7744V210.511H75.0328V210.343Z" fill="white"/>
<path d="M151.899 213.182H88.8779V213.35H151.899V213.182Z" fill="white"/>
<path d="M336.797 204.632H0.43457V204.8H336.797V204.632Z" fill="white"/>
<path d="M283.214 99.3765V204.638H261.633V113.167L283.214 99.3765Z" fill="#F5F5F5"/>
<path d="M264.903 131.749L265.072 204.504H270.352H301.042H306.323L306.558 131.749H264.903Z" fill="#E3E3E3"/>
<path d="M272.955 122.485L272.975 138.711H276.245H295.236H298.505L298.539 122.485H272.955Z" fill="#E3E3E3"/>
<path d="M272.928 138.711H267.533L267.52 133.847H272.922L272.928 138.711Z" fill="#FAFAFA"/>
<path d="M283.275 133.847H277.88V138.711H283.275V133.847Z" fill="#FAFAFA"/>
<path d="M293.621 133.847H288.226V138.711H293.621V133.847Z" fill="#FAFAFA"/>
<path d="M303.968 138.711H298.572L298.586 133.847H303.981L303.968 138.711Z" fill="#F5F5F5"/>
<path d="M272.854 147.564H267.587L267.573 142.821H272.847L272.854 147.564Z" fill="#F5F5F5"/>
<path d="M283.188 142.821H277.914V147.564H283.188V142.821Z" fill="#F5F5F5"/>
<path d="M293.527 142.821H288.253V147.564H293.527V142.821Z" fill="#FAFAFA"/>
<path d="M303.853 147.564H298.586L298.593 142.821H303.867L303.853 147.564Z" fill="#FAFAFA"/>
<path d="M272.808 156.209H267.662L267.655 151.581H272.802L272.808 156.209Z" fill="#F5F5F5"/>
<path d="M283.127 151.581H277.98V156.209H283.127V151.581Z" fill="#FAFAFA"/>
<path d="M293.453 151.581H288.307V156.209H293.453V151.581Z" fill="#FAFAFA"/>
<path d="M283.248 126.791H277.745V131.749H283.248V126.791Z" fill="#FAFAFA"/>
<path d="M293.602 126.791H288.099V131.749H293.602V126.791Z" fill="#F5F5F5"/>
<path d="M303.773 156.209H298.627L298.634 151.581H303.787L303.773 156.209Z" fill="#F5F5F5"/>
<path d="M272.795 164.638H267.763L267.756 160.124H272.788L272.795 164.638Z" fill="#FAFAFA"/>
<path d="M283.108 160.124H278.076V164.638H283.108V160.124Z" fill="#F5F5F5"/>
<path d="M293.42 160.124H288.388V164.638H293.42V160.124Z" fill="#F5F5F5"/>
<path d="M303.733 164.638H298.701L298.715 160.124H303.74L303.733 164.638Z" fill="#FAFAFA"/>
<path d="M273.023 174.123H267.412L267.405 169.098H273.016L273.023 174.123Z" fill="#F5F5F5"/>
<path d="M283.31 174.123H277.706L277.699 169.098H283.316L283.31 174.123Z" fill="#FAFAFA"/>
<path d="M293.601 174.123H287.997V169.098H293.608L293.601 174.123Z" fill="#FAFAFA"/>
<path d="M303.895 174.123H298.291L298.298 169.098H303.908L303.895 174.123Z" fill="#F5F5F5"/>
<path d="M273.05 182.135H267.574L267.561 177.224H273.043L273.05 182.135Z" fill="#F5F5F5"/>
<path d="M283.335 177.224H277.859V182.128H283.335V177.224Z" fill="#FAFAFA"/>
<path d="M293.628 177.224H288.152V182.128H293.628V177.224Z" fill="#F5F5F5"/>
<path d="M303.915 182.135H298.439L298.446 177.224H303.929L303.915 182.135Z" fill="#FAFAFA"/>
<path d="M272.936 191.144H267.595L267.588 186.367H272.929L272.936 191.144Z" fill="#FAFAFA"/>
<path d="M283.201 186.367H277.859V191.144H283.201V186.367Z" fill="#FAFAFA"/>
<path d="M293.474 186.367H288.133V191.144H293.474V186.367Z" fill="#F5F5F5"/>
<path d="M303.739 191.144H298.397L298.411 186.367H303.752L303.739 191.144Z" fill="#F5F5F5"/>
<path d="M272.935 199.344H267.722L267.715 194.682H272.928L272.935 199.344Z" fill="#F5F5F5"/>
<path d="M303.719 199.344H298.506L298.519 194.682H303.74L303.719 199.344Z" fill="#FAFAFA"/>
<path d="M293.5 194.682H277.934L277.961 195.852H278.398V204.503H279.959L279.952 195.852H291.509L291.496 204.503H293.05L293.063 195.852H293.534L293.5 194.682Z" fill="#F5F5F5"/>
<path d="M285.798 204.504H280.026V195.853H285.805L285.798 204.504Z" fill="#E3E3E3"/>
<path d="M291.422 204.504H285.657V195.853H291.436L291.422 204.504Z" fill="white"/>
<path d="M183.732 131.749L184.923 204.504H190.204H220.894H226.175L225.388 131.749H183.732Z" fill="#F5F5F5"/>
<path d="M186.335 133.847L186.476 142.7L186.517 145.135L186.557 147.564H191.959L191.919 145.135L191.885 142.7L191.744 133.847H186.335Z" fill="#E3E3E3"/>
<path d="M196.689 133.847L196.817 142.7L196.858 145.135L196.891 147.564H202.293L202.26 145.135L202.226 142.7L202.105 133.847H196.689Z" fill="#E3E3E3"/>
<path d="M207.042 133.847L207.163 142.7L207.19 145.135L207.224 147.564H212.626L212.599 145.135L212.565 142.7L212.457 133.847H207.042Z" fill="#E3E3E3"/>
<path d="M217.396 133.847L217.503 142.7L217.55 146.461L217.557 147.564H222.966L222.952 146.461L222.912 142.7L222.811 133.847H217.396Z" fill="#E3E3E3"/>
<path d="M186.659 151.581L186.807 160.427L186.841 162.855L186.881 165.284H192.297L192.256 162.855L192.223 160.427L192.081 151.581H186.659Z" fill="#E3E3E3"/>
<path d="M196.984 151.581L197.119 160.427L197.166 163.851L197.186 165.284H202.602L202.581 163.851L202.534 160.427L202.407 151.581H196.984Z" fill="#E3E3E3"/>
<path d="M207.311 151.581L207.425 160.427L207.459 162.855L207.492 165.284H212.908L212.874 162.855L212.847 160.427L212.733 151.581H207.311Z" fill="#E3E3E3"/>
<path d="M217.638 151.581L217.739 160.427L217.772 162.855L217.799 165.284H223.208L223.188 162.855L223.161 160.427L223.06 151.581H217.638Z" fill="#E3E3E3"/>
<path d="M186.968 169.098L187.109 177.904L187.149 180.325L187.19 182.741H192.592L192.551 180.325L192.518 177.904L192.383 169.098H186.968Z" fill="#E3E3E3"/>
<path d="M197.267 169.098L197.394 177.904L197.428 180.325L197.468 182.741H202.87L202.837 180.325L202.803 177.904L202.682 169.098H197.267Z" fill="#E3E3E3"/>
<path d="M207.567 169.098L207.682 177.904L207.715 180.325L207.749 182.741H213.151L213.117 180.325L213.09 177.904L212.983 169.098H207.567Z" fill="#E3E3E3"/>
<path d="M217.866 169.098L217.967 177.904L218.007 181.247L218.028 182.741H223.43L223.409 181.247L223.376 177.904L223.282 169.098H217.866Z" fill="#E3E3E3"/>
<path d="M220.867 186.367H218.196H213.191H207.843H202.838H197.49H187.137L187.217 191.144H197.564H202.905H207.904H213.245H218.25H220.921H223.592L223.538 186.367H220.867Z" fill="#E3E3E3"/>
<path d="M213.185 194.682H197.618L197.598 195.852H198.069L198.196 204.503H199.757L199.629 195.852H211.18L211.294 204.503H212.848L212.741 195.852H213.171L213.185 194.682Z" fill="#FAFAFA"/>
<path d="M205.589 204.504H199.824L199.696 195.853H205.475L205.589 204.504Z" fill="#E3E3E3"/>
<path d="M211.22 204.504H205.448L205.334 195.853H211.113L211.22 204.504Z" fill="#E3E3E3"/>
<path d="M264.674 135.939L265.145 204.504H260.167H231.247H226.275L225.421 135.939H264.674Z" fill="#E3E3E3"/>
<path d="M250.81 187.571H252.929H262.441L262.461 189.764L262.475 191.957L262.535 199.923H257.611L257.544 191.735H252.734H250.843H248.072L248.038 187.571H250.81Z" fill="#F5F5F5"/>
<path d="M232.041 187.571H233.938H242.966L243.013 191.735H233.669L233.756 199.923H228.838L228.744 191.957L228.704 188.782L228.69 187.571H232.041Z" fill="#F5F5F5"/>
<path d="M238.916 195.267H252.317L252.323 196.437H252.471L252.539 204.503H251.092L251.018 196.437H240.248L240.329 204.503H238.876L238.795 196.437H238.929L238.916 195.267Z" fill="#F5F5F5"/>
<path d="M245.649 204.503H251.031L250.964 196.438H245.575L245.649 204.503Z" fill="white"/>
<path d="M240.389 204.503H245.764L245.69 196.438H240.302L240.389 204.503Z" fill="white"/>
<path d="M247.331 138.711H262.266L262.36 151.58H247.452L247.331 138.711Z" fill="#F5F5F5"/>
<path d="M227.971 138.711H242.905L243.026 151.58H228.125L227.971 138.711Z" fill="#F5F5F5"/>
<path d="M247.748 154.89H262.043L262.131 167.194H247.856L247.748 154.89Z" fill="#F5F5F5"/>
<path d="M228.414 154.89H242.709L242.837 167.194H228.562L228.414 154.89Z" fill="#F5F5F5"/>
<path d="M247.89 171.621H262.266L262.36 183.952H248.004L247.89 171.621Z" fill="#F5F5F5"/>
<path d="M228.623 171.621H242.999L243.12 183.952H228.764L228.623 171.621Z" fill="#F5F5F5"/>
<path d="M165.125 105.243V98.825H171.919V81.0449H174.139V98.825H180.934V105.243H184.143V204.806H161.916V105.243H165.125Z" fill="#E3E3E3"/>
<path d="M30.707 126.999V204.874H57.3469V132.892L52.5302 126.999H30.707ZM50.6062 182.835H55.1471V187.376H50.6062V182.835ZM50.6062 173.753H55.1471V178.294H50.6062V173.753ZM50.6062 155.59H55.1471V160.131H50.6062V155.59ZM50.6062 146.508H55.1471V151.049H50.6062V146.508ZM50.6062 137.426H55.1471V141.967H50.6062V137.426ZM41.5245 173.753H46.0653V178.294H41.5245V173.753ZM41.5245 164.672H46.0653V169.213H41.5245V164.672ZM41.5245 155.59H46.0653V160.131H41.5245V155.59ZM32.4427 182.835H36.9836V187.376H32.4427V182.835ZM32.4427 164.672H36.9836V169.213H32.4427V164.672ZM32.4427 155.59H36.9836V160.131H32.4427V155.59ZM32.4427 137.426H36.9836V141.967H32.4427V137.426Z" fill="#F5F5F5"/>
<path d="M86.894 152.953H84.0215V170.148H86.894V152.953Z" fill="#E3E3E3"/>
<path d="M107.943 170.148H96.7624H86.8936V152.953H87.3039H89.1539H91.5757H106.658H110.937V170.148H107.943Z" fill="#F5F5F5"/>
<path d="M132.599 152.953H128.058V153.773H132.599V152.953Z" fill="#F5F5F5"/>
<path d="M122.568 152.953H118.155V153.773H122.568V152.953Z" fill="#F5F5F5"/>
<path d="M144.088 159.384H142.951C142.864 159.396 142.784 159.439 142.727 159.505C142.669 159.571 142.637 159.656 142.637 159.744C142.637 159.832 142.669 159.916 142.727 159.983C142.784 160.049 142.864 160.092 142.951 160.104H144.068V163.467H142.951C142.864 163.479 142.784 163.522 142.727 163.588C142.669 163.655 142.637 163.739 142.637 163.827C142.637 163.915 142.669 164 142.727 164.066C142.784 164.132 142.864 164.175 142.951 164.187H144.068V170.127H139.81V152.953H146.315V154.412C144.967 155.726 144.171 157.504 144.088 159.384Z" fill="#F5F5F5"/>
<path d="M65.0302 170.35H57.2871V205.331H65.0302V170.35Z" fill="#E3E3E3"/>
<path d="M89.9537 204.827H85.9375V205.123H89.9537V204.827Z" fill="#F5F5F5"/>
<path d="M128.138 204.827H124.115V205.123H128.138V204.827Z" fill="#F5F5F5"/>
<path d="M105.232 204.827H101.209V205.123H105.232V204.827Z" fill="#F5F5F5"/>
<path d="M120.502 204.827H116.479V205.123H120.502V204.827Z" fill="#F5F5F5"/>
<path d="M112.868 204.827H108.845V205.123H112.868V204.827Z" fill="#F5F5F5"/>
<path d="M97.5894 204.827H93.5732V205.123H97.5894V204.827Z" fill="#F5F5F5"/>
<path d="M151.044 204.827H147.021V205.123H151.044V204.827Z" fill="#F5F5F5"/>
<path d="M143.409 204.827H139.386V205.123H143.409V204.827Z" fill="#F5F5F5"/>
<path d="M135.774 204.827H131.751V205.123H135.774V204.827Z" fill="#F5F5F5"/>
<path d="M158.673 204.827H154.65V205.123H158.673V204.827Z" fill="#F5F5F5"/>
<path d="M65.0156 170.147V205.129H82.3114V204.833H74.1647V178.462H71.3056C71.1147 178.462 70.9316 178.387 70.7966 178.252C70.6616 178.117 70.5858 177.933 70.5858 177.743C70.5858 177.552 70.6616 177.369 70.7966 177.234C70.9316 177.099 71.1147 177.023 71.3056 177.023H74.1647V172.63H160.401V170.154H159.002V170.295H144.068V170.154H139.809V170.935H110.936V170.154L65.0156 170.147Z" fill="white"/>
<path d="M74.166 177.016V172.629H78.4109V177.016H74.166Z" fill="#E3E3E3"/>
<path d="M78.4109 204.827H74.166V178.456H78.4109V204.827Z" fill="#E3E3E3"/>
<path d="M78.4111 178.456V204.827H82.3264V199.169C82.3545 198.709 82.557 198.277 82.8927 197.962C83.2283 197.646 83.6718 197.47 84.1327 197.47C84.5935 197.47 85.037 197.646 85.3727 197.962C85.7083 198.277 85.9108 198.709 85.9389 199.169V204.827H89.9753V199.169C90.0034 198.709 90.2059 198.277 90.5415 197.962C90.8772 197.646 91.3207 197.47 91.7815 197.47C92.2424 197.47 92.6859 197.646 93.0215 197.962C93.3572 198.277 93.5597 198.709 93.5878 199.169V204.827H97.6242V199.169C97.6242 198.689 97.8148 198.229 98.1542 197.89C98.4936 197.55 98.9538 197.36 99.4338 197.36C99.9137 197.36 100.374 197.55 100.713 197.89C101.053 198.229 101.243 198.689 101.243 199.169V204.827H105.28V199.169C105.308 198.709 105.51 198.277 105.846 197.962C106.182 197.646 106.625 197.47 107.086 197.47C107.547 197.47 107.99 197.646 108.326 197.962C108.662 198.277 108.864 198.709 108.892 199.169V204.827H112.929V199.169C112.957 198.709 113.159 198.277 113.495 197.962C113.831 197.646 114.274 197.47 114.735 197.47C115.196 197.47 115.639 197.646 115.975 197.962C116.311 198.277 116.513 198.709 116.541 199.169V204.827H120.578V199.169C120.606 198.709 120.808 198.277 121.144 197.962C121.479 197.646 121.923 197.47 122.384 197.47C122.845 197.47 123.288 197.646 123.624 197.962C123.959 198.277 124.162 198.709 124.19 199.169V204.827H128.226V199.169C128.226 198.689 128.417 198.229 128.756 197.89C129.096 197.55 129.556 197.36 130.036 197.36C130.516 197.36 130.976 197.55 131.316 197.89C131.655 198.229 131.846 198.689 131.846 199.169V204.827H135.882V199.169C135.882 198.689 136.073 198.229 136.412 197.89C136.751 197.55 137.212 197.36 137.692 197.36C138.172 197.36 138.632 197.55 138.971 197.89C139.311 198.229 139.501 198.689 139.501 199.169V204.827H143.538V199.169C143.538 198.689 143.728 198.229 144.068 197.89C144.407 197.55 144.867 197.36 145.347 197.36C145.827 197.36 146.287 197.55 146.627 197.89C146.966 198.229 147.157 198.689 147.157 199.169V204.827H151.193V199.169C151.221 198.709 151.424 198.277 151.76 197.962C152.095 197.646 152.539 197.47 153 197.47C153.46 197.47 153.904 197.646 154.24 197.962C154.575 198.277 154.778 198.709 154.806 199.169V204.827H158.842V199.169C158.87 198.709 159.073 198.277 159.408 197.962C159.744 197.646 160.188 197.47 160.648 197.47C161.109 197.47 161.553 197.646 161.888 197.962C162.224 198.277 162.427 198.709 162.455 199.169V204.827H166.363V178.456H78.4111ZM158.681 191.5C158.666 191.254 158.701 191.007 158.785 190.775C158.869 190.542 159 190.33 159.169 190.15C159.338 189.97 159.542 189.827 159.769 189.729C159.996 189.631 160.24 189.58 160.487 189.58C160.734 189.58 160.978 189.631 161.205 189.729C161.432 189.827 161.636 189.97 161.805 190.15C161.974 190.33 162.105 190.542 162.189 190.775C162.273 191.007 162.308 191.254 162.293 191.5V194.05H158.681V191.5ZM151.039 191.5C151.023 191.254 151.059 191.007 151.143 190.775C151.227 190.542 151.358 190.33 151.527 190.15C151.696 189.97 151.9 189.827 152.127 189.729C152.354 189.631 152.598 189.58 152.845 189.58C153.092 189.58 153.336 189.631 153.563 189.729C153.789 189.827 153.994 189.97 154.163 190.15C154.332 190.33 154.463 190.542 154.547 190.775C154.631 191.007 154.666 191.254 154.651 191.5V194.05H151.039V191.5ZM143.403 191.5C143.403 191.02 143.594 190.56 143.933 190.221C144.272 189.881 144.733 189.691 145.213 189.691C145.693 189.691 146.153 189.881 146.492 190.221C146.832 190.56 147.022 191.02 147.022 191.5V194.05H143.403V191.5ZM135.768 191.5C135.768 191.02 135.958 190.56 136.298 190.221C136.637 189.881 137.097 189.691 137.577 189.691C138.057 189.691 138.518 189.881 138.857 190.221C139.196 190.56 139.387 191.02 139.387 191.5V194.05H135.768V191.5ZM128.132 191.5C128.132 191.02 128.323 190.56 128.662 190.221C129.002 189.881 129.462 189.691 129.942 189.691C130.422 189.691 130.882 189.881 131.221 190.221C131.561 190.56 131.751 191.02 131.751 191.5V194.05H128.132V191.5ZM120.504 191.5C120.488 191.254 120.524 191.007 120.608 190.775C120.692 190.542 120.823 190.33 120.992 190.15C121.161 189.97 121.365 189.827 121.592 189.729C121.819 189.631 122.063 189.58 122.31 189.58C122.557 189.58 122.801 189.631 123.028 189.729C123.254 189.827 123.459 189.97 123.628 190.15C123.797 190.33 123.928 190.542 124.012 190.775C124.096 191.007 124.131 191.254 124.116 191.5V194.05H120.504V191.5ZM112.868 191.5C112.853 191.254 112.889 191.007 112.973 190.775C113.057 190.542 113.187 190.33 113.356 190.15C113.526 189.97 113.73 189.827 113.956 189.729C114.183 189.631 114.427 189.58 114.674 189.58C114.921 189.58 115.166 189.631 115.392 189.729C115.619 189.827 115.823 189.97 115.992 190.15C116.162 190.33 116.292 190.542 116.376 190.775C116.46 191.007 116.496 191.254 116.481 191.5V194.05H112.868V191.5ZM105.233 191.5C105.218 191.254 105.253 191.007 105.337 190.775C105.421 190.542 105.552 190.33 105.721 190.15C105.89 189.97 106.094 189.827 106.321 189.729C106.548 189.631 106.792 189.58 107.039 189.58C107.286 189.58 107.53 189.631 107.757 189.729C107.984 189.827 108.188 189.97 108.357 190.15C108.526 190.33 108.657 190.542 108.741 190.775C108.825 191.007 108.86 191.254 108.845 191.5V194.05H105.233V191.5ZM97.5905 191.5C97.5905 191.02 97.7812 190.56 98.1206 190.221C98.4599 189.881 98.9202 189.691 99.4002 189.691C99.8801 189.691 100.34 189.881 100.68 190.221C101.019 190.56 101.21 191.02 101.21 191.5V194.05H97.5905V191.5ZM89.9618 191.5C89.9468 191.254 89.9823 191.007 90.0663 190.775C90.1503 190.542 90.2809 190.33 90.4501 190.15C90.6193 189.97 90.8235 189.827 91.0502 189.729C91.2768 189.631 91.5212 189.58 91.7681 189.58C92.015 189.58 92.2593 189.631 92.486 189.729C92.7127 189.827 92.9169 189.97 93.0861 190.15C93.2553 190.33 93.3859 190.542 93.4699 190.775C93.5539 191.007 93.5894 191.254 93.5743 191.5V194.05H89.9618V191.5ZM82.3264 191.5C82.3113 191.254 82.3469 191.007 82.4309 190.775C82.5148 190.542 82.6454 190.33 82.8146 190.15C82.9838 189.97 83.1881 189.827 83.4147 189.729C83.6414 189.631 83.8857 189.58 84.1327 189.58C84.3796 189.58 84.6239 189.631 84.8506 189.729C85.0772 189.827 85.2815 189.97 85.4507 190.15C85.6199 190.33 85.7505 190.542 85.8344 190.775C85.9184 191.007 85.954 191.254 85.9389 191.5V194.05H82.3264V191.5Z" fill="#F5F5F5"/>
<path d="M156.313 177.016H78.4111V172.629H166.202V177.016H156.313Z" fill="#F5F5F5"/>
<path d="M83.3754 178.455H71.3067C71.1158 178.455 70.9327 178.379 70.7977 178.244C70.6628 178.109 70.5869 177.926 70.5869 177.735C70.5869 177.545 70.6628 177.361 70.7977 177.226C70.9327 177.091 71.1158 177.016 71.3067 177.016H168.388C168.579 177.016 168.762 177.091 168.897 177.226C169.032 177.361 169.107 177.545 169.107 177.735C169.107 177.926 169.032 178.109 168.897 178.244C168.762 178.379 168.579 178.455 168.388 178.455H83.3754Z" fill="white"/>
<path d="M103.133 112.643V110.087C103.148 109.943 103.216 109.81 103.324 109.714C103.431 109.617 103.57 109.564 103.715 109.564C103.859 109.564 103.998 109.617 104.106 109.714C104.213 109.81 104.281 109.943 104.297 110.087V112.643C104.104 112.633 103.911 112.633 103.718 112.643C103.523 112.633 103.328 112.633 103.133 112.643Z" fill="#F5F5F5"/>
<path d="M98.7402 118.287V124.819C100.304 124.11 102.001 123.743 103.718 123.743C105.436 123.743 107.133 124.11 108.697 124.819V118.287H98.7402ZM102.158 120.399C102.158 120.195 102.198 119.992 102.276 119.802C102.355 119.613 102.47 119.441 102.615 119.296C102.76 119.151 102.932 119.036 103.121 118.958C103.31 118.879 103.513 118.839 103.718 118.839C103.923 118.839 104.126 118.879 104.316 118.958C104.505 119.036 104.677 119.151 104.822 119.296C104.967 119.441 105.082 119.613 105.16 119.802C105.239 119.992 105.279 120.195 105.279 120.399V122.606H102.158V120.399Z" fill="#F5F5F5"/>
<path d="M103.133 112.643C103.328 112.633 103.524 112.633 103.719 112.643C103.911 112.633 104.105 112.633 104.297 112.643C105.429 112.775 106.481 113.293 107.277 114.108C108.073 114.924 108.565 115.988 108.67 117.123H98.7607C98.8668 115.989 99.3588 114.925 100.155 114.11C100.95 113.294 102.002 112.777 103.133 112.643Z" fill="#F5F5F5"/>
<path d="M91.6631 135.227C91.7778 132.796 92.6252 130.456 94.0938 128.516C95.5624 126.576 97.5836 125.125 99.8919 124.354C102.2 123.584 104.688 123.529 107.027 124.198C109.367 124.867 111.45 126.228 113.002 128.102L110.943 135.227H91.6631Z" fill="#F5F5F5"/>
<path d="M97.0793 118.287C96.9357 118.272 96.8029 118.204 96.7065 118.097C96.61 117.989 96.5566 117.85 96.5566 117.705C96.5566 117.561 96.61 117.422 96.7065 117.314C96.8029 117.207 96.9357 117.139 97.0793 117.124H110.352C110.496 117.139 110.628 117.207 110.725 117.314C110.821 117.422 110.875 117.561 110.875 117.705C110.875 117.85 110.821 117.989 110.725 118.097C110.628 118.204 110.496 118.272 110.352 118.287H97.0793Z" fill="white"/>
<path d="M91.6494 136.417V141.887H110.936V141.039H110.089V138.833C110.09 138.543 110.172 138.259 110.325 138.013C110.478 137.767 110.697 137.569 110.957 137.44V136.417H91.6494ZM104.794 138.833C104.794 138.419 104.959 138.022 105.252 137.729C105.544 137.436 105.941 137.272 106.355 137.272C106.769 137.272 107.166 137.436 107.459 137.729C107.751 138.022 107.916 138.419 107.916 138.833V141.039H104.794V138.833ZM99.5136 138.833C99.5396 138.435 99.7157 138.063 100.006 137.791C100.297 137.519 100.68 137.368 101.078 137.368C101.476 137.368 101.859 137.519 102.149 137.791C102.44 138.063 102.616 138.435 102.642 138.833V141.039H99.5136V138.833ZM94.2327 138.833C94.2587 138.435 94.4349 138.063 94.7253 137.791C95.0158 137.519 95.3988 137.368 95.7968 137.368C96.1947 137.368 96.5778 137.519 96.8682 137.791C97.1587 138.063 97.3348 138.435 97.3609 138.833V141.039H94.2327V138.833Z" fill="#F5F5F5"/>
<path d="M91.6494 143.03V152.852H94.2327V145.896C94.2186 145.682 94.2487 145.467 94.3209 145.265C94.3932 145.063 94.5061 144.878 94.6527 144.722C94.7993 144.565 94.9765 144.44 95.1733 144.355C95.3701 144.27 95.5823 144.226 95.7968 144.226C96.0113 144.226 96.2235 144.27 96.4202 144.355C96.617 144.44 96.7942 144.565 96.9408 144.722C97.0874 144.878 97.2004 145.063 97.2726 145.265C97.3449 145.467 97.3749 145.682 97.3609 145.896V152.852H99.5136V145.896C99.4995 145.682 99.5296 145.467 99.6018 145.265C99.6741 145.063 99.787 144.878 99.9336 144.722C100.08 144.565 100.257 144.44 100.454 144.355C100.651 144.27 100.863 144.226 101.078 144.226C101.292 144.226 101.504 144.27 101.701 144.355C101.898 144.44 102.075 144.565 102.222 144.722C102.368 144.878 102.481 145.063 102.554 145.265C102.626 145.467 102.656 145.682 102.642 145.896V152.852H104.794V145.896C104.794 145.482 104.959 145.085 105.252 144.792C105.544 144.499 105.941 144.335 106.355 144.335C106.769 144.335 107.166 144.499 107.459 144.792C107.751 145.085 107.916 145.482 107.916 145.896V152.852H110.089V146.918H109.995C109.804 146.918 109.621 146.842 109.486 146.707C109.351 146.572 109.275 146.389 109.275 146.198C109.275 146.007 109.351 145.824 109.486 145.689C109.621 145.554 109.804 145.479 109.995 145.479H110.149C110.208 145.269 110.311 145.073 110.45 144.905C110.589 144.737 110.761 144.6 110.957 144.503V143.03H91.6494Z" fill="#F5F5F5"/>
<path d="M110.937 135.246V136.417H89.84C89.6964 136.401 89.5637 136.333 89.4672 136.226C89.3708 136.118 89.3174 135.979 89.3174 135.835C89.3174 135.69 89.3708 135.551 89.4672 135.444C89.5637 135.336 89.6964 135.268 89.84 135.253H110.943L110.937 135.246Z" fill="white"/>
<path d="M110.937 143.03H89.8402C89.6849 143.03 89.5361 142.968 89.4263 142.859C89.3165 142.749 89.2549 142.6 89.2549 142.445C89.2549 142.289 89.3165 142.141 89.4263 142.031C89.5361 141.921 89.6849 141.859 89.8402 141.859H110.937V143.03Z" fill="white"/>
<path d="M118.162 153.766V170.927H132.599V153.766H128.051V151.694C128.051 151.334 127.98 150.978 127.843 150.646C127.705 150.314 127.503 150.012 127.249 149.758C126.995 149.504 126.693 149.302 126.361 149.164C126.029 149.027 125.673 148.956 125.313 148.956C124.954 148.956 124.598 149.027 124.265 149.164C123.933 149.302 123.631 149.504 123.377 149.758C123.123 150.012 122.921 150.314 122.784 150.646C122.646 150.978 122.575 151.334 122.575 151.694V153.766H118.162ZM123.88 152.225C123.867 152.028 123.894 151.829 123.96 151.642C124.027 151.456 124.131 151.285 124.266 151.14C124.402 150.995 124.565 150.879 124.747 150.8C124.929 150.721 125.125 150.681 125.323 150.681C125.522 150.681 125.718 150.721 125.899 150.8C126.081 150.879 126.245 150.995 126.38 151.14C126.516 151.285 126.62 151.456 126.686 151.642C126.752 151.829 126.78 152.028 126.766 152.225V156.982H123.88V152.225Z" fill="#F5F5F5"/>
<path d="M132.592 135.247V145.479H139.81V135.247L136.204 122.734L132.592 135.247ZM134.671 140.386C134.671 139.979 134.832 139.589 135.12 139.302C135.407 139.014 135.798 138.852 136.204 138.852C136.611 138.852 137.001 139.014 137.289 139.302C137.577 139.589 137.738 139.979 137.738 140.386V145.438H134.671V140.386Z" fill="#F5F5F5"/>
<path d="M132.592 146.918V170.928H139.81V146.918H132.592ZM134.671 163.891C134.671 163.484 134.832 163.094 135.12 162.806C135.407 162.519 135.798 162.357 136.204 162.357C136.611 162.357 137.001 162.519 137.289 162.806C137.577 163.094 137.738 163.484 137.738 163.891V168.95H134.671V163.891ZM134.671 153.753C134.671 153.346 134.832 152.956 135.12 152.668C135.407 152.381 135.798 152.219 136.204 152.219C136.611 152.219 137.001 152.381 137.289 152.668C137.577 152.956 137.738 153.346 137.738 153.753V158.805H134.671V153.753Z" fill="#F5F5F5"/>
<path d="M131.616 146.918C131.425 146.918 131.242 146.842 131.107 146.707C130.972 146.572 130.896 146.389 130.896 146.198C130.896 146.007 130.972 145.824 131.107 145.689C131.242 145.554 131.425 145.479 131.616 145.479H140.759C140.95 145.479 141.133 145.554 141.268 145.689C141.403 145.824 141.478 146.007 141.478 146.198C141.478 146.389 141.403 146.572 141.268 146.707C141.133 146.842 140.95 146.918 140.759 146.918H131.616Z" fill="white"/>
<path d="M110.937 135.247V145.479H118.162V135.247L114.556 122.734L113.009 128.116L110.95 135.24L110.937 135.247ZM113.015 140.386C113.015 139.979 113.177 139.589 113.464 139.302C113.752 139.014 114.142 138.852 114.549 138.852C114.956 138.852 115.346 139.014 115.634 139.302C115.921 139.589 116.083 139.979 116.083 140.386V145.438H113.015V140.386Z" fill="#F5F5F5"/>
<path d="M110.937 146.918V170.928H118.162V146.918H110.937ZM113.015 163.891C113.015 163.484 113.177 163.094 113.464 162.806C113.752 162.519 114.142 162.357 114.549 162.357C114.956 162.357 115.346 162.519 115.634 162.806C115.921 163.094 116.083 163.484 116.083 163.891V168.95H113.015V163.891ZM113.015 153.753C113.015 153.346 113.177 152.956 113.464 152.668C113.752 152.381 114.142 152.219 114.549 152.219C114.956 152.219 115.346 152.381 115.634 152.668C115.921 152.956 116.083 153.346 116.083 153.753V158.805H113.015V153.753Z" fill="#F5F5F5"/>
<path d="M109.975 146.918H119.117C119.308 146.918 119.491 146.842 119.626 146.707C119.761 146.572 119.837 146.389 119.837 146.198C119.837 146.007 119.761 145.824 119.626 145.689C119.491 145.554 119.308 145.479 119.117 145.479H109.975C109.784 145.479 109.601 145.554 109.466 145.689C109.331 145.824 109.255 146.007 109.255 146.198C109.255 146.389 109.331 146.572 109.466 146.707C109.601 146.842 109.784 146.918 109.975 146.918Z" fill="white"/>
<path d="M151.173 145.411V145.559C151.173 145.655 151.211 145.748 151.279 145.816C151.347 145.884 151.44 145.922 151.536 145.922C151.633 145.922 151.725 145.884 151.793 145.816C151.861 145.748 151.899 145.655 151.899 145.559V145.411C152.596 145.498 153.243 145.82 153.732 146.324C154.221 146.828 154.524 147.484 154.59 148.183H148.455C148.523 147.48 148.829 146.821 149.324 146.316C149.819 145.812 150.471 145.493 151.173 145.411Z" fill="#F5F5F5"/>
<path d="M148.434 148.91V152.946C149.401 152.507 150.452 152.28 151.515 152.28C152.577 152.28 153.628 152.507 154.596 152.946V148.91H148.434ZM150.546 150.215C150.535 150.081 150.551 149.947 150.595 149.82C150.638 149.693 150.708 149.577 150.798 149.478C150.889 149.38 150.999 149.301 151.122 149.247C151.245 149.193 151.377 149.165 151.511 149.165C151.645 149.165 151.778 149.193 151.901 149.247C152.023 149.301 152.134 149.38 152.224 149.478C152.315 149.577 152.384 149.693 152.428 149.82C152.471 149.947 152.488 150.081 152.477 150.215V151.56H150.546V150.215Z" fill="#F5F5F5"/>
<path d="M144.088 159.384C144.17 157.463 144.99 155.649 146.377 154.319C147.765 152.989 149.613 152.247 151.535 152.247C153.457 152.247 155.305 152.989 156.692 154.319C158.08 155.649 158.9 157.463 158.982 159.384H144.088Z" fill="#F5F5F5"/>
<path d="M147.432 148.903C147.345 148.891 147.265 148.848 147.208 148.782C147.15 148.716 147.118 148.631 147.118 148.543C147.118 148.455 147.15 148.37 147.208 148.304C147.265 148.238 147.345 148.195 147.432 148.183H155.639C155.726 148.195 155.806 148.238 155.864 148.304C155.922 148.37 155.953 148.455 155.953 148.543C155.953 148.631 155.922 148.716 155.864 148.782C155.806 148.848 155.726 148.891 155.639 148.903H147.432Z" fill="white"/>
<path d="M144.068 160.104V163.467H159.003V160.104H144.068ZM155.464 161.597C155.464 161.34 155.566 161.094 155.748 160.912C155.93 160.73 156.176 160.628 156.433 160.628C156.69 160.628 156.936 160.73 157.118 160.912C157.3 161.094 157.402 161.34 157.402 161.597V162.942H155.464V161.597ZM152.202 161.597C152.19 161.463 152.207 161.329 152.251 161.202C152.294 161.075 152.363 160.959 152.454 160.86C152.545 160.762 152.655 160.683 152.778 160.629C152.9 160.575 153.033 160.548 153.167 160.548C153.301 160.548 153.434 160.575 153.556 160.629C153.679 160.683 153.789 160.762 153.88 160.86C153.971 160.959 154.04 161.075 154.083 161.202C154.127 161.329 154.143 161.463 154.132 161.597V162.942H152.202V161.597ZM148.939 161.597C148.928 161.463 148.944 161.329 148.988 161.202C149.031 161.075 149.101 160.959 149.191 160.86C149.282 160.762 149.392 160.683 149.515 160.629C149.638 160.575 149.77 160.548 149.904 160.548C150.038 160.548 150.171 160.575 150.294 160.629C150.416 160.683 150.526 160.762 150.617 160.86C150.708 160.959 150.777 161.075 150.821 161.202C150.864 161.329 150.881 161.463 150.87 161.597V162.942H148.939V161.597ZM145.669 161.597C145.669 161.34 145.772 161.094 145.953 160.912C146.135 160.73 146.381 160.628 146.638 160.628C146.895 160.628 147.141 160.73 147.323 160.912C147.505 161.094 147.607 161.34 147.607 161.597V162.942H145.669V161.597Z" fill="#F5F5F5"/>
<path d="M144.068 170.288V164.234H159.003V170.288H144.068Z" fill="#F5F5F5"/>
<path d="M151.173 145.559V142.942C151.173 142.846 151.211 142.754 151.279 142.686C151.347 142.617 151.44 142.579 151.536 142.579C151.632 142.579 151.725 142.617 151.793 142.686C151.861 142.754 151.899 142.846 151.899 142.942V145.559C151.899 145.656 151.861 145.748 151.793 145.816C151.725 145.884 151.632 145.923 151.536 145.923C151.44 145.923 151.347 145.884 151.279 145.816C151.211 145.748 151.173 145.656 151.173 145.559Z" fill="#F5F5F5"/>
<path d="M144.067 160.104H142.951C142.864 160.092 142.784 160.049 142.726 159.982C142.669 159.916 142.637 159.831 142.637 159.744C142.637 159.656 142.669 159.571 142.726 159.505C142.784 159.439 142.864 159.396 142.951 159.384H160.119C160.206 159.396 160.285 159.439 160.343 159.505C160.401 159.571 160.433 159.656 160.433 159.744C160.433 159.831 160.401 159.916 160.343 159.982C160.285 160.049 160.206 160.092 160.119 160.104H144.067Z" fill="white"/>
<path d="M144.067 164.207H142.951C142.864 164.195 142.784 164.152 142.726 164.086C142.669 164.02 142.637 163.935 142.637 163.847C142.637 163.759 142.669 163.675 142.726 163.608C142.784 163.542 142.864 163.499 142.951 163.487H160.119C160.206 163.499 160.285 163.542 160.343 163.608C160.401 163.675 160.433 163.759 160.433 163.847C160.433 163.935 160.401 164.02 160.343 164.086C160.285 164.152 160.206 164.195 160.119 164.207H144.067Z" fill="white"/>
<path d="M63.4082 204.604L71.5885 204.504L70.9965 175.159L70.8822 168.358V167.948L70.7745 161.893V161.496L70.6804 155.744V155.368L70.5862 149.872V149.522L70.4987 144.288V143.945L70.4113 138.953V138.624L70.3305 133.841V133.531L70.2565 129.38C70.0509 129.538 69.8246 129.667 69.5838 129.764L69.6309 132.784L66.8122 130.215C66.4552 130.198 66.0999 130.156 65.7493 130.087L69.16 133.215H64.9218V129.851C64.6858 129.776 64.4599 129.672 64.2491 129.542V133.504V133.814L64.202 138.597V138.913L64.1549 143.925V144.261L64.1078 149.502V149.872L64.0607 155.368V155.744L64.0002 161.51V161.9L63.9397 167.954V168.365L63.8724 175.173L63.4082 204.604ZM64.6998 168.567H69.5905L64.6662 173.888L64.6998 168.567ZM64.7806 162.855L69.6175 167.934H64.7402L64.7806 162.855ZM64.72 155.637H69.3753L64.6662 160.44L64.72 155.637ZM64.7738 150.376L69.3887 155.004H64.7469L64.7738 150.376ZM64.7738 144.248H69.2138L64.7469 148.614L64.7738 144.248ZM64.8142 139.391L69.2138 143.602H64.7806L64.8142 139.391ZM69.1062 133.894L64.8344 137.863V133.874L69.1062 133.894ZM69.7318 138.785H65.3995L69.6713 134.803L69.7318 138.785ZM69.7991 143.635L65.4062 139.444H69.7385L69.7991 143.635ZM69.8865 149.69H65.3591L69.8327 145.317L69.8865 149.69ZM69.9538 154.93L65.3456 150.329H69.8865L69.9538 154.93ZM70.048 161.537H65.3187L70.0278 156.713L70.048 161.537ZM70.0951 167.235L65.2515 162.169H70.0278L70.0951 167.235ZM70.1355 174.224H65.164L70.0884 168.876L70.1355 174.224Z" fill="white"/>
<path d="M64.29 129.778C64.5011 129.906 64.727 130.007 64.9628 130.08V129.583L65.7566 130.316C66.1095 130.384 66.467 130.427 66.8262 130.444L64.8686 128.654L64.6399 128.863H64.3035L64.29 129.778ZM69.5709 128.896V129.993C69.8125 129.898 70.0391 129.769 70.2437 129.61V128.896H69.5709Z" fill="white"/>
<path d="M63.3418 128.345C63.3178 128.523 63.3364 128.704 63.396 128.874C63.4556 129.043 63.5546 129.196 63.6849 129.32L63.9136 129.535C64.033 129.631 64.1589 129.719 64.2903 129.798C64.5014 129.926 64.7273 130.027 64.963 130.1C65.2202 130.202 65.4859 130.281 65.7569 130.336C66.1098 130.404 66.4673 130.447 66.8265 130.464H67.3041C68.0901 130.465 68.8681 130.307 69.5914 130C69.8329 129.905 70.0595 129.776 70.2641 129.616L70.3179 129.576L70.5332 129.367C70.6579 129.247 70.7513 129.099 70.8053 128.935C70.8592 128.771 70.8721 128.596 70.8427 128.425L70.3583 125.694H71.6432L67.1629 123.414L62.4941 125.539H63.8396L63.3418 128.345Z" fill="white"/>
<path d="M244.701 21.4548C244.815 20.217 243.732 19.4366 242.151 19.4366C241.34 19.4383 240.542 19.6437 239.831 20.0339C239.12 20.4242 238.518 20.9868 238.081 21.6701L233.682 19.1877C235.565 16.4295 238.727 14.6064 243.288 14.6064C248.058 14.6064 251.287 16.6246 250.957 20.4322C250.533 25.2624 245.387 25.9755 245.138 28.8279H239.622C239.978 24.805 244.499 23.7824 244.701 21.4548ZM238.451 33.7926C238.55 32.8761 238.998 32.0328 239.702 31.4377C240.406 30.8427 241.312 30.5417 242.232 30.5971C244.304 30.5971 245.643 31.9426 245.481 33.7926C245.372 34.7151 244.918 35.5624 244.211 36.1648C243.504 36.7673 242.595 37.0805 241.667 37.0418C239.588 37.0418 238.29 35.5887 238.451 33.7926Z" fill="white"/>
<path d="M105.171 5.57886C105.245 4.69759 104.498 4.16614 103.354 4.16614C102.778 4.16754 102.211 4.31362 101.706 4.591C101.2 4.86838 100.772 5.26819 100.462 5.75377L97.3066 3.99123C98.6521 2.0336 100.892 0.728516 104.135 0.728516C107.498 0.728516 109.819 2.18833 109.584 4.8725C109.288 8.31012 105.628 8.81467 105.453 10.8463H101.531C101.807 7.96031 105.023 7.25395 105.171 5.57886ZM100.724 14.3243C100.794 13.6724 101.113 13.0726 101.614 12.6502C102.116 12.2278 102.761 12.0153 103.415 12.0572C104.895 12.0572 105.844 13.0259 105.729 14.3243C105.651 14.9763 105.331 15.5754 104.833 16.0036C104.335 16.4318 103.695 16.6583 103.038 16.6385C102.728 16.6695 102.416 16.6317 102.122 16.5276C101.829 16.4236 101.562 16.256 101.341 16.0368C101.119 15.8176 100.949 15.5522 100.843 15.2596C100.736 14.9671 100.696 14.6546 100.724 14.3445V14.3243Z" fill="white"/>
<path d="M155.896 9.66257L183.598 9.50111C183.79 9.49209 183.981 9.52129 184.162 9.58699C184.342 9.65269 184.507 9.75359 184.648 9.88381C184.789 10.014 184.903 10.171 184.982 10.3455C185.062 10.52 185.106 10.7086 185.112 10.9004C185.119 10.9787 185.119 11.0575 185.112 11.1358L183.767 23.8772C183.706 24.33 183.485 24.7462 183.145 25.0508C182.805 25.3554 182.367 25.5285 181.91 25.5389L166.074 25.6667C164.206 27.8917 161.624 29.3993 158.768 29.9318C158.768 29.9318 161.425 27.4965 162.051 25.6869H154.207C153.82 25.6996 153.444 25.559 153.161 25.2956C152.877 25.0323 152.709 24.6675 152.693 24.2809C152.687 24.2025 152.687 24.1238 152.693 24.0454L154.039 11.304C154.107 10.856 154.33 10.4462 154.669 10.1461C155.008 9.84599 155.443 9.67484 155.896 9.66257Z" fill="#E3E3E3"/>
<path d="M164.022 17.9641C164.022 18.2302 163.943 18.4903 163.795 18.7116C163.647 18.9329 163.437 19.1053 163.191 19.2071C162.946 19.309 162.675 19.3356 162.414 19.2837C162.153 19.2318 161.913 19.1036 161.725 18.9155C161.537 18.7273 161.409 18.4876 161.357 18.2266C161.305 17.9656 161.332 17.6951 161.433 17.4492C161.535 17.2034 161.708 16.9932 161.929 16.8454C162.15 16.6976 162.41 16.6187 162.677 16.6187C163.033 16.6187 163.376 16.7604 163.628 17.0127C163.88 17.265 164.022 17.6073 164.022 17.9641Z" fill="#FAFAFA"/>
<path d="M170.258 17.9641C170.258 18.2302 170.179 18.4903 170.032 18.7116C169.884 18.9329 169.674 19.1053 169.428 19.2071C169.182 19.309 168.911 19.3356 168.65 19.2837C168.389 19.2318 168.15 19.1036 167.961 18.9155C167.773 18.7273 167.645 18.4876 167.593 18.2266C167.541 17.9656 167.568 17.6951 167.67 17.4492C167.772 17.2034 167.944 16.9932 168.165 16.8454C168.387 16.6976 168.647 16.6187 168.913 16.6187C169.27 16.6187 169.612 16.7604 169.864 17.0127C170.117 17.265 170.258 17.6073 170.258 17.9641Z" fill="#FAFAFA"/>
<path d="M176.487 17.9641C176.487 18.2302 176.408 18.4903 176.26 18.7116C176.112 18.9329 175.902 19.1053 175.656 19.2071C175.41 19.309 175.14 19.3356 174.879 19.2837C174.618 19.2318 174.378 19.1036 174.19 18.9155C174.002 18.7273 173.874 18.4876 173.822 18.2266C173.77 17.9656 173.796 17.6951 173.898 17.4492C174 17.2034 174.173 16.9932 174.394 16.8454C174.615 16.6976 174.875 16.6187 175.141 16.6187C175.498 16.6187 175.84 16.7604 176.093 17.0127C176.345 17.265 176.487 17.6073 176.487 17.9641Z" fill="#FAFAFA"/>
</svg>
