<svg width="73" height="69" viewBox="0 0 73 69" fill="none" xmlns="http://www.w3.org/2000/svg">
<path d="M61.8105 63.4867L59.2003 65.4376L54.6931 60.4595L51.4169 56.8402H51.4102V56.8335L54.794 54.627L57.801 58.4279L61.8105 63.4867Z" fill="#FFCEC7"/>
<path d="M61.3343 62.6862L58.7039 65.3771C58.6499 65.4311 58.6163 65.5023 58.609 65.5784C58.6016 65.6545 58.6209 65.7307 58.6636 65.7942L60.749 68.6331C60.8002 68.6987 60.8639 68.7535 60.9365 68.7942C61.0091 68.8349 61.0891 68.8607 61.1718 68.8701C61.2545 68.8795 61.3383 68.8723 61.4181 68.8489C61.498 68.8255 61.5724 68.7865 61.637 68.734L61.6841 68.6936C66.8103 64.6573 68.1086 62.6391 68.5997 62.0807C70.0124 60.5469 68.5997 59.6455 68.0279 60.0155C65.337 61.6973 64.0656 62.1278 62.6999 62.2354C62.215 62.273 61.7464 62.4277 61.3343 62.6862Z" fill="#263238"/>
<path d="M54.2097 61.6298L59.2955 58.0173L58.5219 56.127L52.6826 59.9749L54.2097 61.6298Z" fill="#1494FF"/>
<path opacity="0.5" d="M54.2097 61.6298L59.2955 58.0173L58.5219 56.127L52.6826 59.9749L54.2097 61.6298Z" fill="white"/>
<path d="M63.8238 60.7012C63.6018 60.7012 63.3327 61.0174 63.0906 61.3739C62.9762 61.5421 62.8618 61.717 62.7676 61.8784C62.6735 62.0399 62.6196 62.1274 62.5658 62.235C62.512 62.3426 62.4246 62.5041 62.4111 62.5377C62.3991 62.5531 62.3926 62.572 62.3926 62.5915C62.3926 62.611 62.3991 62.63 62.4111 62.6454C62.4228 62.6503 62.4354 62.6529 62.4481 62.6529C62.4608 62.6529 62.4734 62.6503 62.4851 62.6454C62.8668 62.4734 63.2317 62.2662 63.5749 62.0264C63.7529 61.9179 63.9063 61.7736 64.0256 61.6026C64.0927 61.5021 64.1469 61.3936 64.1871 61.2797C64.2047 61.1973 64.2016 61.1117 64.1781 61.0307C64.1547 60.9497 64.1115 60.8758 64.0525 60.8155C64.0261 60.7798 63.9916 60.7509 63.9519 60.731C63.9121 60.7111 63.8683 60.7009 63.8238 60.7012ZM63.9584 60.9232C64.0005 60.963 64.0313 61.0131 64.0479 61.0686C64.0644 61.1241 64.066 61.183 64.0525 61.2394C64.0239 61.3532 63.9659 61.4576 63.8844 61.5421C63.7792 61.6683 63.6569 61.7792 63.5211 61.8717C63.3074 62.025 63.0825 62.1622 62.8484 62.2821L62.6802 62.3695C62.8421 62.0284 63.0406 61.7058 63.2722 61.4075C63.4 61.2528 63.5278 61.0981 63.6691 60.9568C63.7158 60.9189 63.7713 60.8935 63.8305 60.8828C63.8535 60.8771 63.8776 60.8778 63.9002 60.8849C63.9227 60.892 63.9429 60.9053 63.9584 60.9232Z" fill="#1494FF"/>
<path d="M61.7502 60.7152C61.6888 60.7856 61.6427 60.868 61.6149 60.9572C61.5871 61.0464 61.5782 61.1404 61.5887 61.2332C61.5798 61.2889 61.5798 61.3457 61.5887 61.4014C61.7574 61.8608 62.0481 62.2655 62.4296 62.5719C62.4439 62.5802 62.4602 62.5845 62.4767 62.5845C62.4933 62.5845 62.5095 62.5802 62.5238 62.5719C62.5392 62.5762 62.5555 62.5762 62.5709 62.5719C62.5761 62.559 62.5761 62.5445 62.5709 62.5316C62.5824 62.4287 62.5824 62.3249 62.5709 62.2221C62.5767 62.0262 62.5632 61.8301 62.5305 61.6368C62.47 61.1659 62.3153 60.7017 62.0865 60.5874C62.0731 60.5336 61.9251 60.5201 61.7502 60.7152ZM62.0865 60.7152C62.2413 60.7892 62.3624 61.1525 62.4296 61.5561C62.469 61.8007 62.4825 62.0487 62.47 62.2961C62.187 62.0522 61.9579 61.7521 61.7973 61.4148C61.7646 61.3401 61.7441 61.2606 61.7367 61.1794C61.7278 61.0628 61.7587 60.9466 61.8242 60.8497V60.8094C62.0058 60.7085 62.0664 60.7421 62.0865 60.7488V60.7152Z" fill="#1494FF"/>
<path d="M57.2308 57.7207L56.2217 58.3934L55.6162 58.7904L53.8604 59.9474L53.5241 60.1694C53.5241 60.1694 46.0434 54.9895 42.8345 51.424C40.6414 48.9753 40.5203 48.1546 40.231 48.316C36.4099 50.5226 26.6622 58.1445 16.208 59.2949H15.6295C13.0606 59.2426 10.5345 58.6272 8.22949 57.492C8.53895 54.9558 11.4653 49.3117 11.7142 48.7466L38.6232 38.9046C38.7645 38.8508 38.9192 38.8171 39.0672 38.7768C39.2152 38.7364 39.4507 38.6624 39.6457 38.6221C40.3638 38.439 41.1059 38.3686 41.8456 38.4135C42.4817 38.3756 43.1115 38.5585 43.6283 38.9315C45.8214 41.0775 57.2308 57.7207 57.2308 57.7207Z" fill="#263238"/>
<g opacity="0.2">
<path d="M57.2308 57.7207L56.2217 58.3934L55.6162 58.7904L53.8604 59.9474L53.5241 60.1694C53.5241 60.1694 46.0434 54.9895 42.8345 51.424C40.6414 48.9753 40.5203 48.1546 40.231 48.316C36.4099 50.5226 26.6622 58.1445 16.208 59.2949H15.6295C13.0606 59.2426 10.5345 58.6272 8.22949 57.492C8.53895 54.9558 11.4653 49.3117 11.7142 48.7466L38.6232 38.9046C38.7645 38.8508 38.9192 38.8171 39.0672 38.7768C39.2152 38.7364 39.4507 38.6624 39.6457 38.6221C40.3638 38.439 41.1059 38.3686 41.8456 38.4135C42.4817 38.3756 43.1115 38.5585 43.6283 38.9315C45.8214 41.0775 57.2308 57.7207 57.2308 57.7207Z" fill="black"/>
</g>
<path d="M6.1571 11.6733C6.68855 14.1691 7.24691 17.8153 5.48438 19.5173C7.58727 23.2708 10.1154 26.7696 13.0189 29.9445C16.8198 23.4393 13.288 19.3828 13.288 19.3828C10.476 18.7639 10.5298 17.6337 10.9805 15.6828L6.1571 11.6733Z" fill="#FFCEC7"/>
<path d="M3.7627 19.82C3.97653 19.1462 4.40997 18.5636 4.99378 18.165C5.55887 17.7412 11.3914 17.7143 12.905 18.2189C13.7882 18.5046 14.5368 19.1026 15.0107 19.9007L3.7627 19.82Z" fill="#1494FF"/>
<path d="M62.3904 63.7423L64.9938 61.603L57.4257 51.9629L53.6719 54.1425L62.3904 63.7423Z" fill="#FFCEC7"/>
<path d="M66.4804 57.284C66.1306 57.3916 65.8077 58.1182 65.5587 58.7102C65.4982 58.8582 65.4511 58.9927 65.4107 59.1138V59.1811C65.3637 59.3223 65.33 59.4233 65.3233 59.4636C65.31 59.4784 65.3027 59.4976 65.3027 59.5174C65.3027 59.5373 65.31 59.5565 65.3233 59.5713C65.3397 59.5838 65.3598 59.5906 65.3805 59.5906C65.4011 59.5906 65.4212 59.5838 65.4376 59.5713C65.7462 59.3701 66.0386 59.1452 66.3122 58.8985L66.4938 58.7303C66.6994 58.5499 66.8528 58.3176 66.9378 58.0576C66.9748 57.9713 67.0019 57.881 67.0186 57.7885C67.0252 57.6983 67.0089 57.6078 66.9713 57.5255C66.9336 57.4432 66.8759 57.3717 66.8033 57.3176C66.7554 57.2883 66.7015 57.2701 66.6456 57.2642C66.5898 57.2584 66.5333 57.2652 66.4804 57.284ZM66.6687 57.506C66.72 57.5401 66.7609 57.5876 66.787 57.6434C66.8131 57.6991 66.8234 57.761 66.8167 57.8222C66.7799 58.0515 66.6716 58.2634 66.5073 58.4276C66.3217 58.6367 66.1191 58.8302 65.9018 59.0062L65.5789 59.2551C65.6008 59.2109 65.6255 59.1682 65.6529 59.1273C65.661 59.0883 65.6723 59.05 65.6866 59.0129C65.8543 58.5148 66.097 58.0452 66.4064 57.6203C66.4474 57.5712 66.5008 57.5341 66.5611 57.5127C66.5775 57.5038 66.5956 57.4986 66.6142 57.4974C66.6328 57.4963 66.6514 57.4992 66.6687 57.506Z" fill="#1494FF"/>
<path d="M64.3413 57.2641C64.2883 57.3483 64.2527 57.4423 64.2365 57.5405C64.2203 57.6387 64.2239 57.7392 64.2471 57.8359C64.4839 58.3784 64.893 58.8276 65.4109 59.1141C65.4269 59.121 65.444 59.1245 65.4614 59.1245C65.4787 59.1245 65.4959 59.121 65.5118 59.1141L65.5589 59.0738C65.5619 59.0674 65.5635 59.0606 65.5635 59.0536C65.5635 59.0466 65.5619 59.0397 65.5589 59.0334C65.5714 58.9284 65.5714 58.8222 65.5589 58.7172C65.4715 58.0916 65.1419 57.1767 64.7584 57.0623C64.644 57.0219 64.4893 57.0287 64.3413 57.2641ZM65.3773 58.8518C64.9612 58.6021 64.6341 58.2279 64.4422 57.7821C64.4117 57.6601 64.426 57.5312 64.4826 57.4189V57.365C64.5835 57.2103 64.6508 57.2305 64.6709 57.2372C64.9804 57.3314 65.3235 58.253 65.3773 58.8518Z" fill="#1494FF"/>
<path d="M61.8984 57.4662L58.6895 60.9509C58.6895 60.9509 45.0332 49.2792 43.7349 45.7474C42.8738 46.7564 30.5965 59.4978 15.3122 61.4487C15.1239 61.4487 14.9355 61.4891 14.7404 61.5026C12.1962 61.7954 9.61863 61.5221 7.19243 60.702C2.3219 58.8857 0.989905 54.587 1.34645 50.9341C1.38681 49.2321 1.74335 46.1846 1.74335 46.1846L19.5571 46.3259C24.4815 43.0363 38.9451 37.8361 40.5327 37.4661C40.8892 37.3854 41.239 37.3114 41.5821 37.2643C41.9344 37.2135 42.2893 37.182 42.645 37.1701C43.8521 37.0725 45.0614 37.33 46.124 37.9109C47.1866 38.4918 48.0561 39.3708 48.6256 40.4396L61.8984 57.4662Z" fill="#263238"/>
<path d="M58.098 61.475L62.8542 56.7458L61.6971 54.8823L56.1875 59.9883L58.098 61.475Z" fill="#1494FF"/>
<path opacity="0.5" d="M58.098 61.475L62.8542 56.7458L61.6971 54.8823L56.1875 59.9883L58.098 61.475Z" fill="white"/>
<path d="M64.0924 59.7995L61.4889 63.2438C61.435 63.3052 61.4053 63.3841 61.4053 63.4658C61.4053 63.5475 61.435 63.6264 61.4889 63.6878L64.1058 66.4258C64.1684 66.4889 64.2428 66.5389 64.3248 66.5731C64.4067 66.6072 64.4947 66.6248 64.5835 66.6248C64.6723 66.6248 64.7602 66.6072 64.8422 66.5731C64.9242 66.5389 64.9986 66.4889 65.0611 66.4258C65.0807 66.4096 65.0987 66.3916 65.1149 66.372C70.0124 61.3736 71.1089 59.0124 71.5596 58.3666C72.8513 56.5368 71.2434 55.7766 70.6649 56.2542C68.0547 58.4137 66.9716 58.7231 65.532 59.0191C64.9961 59.159 64.5021 59.4267 64.0924 59.7995Z" fill="#263238"/>
<path d="M50.4558 37.3577L39.6182 40.4455L19.9141 39.9477L30.0857 37.2837L50.4558 37.3577Z" fill="#1494FF"/>
<path d="M50.335 36.3952L30.6309 36.4894L31.6601 23.9969L51.3642 23.896L50.335 36.3952Z" fill="#1494FF"/>
<path d="M50.0656 37.3706L30.6709 37.4648C30.5433 37.4683 30.4165 37.4446 30.2989 37.3952C30.1813 37.3457 30.0756 37.2717 29.9889 37.178C29.9023 37.0843 29.8367 36.9732 29.7965 36.8521C29.7563 36.731 29.7425 36.6027 29.756 36.4758L30.7785 24.0573C30.8049 23.7866 30.9297 23.5349 31.1294 23.3501C31.329 23.1653 31.5896 23.0603 31.8616 23.055L51.2765 22.9608C51.404 22.9572 51.5308 22.9809 51.6485 23.0304C51.7661 23.0799 51.8718 23.1539 51.9584 23.2476C52.0451 23.3412 52.1107 23.4523 52.1509 23.5734C52.191 23.6945 52.2048 23.8228 52.1914 23.9497L51.1688 36.3682C51.1421 36.6424 51.0144 36.8969 50.8105 37.0821C50.6066 37.2674 50.3411 37.3702 50.0656 37.3706Z" fill="#263238"/>
<path d="M50.335 36.3952L30.6309 36.4894L31.6601 23.9969L51.3642 23.896L50.335 36.3952Z" fill="#1494FF"/>
<path opacity="0.9" d="M50.335 36.3952L30.6309 36.4894L31.6601 23.9969L51.3642 23.896L50.335 36.3952Z" fill="white"/>
<path opacity="0.1" d="M34.5385 23.0277L30.7578 37.4375L32.0562 37.4308L35.7898 23.021L34.5385 23.0277Z" fill="white"/>
<path opacity="0.1" d="M36.5366 23.0145L32.7559 37.431L35.3257 37.4176L39.0593 23.0078L36.5366 23.0145Z" fill="white"/>
<path opacity="0.2" d="M50.4558 37.3577L39.6182 40.4455L19.9141 39.9477L30.0857 37.2837L50.4558 37.3577Z" fill="white"/>
<path d="M19.9141 39.9482L21.0039 40.917L38.9656 41.4215L39.6182 40.4461L19.9141 39.9482Z" fill="#1494FF"/>
<path d="M38.9658 41.4212L50.2743 38.1585L50.456 37.3579L39.6184 40.4457L38.9658 41.4212Z" fill="#1494FF"/>
<path d="M27.9796 33.8599H30.0718L28.8743 36.7257C28.1791 36.9331 27.4516 37.0106 26.7283 36.9544C26.5107 36.9222 26.3052 36.8339 26.1321 36.698C25.9591 36.5621 25.8245 36.3835 25.7416 36.1797C25.6587 35.9759 25.6304 35.754 25.6596 35.5359C25.6887 35.3179 25.7742 35.1111 25.9076 34.9362C26.1499 34.6127 26.4621 34.3479 26.8208 34.1616C27.1795 33.9753 27.5755 33.8721 27.9796 33.8599Z" fill="#FFCEC7"/>
<path d="M31.889 35.6558L31.3307 36.6515C31.247 36.8013 31.1177 36.9205 30.9617 36.9919C30.8056 37.0632 30.6309 37.083 30.4629 37.0484L28.8281 36.712L30.0256 33.8462L31.519 34.5189C31.7102 34.6043 31.86 34.7618 31.9356 34.9572C32.0112 35.1525 32.0065 35.3697 31.9227 35.5616C31.914 35.5939 31.9027 35.6254 31.889 35.6558Z" fill="#FFCEC7"/>
<path d="M8.51195 32.5747C10.1889 34.6772 12.4753 36.2093 15.0576 36.9608C18.2059 37.7883 24.3277 37.5057 27.3079 36.8196V34.4987C26.0903 34.2363 15.0307 35.2656 11.075 28.4441C10.335 27.1794 7.50959 22.06 5.96905 21.4478C3.46651 20.4454 2.51797 23.1094 3.08979 24.65C3.76251 26.4865 7.20013 30.9736 8.51195 32.5747Z" fill="#FFCEC7"/>
<g opacity="0.2">
<path d="M30.4959 34.0819H30.4824L30.4891 34.0752L30.4959 34.0819Z" fill="black"/>
</g>
<path d="M19.9075 23.957C23.2711 31.4713 15.3599 33.5635 18.8917 45.8744L1.74393 46.1704C1.89866 39.5844 4.23301 41.0173 1.22593 28.6122C0.72055 26.3501 0.881781 23.9901 1.69011 21.8177C2.12752 20.749 2.92146 19.8648 3.93701 19.3152C5.20174 18.6425 10.7786 19.2143 13.3215 19.3959C16.0797 19.0259 19.4097 23.0152 19.9075 23.957Z" fill="#1494FF"/>
<path d="M19.9075 23.957C23.2711 31.4713 15.3599 33.5635 18.8917 45.8744L1.74393 46.1704C1.89866 39.5844 4.23301 41.0173 1.22593 28.6122C0.72055 26.3501 0.881781 23.9901 1.69011 21.8177C2.12752 20.749 2.92146 19.8648 3.93701 19.3152C5.20174 18.6425 10.7786 19.2143 13.3215 19.3959C16.0797 19.0259 19.4097 23.0152 19.9075 23.957Z" fill="#1494FF"/>
<path d="M16.7246 9.06386C16.6775 9.39391 16.8054 9.66333 17.0142 9.69027C17.223 9.71721 17.4251 9.49494 17.4723 9.17837C17.5194 8.86179 17.3914 8.5789 17.1894 8.55196C16.9873 8.52502 16.7718 8.75403 16.7246 9.06386Z" fill="#263238"/>
<path d="M17.0957 8.55221L17.8838 8.45117C17.8838 8.45117 17.4055 8.98328 17.0957 8.55221Z" fill="#263238"/>
<path d="M16.7797 9.49414C16.9471 10.2542 17.2236 10.9861 17.6005 11.667C17.4228 11.7595 17.2266 11.8111 17.0265 11.8181C16.8263 11.825 16.6271 11.7872 16.4434 11.7074L16.7797 9.49414Z" fill="#A02724"/>
<path d="M17.8892 6.8701C17.9195 6.85753 17.946 6.83726 17.9661 6.8113C17.9861 6.78534 17.9991 6.7546 18.0036 6.7221C18.0114 6.67307 17.9995 6.62295 17.9705 6.58264C17.9415 6.54233 17.8978 6.51508 17.8489 6.50683C17.5569 6.45425 17.2566 6.47265 16.9733 6.56046C16.69 6.64827 16.4319 6.80292 16.2209 7.01138C16.1978 7.0261 16.1782 7.04568 16.1634 7.06874C16.1487 7.09181 16.1392 7.11781 16.1355 7.14494C16.1318 7.17207 16.1341 7.19967 16.1422 7.22583C16.1503 7.25198 16.164 7.27605 16.1823 7.29638C16.2007 7.3167 16.2232 7.33278 16.2484 7.3435C16.2736 7.35422 16.3008 7.35932 16.3282 7.35845C16.3555 7.35758 16.3824 7.35075 16.4068 7.33844C16.4313 7.32614 16.4528 7.30865 16.4698 7.2872C16.6401 7.12461 16.8467 7.005 17.0725 6.93831C17.2983 6.87162 17.5368 6.85977 17.7681 6.90374C17.7895 6.90692 17.8114 6.90556 17.8322 6.89977C17.8531 6.89398 17.8725 6.88387 17.8892 6.8701Z" fill="#263238"/>
<path d="M6.36523 6.39927C6.02214 10.3011 5.78668 11.9493 7.43486 14.2298C9.91721 17.6607 14.7945 17.2436 16.3014 13.5234C17.6468 10.1598 18.0034 4.35419 14.4581 2.24183C13.6763 1.78542 12.792 1.5336 11.887 1.50969C10.982 1.48578 10.0856 1.69054 9.28077 2.10503C8.47593 2.51952 7.78866 3.13035 7.28256 3.88096C6.77646 4.63158 6.46789 5.49774 6.38541 6.39927H6.36523Z" fill="#FFCEC7"/>
<path d="M16.391 13.2896C16.0851 13.0339 15.8526 12.7014 15.7174 12.3264C15.7143 12.3162 15.7132 12.3055 15.7142 12.2949C15.7153 12.2843 15.7184 12.2741 15.7234 12.2647C15.7284 12.2553 15.7352 12.247 15.7434 12.2402C15.7516 12.2335 15.7611 12.2284 15.7713 12.2253C15.7927 12.2211 15.8148 12.2249 15.8335 12.2361C15.8522 12.2473 15.866 12.2651 15.8723 12.286C15.9852 12.6038 16.1723 12.8901 16.4179 13.1212L16.391 13.2896Z" fill="#263238"/>
<path d="M8.33036 14.0547C8.019 14.1922 7.75761 14.4224 7.58177 14.7139C7.40594 15.0053 7.3242 15.3439 7.3477 15.6835L8.18228 14.5124L8.33036 14.0547Z" fill="#263238"/>
<path d="M8.37658 14.1016C8.1365 14.3436 7.97771 14.6543 7.92226 14.9906C7.8668 15.327 7.91744 15.6722 8.06713 15.9785L8.41022 14.5725L8.37658 14.1016Z" fill="#263238"/>
<path d="M17.0282 2.46355C16.86 1.72355 15.629 1.91191 14.8957 1.74373C14.5472 1.60886 14.161 1.60886 13.8126 1.74373C13.6656 1.84702 13.5484 1.9872 13.4728 2.15018C13.3973 2.31316 13.3659 2.49317 13.3821 2.6721C13.4198 3.02824 13.5152 3.37586 13.6646 3.70137C14.0962 5.02421 14.4467 6.37217 14.714 7.73772C14.8999 8.69741 14.934 9.68035 14.815 10.6506C15.2724 10.4824 17.9902 6.7219 17.0282 2.46355Z" fill="#263238"/>
<path d="M14.9889 1.94549C13.8523 1.24108 12.5788 0.786773 11.253 0.612784C9.92716 0.438794 8.5795 0.549115 7.29965 0.936407C6.02691 1.34933 4.88694 2.09346 3.99674 3.09242C3.10654 4.09138 2.49816 5.30921 2.23403 6.62093C2.01257 8.31509 2.2786 10.0373 3.00094 11.5856C3.71884 13.1253 4.58395 14.592 5.5842 15.9651C5.44965 17.5931 4.05039 18.9116 3.09512 20.2369C2.03953 21.6097 1.47143 23.295 1.48058 25.0267C1.49988 25.8872 1.75466 26.7259 2.21721 27.4518C2.67976 28.1776 3.3324 28.7628 4.10421 29.1438C4.71639 29.4061 4.60202 30.5498 4.23875 31.1081C4.47255 31.0977 4.69331 30.9975 4.85499 30.8283C5.01667 30.6591 5.1068 30.434 5.10656 30.1999C4.95857 30.5498 4.79038 31.0879 4.64238 31.4378C4.69286 31.3608 4.76178 31.2978 4.84285 31.2543C4.92392 31.2109 5.01458 31.1883 5.10656 31.1888C5.28781 31.2058 5.47023 31.2058 5.65147 31.1888C6.00255 31.0517 6.287 30.7842 6.44529 30.4421C7.10442 29.5728 7.51379 28.5401 7.62928 27.4552C7.64794 26.9328 7.49169 26.419 7.18528 25.9954C7.43419 25.7532 7.79074 25.8609 8.07328 26.0627C8.34221 26.2858 8.53114 26.5904 8.61146 26.9305C8.7424 27.3663 8.79702 27.8215 8.77291 28.2759C10.1184 26.3654 10.1655 23.3314 9.18328 21.2258C8.86037 20.5194 8.38946 19.7525 8.65182 19.0193C8.96128 18.1447 8.65182 17.0885 9.28419 16.4024C10.8315 16.288 11.8204 14.8416 12.5671 13.476C14.4412 9.93619 15.2805 5.94016 14.9889 1.94549Z" fill="#263238"/>
<path d="M11.4169 9.09684C11.369 10.0001 11.681 10.8855 12.2847 11.559C13.092 12.447 14.128 11.8752 14.4375 10.7787C14.7133 9.79647 14.6191 8.1483 13.5562 7.67066C13.3217 7.56799 13.0651 7.52593 12.81 7.54835C12.555 7.57076 12.3097 7.65694 12.0967 7.79896C11.8837 7.94097 11.7098 8.13426 11.591 8.36105C11.4722 8.58784 11.4123 8.84086 11.4169 9.09684Z" fill="#FFCEC7"/>
<path d="M1.59607 44.8655L1.19244 46.4128C1.13189 46.5406 1.27989 46.655 1.47498 46.6483L19.134 46.3455C19.2887 46.3455 19.4166 46.2648 19.4233 46.1706L18.9927 44.5359C18.9927 44.4283 18.8649 44.3408 18.6967 44.3475L1.87861 44.731C1.82397 44.7276 1.76938 44.7382 1.71995 44.7617C1.67053 44.7853 1.6279 44.821 1.59607 44.8655Z" fill="white"/>
<path d="M17.2964 46.5206L16.8322 46.5676C16.7381 46.5676 16.6641 46.5676 16.6641 46.4802V44.462C16.6641 44.4015 16.7448 44.3476 16.8322 44.3342L17.2964 44.2871C17.3906 44.2871 17.4646 44.2871 17.4646 44.3746V46.3927C17.4579 46.46 17.3839 46.5138 17.2964 46.5206Z" fill="#1494FF"/>
<path d="M10.9742 46.5606L10.51 46.6077C10.4225 46.6077 10.3485 46.6077 10.3418 46.5202V44.5021C10.3418 44.4415 10.4158 44.3877 10.51 44.3742L10.9674 44.3271C11.0616 44.3271 11.1356 44.3272 11.1356 44.4146V46.4328C11.1625 46.5068 11.0683 46.5539 10.9742 46.5606Z" fill="#1494FF"/>
<path d="M10.9742 46.5606L10.51 46.6077C10.4225 46.6077 10.3485 46.6077 10.3418 46.5202V44.5021C10.3418 44.4415 10.4158 44.3877 10.51 44.3742L10.9674 44.3271C11.0616 44.3271 11.1356 44.3272 11.1356 44.4146V46.4328C11.1625 46.5068 11.0683 46.5539 10.9742 46.5606Z" fill="#1494FF"/>
<path opacity="0.2" d="M12.5067 24.2734C12.5067 24.2734 11.5716 26.1503 14.2087 31.1554L15.312 33.1736C15.6752 33.8463 18.1374 32.5009 18.8774 31.2429C18.8774 31.2429 14.2154 28.4242 12.5067 24.2734Z" fill="black"/>
<path d="M37.2979 33.9608L39.2353 34.0618L38.0042 36.6787C38.0042 36.6787 34.977 37.459 34.6406 35.5956L35.3133 34.8354C35.5574 34.5501 35.8624 34.3234 36.206 34.172C36.5495 34.0206 36.9227 33.9484 37.2979 33.9608Z" fill="#FFCEC7"/>
<path d="M40.8829 35.8374L40.3179 36.7389C40.2321 36.8739 40.106 36.9784 39.9575 37.0376C39.8089 37.0967 39.6455 37.1076 39.4904 37.0685L37.9902 36.6716L39.228 34.0547L40.5735 34.7812C40.6613 34.8241 40.7396 34.8841 40.8039 34.9577C40.8682 35.0312 40.9172 35.1169 40.9479 35.2097C40.9786 35.3024 40.9904 35.4004 40.9827 35.4978C40.9751 35.5952 40.948 35.6901 40.9031 35.7769L40.8829 35.8374Z" fill="#FFCEC7"/>
<path d="M19.5981 35.0372C20.883 36.8065 22.6725 38.4614 24.8454 38.7237C26.5272 38.9323 34.5124 37.6877 35.683 36.5845V34.7076C35.683 34.7076 27.3345 34.7479 26.2648 34.6336C24.7041 34.4788 23.7219 33.4092 22.4034 31.1219C21.7307 29.985 19.6183 25.3096 18.811 24.2669C17.5194 22.5918 13.7992 23.7623 15.2456 27.7785C15.8712 29.467 18.5621 33.5639 19.5981 35.0372Z" fill="#FFCEC7"/>
<path d="M18.2929 21.4952C20.9166 23.9305 22.1678 28.2225 22.1678 28.2225L15.9922 31.9359C15.9922 31.9359 11.532 25.5921 12.3528 23.399C13.0255 21.697 14.1758 20.587 15.7164 20.4996C16.1908 20.4835 16.6635 20.5634 17.1062 20.7345C17.549 20.9056 17.9526 21.1643 18.2929 21.4952Z" fill="#1494FF"/>
<path d="M4.0245 46.7626H3.56031C3.46613 46.7626 3.39214 46.7156 3.39886 46.655L3.5805 44.6368C3.5805 44.5763 3.66795 44.5225 3.76213 44.5225H4.22632C4.3205 44.5225 4.3945 44.5696 4.38777 44.6234L4.19941 46.6416C4.19126 46.6803 4.16859 46.7144 4.13606 46.7369C4.10353 46.7594 4.06361 46.7686 4.0245 46.7626Z" fill="#1494FF"/>
</svg>
