<svg width="53" height="74" viewBox="0 0 53 74" fill="none" xmlns="http://www.w3.org/2000/svg">
<path d="M38.2246 44.8486L41.5882 47.1628L44.3195 43.8866L41.7362 43.6243C41.106 43.5631 40.4838 43.4368 39.8795 43.2476L38.2246 44.8486Z" fill="#FF8B7B"/>
<path d="M44.305 43.8867L40.9414 46.7324L42.9192 48.3133C43.0293 48.3908 43.164 48.4254 43.2978 48.4105C43.4316 48.3956 43.5554 48.3323 43.6458 48.2325L46.0339 45.9991C46.0861 45.9462 46.1154 45.8749 46.1154 45.8006C46.1154 45.7263 46.0861 45.6551 46.0339 45.6022L44.305 43.8867Z" fill="#FF8B7B"/>
<path d="M31.9939 26.752L30.1102 34.7776L40.5442 43.5231L39.4207 45.4605C39.4207 45.4605 27.8835 40.2671 26.2353 37.3878C24.5872 34.5086 28.0651 23.8862 28.0651 23.8862L31.9939 26.752Z" fill="#FF8B7B"/>
<path d="M29.2843 22.4537C30.7239 23.1668 34.101 25.6491 31.2083 34.1053L25.1807 33.2644C25.9408 27.9768 27.0105 21.781 29.2843 22.4537Z" fill="#263238"/>
<path opacity="0.1" d="M29.2843 22.4537C30.7239 23.1668 34.101 25.6491 31.2083 34.1053L25.1807 33.2644C25.9408 27.9768 27.0105 21.781 29.2843 22.4537Z" fill="black"/>
<path d="M10.4204 47.1499L9.74767 49.8879C9.74767 49.8879 3.08769 47.8697 0.854248 53.4802C-1.3792 59.0908 4.43987 71.0115 22.1527 66.8809C22.1527 66.8809 26.9291 68.1726 31.0125 67.1433C37.067 65.6229 44.7697 62.0709 45.6039 56.447C46.9965 47.0288 28.2678 50.3924 28.2678 50.3924L27.5951 48.6299L10.4204 47.1499Z" fill="#1494FF"/>
<path opacity="0.1" d="M12.7812 51.0981C12.7812 51.0981 16.9723 53.2172 18.4927 56.7692L20.3023 57.442C20.3023 57.442 19.2394 52.5849 12.7812 51.0981Z" fill="black"/>
<path d="M26.3701 60.0855C26.3701 60.0855 26.4979 54.0646 32.4852 49.4497H37.1404L28.1528 61.2157L26.3701 60.0855Z" fill="#1494FF"/>
<path d="M0.68589 53.9372C0.68589 53.9372 -0.982467 58.7809 5.44878 64.1627C11.88 69.5444 15.3446 62.3732 15.3446 62.3732L15.8424 59.6352L11.4428 55.6998L5.85242 51.9258L2.79825 52.2891L0.68589 53.9372Z" fill="#1494FF"/>
<path d="M0.652344 54.61C0.939486 56.7179 1.7482 58.7208 3.00515 60.437C4.26211 62.1533 5.92755 63.5287 7.8505 64.4385C13.3736 67.0689 14.793 59.6218 14.793 59.6218L4.60796 52.9888L0.847435 53.4798L0.652344 54.61Z" fill="#FF8B7B"/>
<path opacity="0.1" d="M0.652344 54.61C0.939486 56.7179 1.7482 58.7208 3.00515 60.437C4.26211 62.1533 5.92755 63.5287 7.8505 64.4385C13.3736 67.0689 14.793 59.6218 14.793 59.6218L4.60796 52.9888L0.847435 53.4798L0.652344 54.61Z" fill="black"/>
<path d="M44.6892 72.2889C43.5483 70.2082 41.6982 68.6063 39.4756 67.7749C39.241 67.6581 39.0432 67.4789 38.9038 67.2569C38.844 67.1734 38.7943 67.0831 38.7558 66.9878L37.6189 63.2744C37.5958 63.2068 37.5958 63.1334 37.6189 63.0658C37.6252 63.0181 37.6409 62.9721 37.6652 62.9306C37.6894 62.889 37.7217 62.8527 37.7601 62.8237L40.9421 60.9804C41.0074 60.9316 41.0817 60.8963 41.1607 60.8763C41.2398 60.8563 41.3219 60.8522 41.4026 60.864C41.4832 60.8759 41.5607 60.9036 41.6306 60.9455C41.7005 60.9874 41.7615 61.0427 41.8099 61.1082L41.8772 61.2226C42.5163 62.7631 43.0276 64.1624 43.8954 66.0662C44.8776 68.3131 44.8977 67.6269 46.0885 70.2505C46.7881 71.8382 45.1063 72.9078 44.6892 72.2889Z" fill="#263238"/>
<path d="M33.3736 50.0893C33.3736 50.0893 49.3844 46.6113 51.9408 51.6971C54.4972 56.7829 45.4154 60.1734 42.1863 61.317C36.5556 63.3352 17.0264 69.4368 17.0264 69.4368L18.2978 65.4543L27.6151 60.1263C27.6151 60.1263 28.0389 54.8118 33.3736 50.0893Z" fill="#FF8B7B"/>
<path d="M18.3318 68.9393L19.7243 64.7347C19.7497 64.658 19.7481 64.5749 19.72 64.4991C19.6919 64.4233 19.6389 64.3593 19.5696 64.3176L16.4347 62.4273C16.3681 62.387 16.2941 62.3602 16.2171 62.3485C16.14 62.3368 16.0614 62.3404 15.9858 62.3592C15.9102 62.3779 15.839 62.4114 15.7764 62.4578C15.7137 62.5041 15.6608 62.5623 15.6207 62.6291C15.5975 62.6621 15.5794 62.6984 15.5669 62.7367C15.0893 64.2638 14.726 65.6362 14.1004 67.5265C13.3604 69.7533 13.2864 69.1007 12.3782 71.7041C11.84 73.2716 13.5353 74.1529 13.8447 73.5138C15.244 70.5807 16.2733 70.5672 17.76 69.7533C18.0425 69.5598 18.2456 69.2707 18.3318 68.9393Z" fill="#263238"/>
<path opacity="0.1" d="M40.5448 51.5694C40.3901 50.9774 31.5168 56.6283 28.7519 56.2785C28.387 57.0859 28.0922 57.9231 27.8706 58.781L27.763 59.2317C27.7661 59.254 27.7661 59.2767 27.763 59.299C27.763 59.3461 27.763 59.3999 27.763 59.447C27.7598 59.4738 27.7598 59.5009 27.763 59.5277C27.7598 59.5658 27.7598 59.604 27.763 59.6421C27.763 59.6421 27.763 59.6959 27.763 59.7228V59.8103V59.8775C27.763 59.8775 27.763 59.9246 27.763 59.9448C27.7663 59.9649 27.7663 59.9853 27.763 60.0054V60.1264L19.0176 65.0979L25.8659 66.6586C29.9494 65.3602 34.6853 63.8399 38.2777 62.6559L29.2094 59.2384C32.4721 57.1732 40.6524 52.0537 40.5448 51.5694Z" fill="black"/>
<path d="M38.9304 67.2571C33.9725 66.6315 24.5678 65.4004 21.3252 64.7007C15.4792 63.436 -3.80106 58.4848 1.10311 51.919C6.22254 45.0572 16.4681 55.4844 16.4681 55.4844L37.6253 63.0727C37.6023 63.1403 37.6023 63.2137 37.6253 63.2813L38.7623 66.9947C38.8076 67.0886 38.8641 67.1767 38.9304 67.2571Z" fill="#FF8B7B"/>
<path opacity="0.1" d="M8.30781 51.6232C6.78073 52.2959 16.468 55.4712 16.468 55.4712C15.1952 54.228 13.8127 53.1022 12.3374 52.1076C10.844 51.5223 9.33035 51.1792 8.30781 51.6232Z" fill="black"/>
<path d="M24.6557 20.5369L20.6193 19.5816L15.4999 19.548C14.721 19.5413 13.9616 19.7914 13.339 20.2596C12.7164 20.7277 12.2654 21.3878 12.0555 22.138C11.138 25.7852 10.4461 29.4855 9.98354 33.2178C9.41172 37.4156 10.1181 42.2255 10.2728 47.9168L28.5373 48.5895C27.5686 40.2746 29.21 33.0025 30.3066 28.6231C30.542 25.9322 30.3066 22.7434 28.8669 22.1178L24.6557 20.5369Z" fill="#263238"/>
<path opacity="0.3" d="M9.98415 33.2173C10.3811 30.2708 10.9125 26.9475 11.5381 24.1893C14.9018 23.483 16.8661 30.8762 16.005 34.6166C15.1439 38.3569 9.66797 36.332 9.66797 36.332C9.75542 35.2355 9.85633 34.1591 9.98415 33.2173Z" fill="black"/>
<path d="M15.6221 17.0717C15.9918 17.4205 16.4528 17.6574 16.9517 17.7551C17.4505 17.8527 17.9668 17.807 18.4408 17.6234C18.0222 18.1171 17.4563 18.4637 16.8262 18.6123C17.3651 18.9421 17.988 19.1087 18.6195 19.092C19.2511 19.0753 19.8643 18.8759 20.385 18.5181C19.9948 18.8813 19.4701 19.3522 19.0866 19.7155C20.1072 19.9781 21.1751 19.9973 22.2045 19.7714C23.2338 19.5456 24.1957 19.0811 25.0126 18.4154C25.8295 17.7497 26.4786 16.9014 26.9076 15.9389C27.3365 14.9763 27.5334 13.9265 27.4822 12.8739C27.4351 11.9657 26.0964 11.5285 25.2488 11.2056C24.4017 10.8946 23.4884 10.8088 22.5982 10.9566C21.8874 11.1053 21.1949 11.3309 20.533 11.6294C20.5733 11.4814 20.3042 16.399 15.6221 17.0717Z" fill="#1494FF"/>
<path d="M21.9384 13.0356L23.5798 15.3364L25.8133 18.4645C25.5543 18.7506 25.3492 19.081 25.2078 19.44C24.8647 20.2338 24.5351 20.8258 26.2304 21.8685C26.4084 21.9744 26.5528 22.1285 26.6468 22.3131C26.7409 22.4976 26.7807 22.705 26.7618 22.9112C26.6811 23.4225 26.2034 23.9271 24.4342 23.6916C22.7305 23.4355 21.1535 22.6411 19.9336 21.4245C19.3215 20.8662 19.4358 20.4154 19.974 19.7898C21.5146 18.0071 21.8846 15.2489 21.9384 13.0356Z" fill="#FF8B7B"/>
<path opacity="0.2" d="M25.2823 17.6909L23.8965 15.4507L23.8158 15.6458C23.7155 15.9338 23.6346 16.2282 23.5736 16.527C23.3785 17.5563 24.2463 18.9758 25.1276 19.635L25.2218 19.4332C25.3629 19.0968 25.5509 18.7819 25.7802 18.4981C25.7923 18.481 25.8085 18.4671 25.8273 18.4578L25.2823 17.6909Z" fill="black"/>
<path d="M28.168 13.1836C30.0583 10.4187 29.944 8.70324 31.6056 7.3107C32.433 7.0618 33.6238 8.65617 32.3994 11.0242C31.175 13.3922 28.168 13.1836 28.168 13.1836Z" fill="#263238"/>
<path d="M22.4899 9.13403C21.8844 12.538 21.3799 14.5158 22.6715 16.5946C24.6224 19.7496 29.1499 19.124 30.7442 15.9218C32.1838 13.0627 32.9104 7.97021 29.9235 5.90494C29.2544 5.45066 28.4814 5.17292 27.6762 5.09754C26.871 5.02216 26.0598 5.15161 25.3181 5.47381C24.5763 5.79602 23.9281 6.30054 23.4336 6.94047C22.9391 7.58041 22.6145 8.33499 22.4899 9.13403Z" fill="#FF8B7B"/>
<path d="M21.6897 12.127L23.4051 13.4725L24.0241 10.499L25.6588 9.8263L27.8586 7.2834C27.8586 7.2834 23.9904 5.59486 22.8064 5.26523C22.3961 5.15759 20.7882 6.11286 20.499 6.56358C20.1306 7.20352 19.948 7.93352 19.9718 8.67153C19.9956 9.40955 20.2247 10.1263 20.6335 10.7412C20.9386 11.2371 21.2924 11.7014 21.6897 12.127Z" fill="#1494FF"/>
<path d="M20.4717 11.3874C20.4714 12.1604 20.7537 12.9069 21.2655 13.4863C21.9382 14.2263 22.9002 13.5737 23.102 12.6117C23.3039 11.6497 22.954 10.4388 22.0929 10.0621C21.2319 9.68536 20.4717 10.4186 20.4717 11.3874Z" fill="#FF8B7B"/>
<path d="M27.4347 11.6902C27.3606 11.9664 27.4347 12.2358 27.6166 12.2964C27.7984 12.3571 27.987 12.1752 28.0813 11.899C28.1348 11.794 28.1458 11.6724 28.1119 11.5595C28.0781 11.4466 28.002 11.3511 27.8995 11.2928C27.7176 11.2188 27.5155 11.3939 27.4347 11.6902Z" fill="#263238"/>
<path d="M30.5626 12.6726C30.4818 12.9488 30.5626 13.225 30.7444 13.2788C30.9263 13.3327 31.1351 13.1576 31.2092 12.8882C31.2833 12.6188 31.2092 12.3359 31.0341 12.282C30.8589 12.2281 30.6165 12.3965 30.5626 12.6726Z" fill="#263238"/>
<path d="M29.4863 12.5576C29.507 13.3711 29.6336 14.1785 29.863 14.9592C29.665 15.0135 29.4571 15.0217 29.2554 14.9832C29.0536 14.9448 28.8634 14.8606 28.6992 14.7372L29.4863 12.5576Z" fill="#FF5652"/>
<path d="M27.9922 16.2842C27.6711 16.1929 27.372 16.0373 27.1129 15.8268C26.8539 15.6164 26.6403 15.3554 26.4853 15.0599C26.4775 15.0495 26.4721 15.0375 26.4695 15.0249C26.467 15.0122 26.4672 14.9991 26.4703 14.9865C26.4734 14.974 26.4792 14.9622 26.4874 14.9522C26.4955 14.9422 26.5058 14.9341 26.5175 14.9285C26.5292 14.9229 26.5419 14.92 26.5549 14.9199C26.5678 14.9199 26.5806 14.9227 26.5923 14.9282C26.604 14.9337 26.6144 14.9417 26.6226 14.9517C26.6309 14.9616 26.6368 14.9733 26.64 14.9858C26.8129 15.3052 27.0569 15.5805 27.3532 15.7905C27.6495 16.0004 27.9901 16.1395 28.3487 16.1968C28.3602 16.1976 28.3714 16.2007 28.3817 16.2059C28.392 16.2111 28.4012 16.2183 28.4087 16.2271C28.4162 16.2358 28.4219 16.246 28.4254 16.2569C28.429 16.2679 28.4304 16.2794 28.4294 16.2909C28.4287 16.3022 28.4255 16.3132 28.4202 16.3231C28.415 16.3331 28.4077 16.3419 28.3988 16.3488C28.3899 16.3558 28.3797 16.3609 28.3687 16.3636C28.3578 16.3664 28.3464 16.3669 28.3353 16.3649C28.2194 16.3449 28.1048 16.3179 27.9922 16.2842Z" fill="#263238"/>
<path d="M27.1113 10.4997C27.097 10.4958 27.0836 10.489 27.072 10.4798C27.0605 10.4705 27.0509 10.4589 27.044 10.4458C27.0311 10.4277 27.0219 10.4073 27.0169 10.3856C27.012 10.364 27.0114 10.3415 27.0151 10.3196C27.0189 10.2977 27.0269 10.2768 27.0388 10.258C27.0507 10.2392 27.0662 10.223 27.0844 10.2102C27.2991 10.0515 27.55 9.94864 27.8143 9.91104C28.0787 9.87344 28.3483 9.90227 28.5988 9.99489C28.6395 10.0114 28.6721 10.0431 28.6897 10.0834C28.7073 10.1236 28.7085 10.1692 28.693 10.2102C28.6842 10.2306 28.6715 10.2491 28.6555 10.2645C28.6396 10.28 28.6208 10.2921 28.6001 10.3002C28.5795 10.3083 28.5575 10.3123 28.5353 10.3119C28.5131 10.3115 28.4912 10.3067 28.4709 10.2977C28.2733 10.2313 28.0626 10.2131 27.8565 10.2447C27.6504 10.2763 27.4549 10.3568 27.2863 10.4795C27.2637 10.5022 27.2341 10.5165 27.2023 10.5202C27.1706 10.5238 27.1385 10.5166 27.1113 10.4997Z" fill="#263238"/>
<path d="M31.0676 10.8761C31.0608 10.8496 31.0608 10.8218 31.0676 10.7953C31.0842 10.7529 31.1167 10.7186 31.1582 10.6998C31.1997 10.6809 31.2469 10.679 31.2897 10.6944C31.5417 10.7799 31.7684 10.9268 31.9494 11.1218C32.1303 11.3169 32.2598 11.554 32.3262 11.8116C32.3361 11.8554 32.3281 11.9012 32.3041 11.9391C32.2801 11.977 32.2421 12.0038 32.1984 12.0136C32.1546 12.0234 32.1088 12.0154 32.0709 11.9914C32.033 11.9675 32.0063 11.9294 31.9964 11.8857C31.9404 11.6833 31.8356 11.4978 31.6913 11.3452C31.547 11.1927 31.3675 11.0778 31.1686 11.0107C31.1418 10.9986 31.1185 10.9799 31.1009 10.9563C31.0832 10.9328 31.0718 10.9052 31.0676 10.8761Z" fill="#263238"/>
<path d="M29.8353 50.2105L18.6614 49.1274C18.6614 49.1274 18.621 48.9121 19.583 48.865H19.8386C20.027 48.865 20.7872 48.8045 21.803 48.7574H22.1326C25.0523 48.6228 29.6672 48.4277 29.6672 48.4277L29.8084 49.9414L29.8353 50.2105Z" fill="#1494FF"/>
<path opacity="0.2" d="M29.8083 49.9075L21.4127 49.0599C21.4127 49.0599 21.0763 48.8177 21.8029 48.7437H22.1325C25.0521 48.6091 29.667 48.4141 29.667 48.4141L29.8083 49.9075Z" fill="white"/>
<path d="M24.5481 45.5077L26.2299 45.9382L24.0032 49.3624C24.0032 49.3624 20.4579 48.2524 21.1104 46.6715L21.9715 46.1333C22.7048 45.7297 23.6466 45.2386 24.5481 45.5077Z" fill="#FF8B7B"/>
<path d="M27.7971 48.1926L26.196 49.9215L24.0029 49.39L26.2296 45.939L27.7971 48.1926Z" fill="#FF8B7B"/>
<path d="M14.8338 31.4749C13.791 34.6501 12.6609 35.0672 13.939 36.7356C15.2172 38.4039 22.4894 44.0885 23.8348 45.7703L21.561 47.5059C18.8701 46.0169 16.1792 44.5616 13.4883 43.1399C11.5105 42.1039 9.40488 40.967 8.36888 38.9825C6.88888 36.1436 7.69615 33.4258 9.37797 29.7527C10.9656 29.4769 14.8338 31.4749 14.8338 31.4749Z" fill="#FF8B7B"/>
<path d="M14.3617 19.6282C17.9406 18.9555 19.8377 21.9558 18.3308 26.638C17.7435 28.7911 16.9271 30.875 15.8955 32.854L7.43262 30.8896C8.65698 26.268 10.7021 20.3413 14.3617 19.6282Z" fill="#263238"/>
<path d="M27.4141 50.7755L47.6563 49.9548C47.7596 49.9502 47.8577 49.9079 47.932 49.8361C48.0064 49.7642 48.0519 49.6677 48.06 49.5646C48.0629 49.5161 48.0556 49.4676 48.0383 49.4222C48.0211 49.3767 47.9945 49.3355 47.9601 49.3012C47.9258 49.2668 47.8845 49.2402 47.8391 49.223C47.7937 49.2057 47.7452 49.1984 47.6967 49.2013L27.4477 50.0355C27.3445 50.0419 27.2472 50.0857 27.1741 50.1588C27.101 50.2319 27.0571 50.3292 27.0508 50.4324C27.0507 50.4792 27.0602 50.5255 27.0787 50.5685C27.0972 50.6115 27.1243 50.6503 27.1583 50.6824C27.1923 50.7146 27.2326 50.7394 27.2766 50.7554C27.3205 50.7714 27.3673 50.7782 27.4141 50.7755Z" fill="#263238"/>
<path d="M17.6852 49.7798L27.258 50.7687C27.3615 50.777 27.4642 50.7465 27.5463 50.683C27.6284 50.6196 27.684 50.5278 27.702 50.4256C27.7128 50.3781 27.7132 50.3287 27.7034 50.281C27.6936 50.2332 27.6737 50.1881 27.645 50.1486C27.6164 50.1091 27.5796 50.0762 27.5373 50.0521C27.4949 50.0279 27.4479 50.0131 27.3993 50.0085L17.8264 49.0264C17.7237 49.0163 17.6209 49.0453 17.5386 49.1077C17.4563 49.17 17.4006 49.2611 17.3824 49.3627C17.3717 49.4103 17.3712 49.4596 17.3811 49.5074C17.3909 49.5552 17.4108 49.6003 17.4394 49.6397C17.4681 49.6792 17.5048 49.7121 17.5472 49.7363C17.5896 49.7604 17.6366 49.7753 17.6852 49.7798Z" fill="#1494FF"/>
<path opacity="0.4" d="M17.6852 49.7798L27.258 50.7687C27.3615 50.777 27.4642 50.7465 27.5463 50.683C27.6284 50.6196 27.684 50.5278 27.702 50.4256C27.7128 50.3781 27.7132 50.3287 27.7034 50.281C27.6936 50.2332 27.6737 50.1881 27.645 50.1486C27.6164 50.1091 27.5796 50.0762 27.5373 50.0521C27.4949 50.0279 27.4479 50.0131 27.3993 50.0085L17.8264 49.0264C17.7237 49.0163 17.6209 49.0453 17.5386 49.1077C17.4563 49.17 17.4006 49.2611 17.3824 49.3627C17.3717 49.4103 17.3712 49.4596 17.3811 49.5074C17.3909 49.5552 17.4108 49.6003 17.4394 49.6397C17.4681 49.6792 17.5048 49.7121 17.5472 49.7363C17.5896 49.7604 17.6366 49.7753 17.6852 49.7798Z" fill="black"/>
<path d="M27.9982 49.9953L46.8816 49.2283C47.2134 49.197 47.5254 49.0565 47.7689 48.8289C48.0124 48.6012 48.1735 48.2993 48.227 47.9704L49.5119 38.4109C49.5392 38.262 49.5319 38.1088 49.4905 37.9631C49.4492 37.8175 49.375 37.6833 49.2736 37.5708C49.1722 37.4584 49.0463 37.3707 48.9057 37.3146C48.7651 37.2585 48.6134 37.2354 48.4625 37.2471L29.5791 38.014C29.2469 38.0443 28.9342 38.1844 28.6906 38.4122C28.4469 38.6401 28.2861 38.9426 28.2337 39.272L26.9487 48.8314C26.9215 48.9804 26.9288 49.1336 26.9702 49.2792C27.0115 49.4249 27.0857 49.5591 27.1871 49.6716C27.2885 49.784 27.4144 49.8717 27.555 49.9278C27.6956 49.9839 27.8472 50.007 27.9982 49.9953Z" fill="#1494FF"/>
<path opacity="0.4" d="M27.9982 49.9953L46.8816 49.2283C47.2134 49.197 47.5254 49.0565 47.7689 48.8289C48.0124 48.6012 48.1735 48.2993 48.227 47.9704L49.5119 38.4109C49.5392 38.262 49.5319 38.1088 49.4905 37.9631C49.4492 37.8175 49.375 37.6833 49.2736 37.5708C49.1722 37.4584 49.0463 37.3707 48.9057 37.3146C48.7651 37.2585 48.6134 37.2354 48.4625 37.2471L29.5791 38.014C29.2469 38.0443 28.9342 38.1844 28.6906 38.4122C28.4469 38.6401 28.2861 38.9426 28.2337 39.272L26.9487 48.8314C26.9215 48.9804 26.9288 49.1336 26.9702 49.2792C27.0115 49.4249 27.0857 49.5591 27.1871 49.6716C27.2885 49.784 27.4144 49.8717 27.555 49.9278C27.6956 49.9839 27.8472 50.007 27.9982 49.9953Z" fill="black"/>
<path d="M28.5439 49.928L47.4206 49.1678C47.752 49.1353 48.0635 48.9944 48.3067 48.767C48.5499 48.5396 48.7114 48.2383 48.7661 47.9098L50.0442 38.3504C50.0715 38.2015 50.0641 38.0483 50.0228 37.9026C49.9815 37.7569 49.9073 37.6227 49.8059 37.5103C49.7045 37.3978 49.5786 37.3102 49.438 37.254C49.2974 37.1979 49.1457 37.1748 48.9948 37.1866L30.1652 37.9266C29.8324 37.9583 29.5196 38.0998 29.2761 38.3287C29.0325 38.5577 28.872 38.8611 28.8198 39.1913L27.5349 48.7507C27.5063 48.8971 27.5113 49.0481 27.5494 49.1923C27.5874 49.3365 27.6576 49.4702 27.7547 49.5834C27.8517 49.6966 27.9731 49.7865 28.1098 49.8461C28.2465 49.9058 28.3949 49.9338 28.5439 49.928Z" fill="#1494FF"/>
<path opacity="0.5" d="M28.5439 49.928L47.4206 49.1678C47.752 49.1353 48.0635 48.9944 48.3067 48.767C48.5499 48.5396 48.7114 48.2383 48.7661 47.9098L50.0442 38.3504C50.0715 38.2015 50.0641 38.0483 50.0228 37.9026C49.9815 37.7569 49.9073 37.6227 49.8059 37.5103C49.7045 37.3978 49.5786 37.3102 49.438 37.254C49.2974 37.1979 49.1457 37.1748 48.9948 37.1866L30.1652 37.9266C29.8324 37.9583 29.5196 38.0998 29.2761 38.3287C29.0325 38.5577 28.872 38.8611 28.8198 39.1913L27.5349 48.7507C27.5063 48.8971 27.5113 49.0481 27.5494 49.1923C27.5874 49.3365 27.6576 49.4702 27.7547 49.5834C27.8517 49.6966 27.9731 49.7865 28.1098 49.8461C28.2465 49.9058 28.3949 49.9338 28.5439 49.928Z" fill="white"/>
<path d="M19.6103 2.05676C19.3491 2.34554 19.1537 2.68757 19.0375 3.05923C18.9214 3.4309 18.8873 3.82336 18.9376 4.20949C19.025 4.64676 19.6103 3.62421 19.7314 4.05475C19.9265 4.94948 19.5565 5.85093 19.3749 6.74565C19.1974 7.63658 19.2038 8.55436 19.3935 9.44275C19.5832 10.3311 19.9523 11.1714 20.4781 11.9122L20.357 11.7844C22.3899 10.4185 24.6565 9.4379 27.0439 8.89165C28.0328 8.62928 29.1159 8.28619 30.0914 8.61583C32.3181 9.36255 32.3719 11.0242 32.3719 11.0242C33.8721 8.33329 32.1566 4.35076 30.1116 2.09041C28.0665 -0.169949 20.0947 1.45131 19.6103 2.05676Z" fill="#263238"/>
<path d="M31.4427 6.49012C31.5235 7.1023 31.5033 7.55303 31.584 8.15848C31.1375 7.77207 30.6137 7.48522 30.0477 7.31702C29.4816 7.14883 28.8862 7.10314 28.3011 7.18303C28.3715 6.72235 28.2937 6.25122 28.0791 5.83758C28.6531 5.69013 29.2526 5.6722 29.8344 5.78506C30.4162 5.89792 30.9655 6.13874 31.4427 6.49012Z" fill="#1494FF"/>
</svg>
