<svg width="59" height="37" viewBox="0 0 59 37" fill="none" xmlns="http://www.w3.org/2000/svg">
<path d="M6.75303 0.655116L55.1152 0.36585C55.4492 0.352332 55.7826 0.404803 56.0963 0.520255C56.41 0.635707 56.6979 0.811877 56.9434 1.03869C57.189 1.2655 57.3874 1.53849 57.5274 1.84206C57.6673 2.14564 57.746 2.47382 57.759 2.80784C57.7692 2.94669 57.7692 3.08609 57.759 3.22493L55.3843 25.4652C55.2749 26.2531 54.8898 26.9767 54.2974 27.5075C53.705 28.0383 52.9436 28.342 52.1485 28.3647L32.0273 28.5867C28.7704 32.4713 24.2634 35.1018 19.2792 36.027C19.2792 36.027 23.9142 31.7821 25.0041 28.627H3.78632C3.1129 28.6525 2.4569 28.4096 1.96244 27.9517C1.46798 27.4939 1.1755 26.8584 1.14924 26.185C1.13906 26.0462 1.13906 25.9068 1.14924 25.7679L3.51722 3.58147C3.6208 2.78873 4.00337 2.05879 4.59633 1.52254C5.1893 0.986279 5.95389 0.678758 6.75303 0.655116Z" fill="white"/>
<path d="M18.2439 36.545L19.0377 35.8117C19.0848 35.7781 23.1951 31.9839 24.5002 28.997H3.78029C3.4038 29.014 3.02773 28.9555 2.6742 28.8249C2.32068 28.6944 1.99684 28.4944 1.72175 28.2368C1.38568 27.924 1.12871 27.5358 0.971985 27.1043C0.815264 26.6727 0.763277 26.2101 0.8203 25.7545L3.18156 3.55457C3.29411 2.68239 3.71585 1.87953 4.37012 1.29191C5.0244 0.704301 5.8678 0.370931 6.74702 0.352393L55.1092 0.063126C55.4865 0.0487233 55.8629 0.108842 56.217 0.240043C56.571 0.371244 56.8957 0.570948 57.1725 0.827743C57.4493 1.08454 57.6727 1.39339 57.8301 1.73661C57.9874 2.07984 58.0755 2.45072 58.0894 2.82803C58.1028 2.98696 58.1028 3.14673 58.0894 3.30566L55.7214 25.5392C55.6087 26.4107 55.1867 27.2128 54.5323 27.7993C53.8779 28.3858 53.0346 28.7177 52.156 28.7347L32.1895 28.9499C28.873 32.822 24.3362 35.4487 19.327 36.397L18.2439 36.545ZM25.4891 28.2907L25.3344 28.7414C24.5069 31.1296 21.7757 34.0626 20.3697 35.4686C24.839 34.3817 28.8451 31.8979 31.806 28.3781L31.9069 28.257L52.1828 28.035C52.8993 28.0204 53.5868 27.7499 54.1211 27.2724C54.6554 26.7948 55.0011 26.1419 55.0958 25.4316L57.4637 3.19802C57.4737 3.07489 57.4737 2.95116 57.4637 2.82803C57.4525 2.53819 57.3842 2.2534 57.2628 1.98998C57.1414 1.72656 56.9692 1.48967 56.7561 1.29285C56.5431 1.09603 56.2933 0.94315 56.0211 0.842956C55.7489 0.742762 55.4596 0.697221 55.1698 0.708936L6.80082 0.998213C6.0838 1.01443 5.39617 1.28638 4.86203 1.76501C4.32789 2.24364 3.98241 2.89742 3.88792 3.60838L1.52666 25.8083C1.52015 25.9316 1.52015 26.0551 1.52666 26.1783C1.55289 26.7637 1.80946 27.3149 2.24044 27.7119C2.67142 28.1088 3.24186 28.3193 3.82738 28.2974L25.4891 28.2907Z" fill="#1494FF"/>
</svg>
