<svg width="61" height="13" viewBox="0 0 61 13" fill="none" xmlns="http://www.w3.org/2000/svg">
<path d="M54.0755 12.549H6.53402C3.19057 12.549 0.479492 9.83791 0.479492 6.49447C0.479492 3.15102 3.19057 0.439941 6.53402 0.439941H54.0755C57.4189 0.439941 60.13 3.15102 60.13 6.49447C60.13 9.83791 57.4189 12.549 54.0755 12.549Z" fill="#2B9FFF"/>
<path d="M11.9977 3.7972L12.7444 5.31756C12.7713 5.3781 12.8319 5.41846 12.8991 5.43192L14.5742 5.6741C14.7424 5.70101 14.8097 5.90283 14.6886 6.02392L13.4777 7.20791C13.4306 7.255 13.4104 7.32228 13.4171 7.38955L13.7064 9.05791C13.7333 9.22609 13.5584 9.3539 13.4104 9.27318L11.9102 8.48609C11.8497 8.45246 11.7757 8.45246 11.7219 8.48609L10.2217 9.27318C10.0737 9.3539 9.89204 9.22609 9.92568 9.05791L10.215 7.38955C10.2284 7.32228 10.2015 7.255 10.1544 7.20791L8.94351 6.02392C8.82242 5.90283 8.88969 5.70101 9.05787 5.6741L10.7329 5.43192C10.8002 5.42519 10.8608 5.3781 10.8877 5.31756L11.6344 3.7972C11.7084 3.64247 11.9304 3.64247 12.0044 3.7972H11.9977Z" fill="#F4F4F4"/>
<path d="M21.2477 3.7972L21.9944 5.31756C22.0213 5.3781 22.0819 5.41846 22.1491 5.43192L23.8242 5.6741C23.9924 5.70101 24.0597 5.90283 23.9386 6.02392L22.7277 7.20791C22.6806 7.255 22.6604 7.32228 22.6671 7.38955L22.9564 9.05791C22.9833 9.22609 22.8084 9.3539 22.6604 9.27318L21.1602 8.48609C21.0997 8.45246 21.0257 8.45246 20.9719 8.48609L19.4717 9.27318C19.3237 9.3539 19.142 9.22609 19.1757 9.05791L19.465 7.38955C19.4784 7.32228 19.4515 7.255 19.4044 7.20791L18.1935 6.02392C18.0724 5.90283 18.1397 5.70101 18.3079 5.6741L19.9829 5.43192C20.0502 5.42519 20.1108 5.3781 20.1377 5.31756L20.8844 3.7972C20.9584 3.64247 21.1804 3.64247 21.2544 3.7972H21.2477Z" fill="#F4F4F4"/>
<path d="M30.4908 3.7972L31.2376 5.31756C31.2645 5.3781 31.325 5.41846 31.3923 5.43192L33.0674 5.6741C33.2356 5.70101 33.3028 5.90283 33.1817 6.02392L31.9708 7.20791C31.9237 7.255 31.9036 7.32228 31.9103 7.38955L32.1996 9.05791C32.2265 9.22609 32.0516 9.3539 31.9036 9.27318L30.4034 8.48609C30.3428 8.45246 30.2688 8.45246 30.215 8.48609L28.7148 9.27318C28.5668 9.3539 28.3852 9.22609 28.4188 9.05791L28.7081 7.38955C28.7216 7.32228 28.6947 7.255 28.6476 7.20791L27.4367 6.02392C27.3156 5.90283 27.3828 5.70101 27.551 5.6741L29.2261 5.43192C29.2934 5.42519 29.3539 5.3781 29.3808 5.31756L30.1276 3.7972C30.2016 3.64247 30.4236 3.64247 30.4976 3.7972H30.4908Z" fill="#F4F4F4"/>
<path d="M39.735 3.7972L40.4817 5.31756C40.5086 5.3781 40.5692 5.41846 40.6364 5.43192L42.3115 5.6741C42.4797 5.70101 42.547 5.90283 42.4259 6.02392L41.215 7.20791C41.1679 7.255 41.1477 7.32228 41.1544 7.38955L41.4437 9.05791C41.4706 9.22609 41.2957 9.3539 41.1477 9.27318L39.6475 8.48609C39.587 8.45246 39.513 8.45246 39.4592 8.48609L37.959 9.27318C37.811 9.3539 37.6293 9.22609 37.663 9.05791L37.9523 7.38955C37.9657 7.32228 37.9388 7.255 37.8917 7.20791L36.6808 6.02392C36.5597 5.90283 36.627 5.70101 36.7952 5.6741L38.4703 5.43192C38.5375 5.42519 38.5981 5.3781 38.625 5.31756L39.3717 3.7972C39.4457 3.64247 39.6677 3.64247 39.7417 3.7972H39.735Z" fill="#F4F4F4"/>
<path d="M48.984 3.7972L49.7307 5.31756C49.7576 5.3781 49.8182 5.41846 49.8855 5.43192L51.5605 5.6741C51.7287 5.70101 51.796 5.90283 51.6749 6.02392L50.464 7.20791C50.4169 7.255 50.3967 7.32228 50.4034 7.38955L50.6927 9.05791C50.7196 9.22609 50.5447 9.3539 50.3967 9.27318L48.8966 8.48609C48.836 8.45246 48.762 8.45246 48.7082 8.48609L47.208 9.27318C47.06 9.3539 46.8784 9.22609 46.912 9.05791L47.2013 7.38955C47.2147 7.32228 47.1878 7.255 47.1407 7.20791L45.9298 6.02392C45.8087 5.90283 45.876 5.70101 46.0442 5.6741L47.7193 5.43192C47.7866 5.42519 47.8471 5.3781 47.874 5.31756L48.6207 3.7972C48.6947 3.64247 48.9167 3.64247 48.9907 3.7972H48.984Z" fill="#F4F4F4"/>
</svg>
