<svg width="262" height="10" viewBox="0 0 262 10" fill="none" xmlns="http://www.w3.org/2000/svg">
<path d="M261.37 0.779785H0.338867V9.28302H261.37V0.779785Z" fill="#5C9EFF"/>
</svg>
 d="M376.713 186.202L377.229 187.698L377.729 189.203L378.211 190.717L378.675 192.24L379.12 193.772L379.546 195.314L379.953 196.864L380.338 198.422L380.702 199.988L381.042 201.563L381.358 203.145L381.647 204.734L381.909 206.329L382.14 207.93L382.34 209.537L382.505 211.148L382.634 212.762L382.724 214.379L382.773 215.997L382.778 217.616L382.738 219.234L382.65 220.85L382.512 222.462L382.323 224.069L382.083 225.67L381.79 227.264L381.445 228.85L381.049 230.427L380.601 231.993L380.102 233.548L379.551 235.09L378.947 236.618L378.29 238.13L377.58 239.626L376.816 241.104L375.997 242.562L375.122 243.998L374.191 245.411L373.203 246.8L372.158 248.162L371.054 249.496L369.893 250.8L368.674 252.073L367.396 253.312L366.059 254.516L364.666 255.683L363.214 256.813L361.707 257.903L360.144 258.952L358.527 259.958L356.857 260.922L355.137 261.841L353.368 262.715L351.552 263.544L349.692 264.326L347.79 265.062L345.85 265.752L343.874 266.395L341.865 266.993L339.828 267.545L337.765 268.052L335.681 268.517L333.579 268.939L331.463 269.32L329.337 269.663L327.205 269.969L325.071 270.241L322.94 270.48L320.815 270.691L318.7 270.875L316.6 271.036L314.518 271.177L312.458 271.302L310.424 271.415L308.42 271.519L306.449 271.619L304.513 271.718L302.617 271.821L300.763 271.933L298.953 272.057L297.19 272.2L295.477 272.364L293.814 272.555L292.203 272.777L290.646 273.036L289.143 273.335L287.695 273.68L286.302 274.073L284.965 274.521L283.682 275.027L282.453 275.594L281.277 276.227L280.152 276.929L279.077 277.703L278.049 278.552L277.067 279.479L276.126 280.486L275.225 281.575L274.36 282.747L273.527 284.003L272.722 285.344L271.942 286.77L271.181 288.281L270.436 289.875L269.701 291.551L268.972 293.307L268.244 295.14L267.512 297.047L266.771 299.026L266.015 301.07L265.24 303.176L264.441 305.338L263.614 307.551L262.752 309.808L261.853 312.103L260.912 314.428L259.925 316.776L258.889 319.14L257.8 321.512L256.655 323.883L255.453 326.248L254.192 328.6L252.87 330.932L251.488 333.24L250.044 335.518L248.539 337.761L246.972 339.964L245.345 342.123L243.658 344.232L241.911 346.288L240.107 348.286L238.246 350.222L236.33 352.09L234.36 353.889L232.339 355.613L230.27 357.258L228.153 358.822L225.992 360.301L223.79 361.692L221.549 362.992L219.273 364.199L216.963 365.309L214.625 366.322L212.26 367.235L209.873 368.046L207.467 368.755L205.045 369.361L202.611 369.863L200.168 370.261L197.72 370.555L195.27 370.746L192.822 370.835L190.379 370.822L187.944 370.71L185.52 370.5L183.111 370.194L180.719 369.795L178.346 369.305L175.996 368.728L173.671 368.067L171.372 367.324L169.102 366.505L166.862 365.612L164.654 364.65L162.478 363.622L160.337 362.534L158.23 361.388L156.159 360.191L154.123 358.945L152.123 357.656L150.158 356.327L148.228 354.963L146.334 353.568L144.473 352.147L142.646 350.703L140.851 349.239L139.087 347.76L137.354 346.27L135.649 344.77L133.972 343.264L132.32 341.756L130.694 340.247L129.09 338.739L127.509 337.235L125.948 335.736L124.407 334.243L122.884 332.758L121.377 331.281L119.888 329.812L118.413 328.352L116.954 326.901L115.509 325.458L114.079 324.023L112.663 322.594L111.262 321.17L109.877 319.751L108.508 318.334L107.156 316.918L105.822 315.5L104.509 314.08L103.217 312.654L101.949 311.221L100.708 309.779L99.4941 308.325L98.3115 306.857L97.1622 305.374L96.049 303.874L94.9746 302.355L93.9414 300.815L92.952 299.255L92.0086 297.672L91.1133 296.067L90.2675 294.439L89.4725 292.79L88.7287 291.12L88.036 289.432L87.3934 287.726L86.7999 286.006L86.2537 284.274L85.7523 282.534L85.2931 280.787L84.8725 279.038L84.4869 277.289L84.132 275.544L83.8032 273.807L83.4956 272.081L83.204 270.369L82.923 268.673L82.6467 266.998L82.3695 265.346L82.0854 263.719L81.7884 262.12L81.4725 260.55L81.1317 259.012L80.7602 257.506L80.3521 256.035L79.9018 254.598L79.404 253.196L78.8534 251.83L78.2452 250.499L77.5749 249.203L76.8383 247.941L76.0315 246.712L75.1512 245.514L74.1945 244.346L73.1589 243.206L72.0426 242.092L70.8441 241.001L69.5626 239.931L68.1977 238.878L66.7499 237.841L65.2199 236.815L63.6093 235.798L61.9202 234.785L60.1551 233.775L58.3174 232.763L56.411 231.746L54.4404 230.721L52.4106 229.683L50.3271 228.631L48.1962 227.559L46.0245 226.467L43.8192 225.349L41.5879 224.205L39.3387 223.03L37.08 221.824L34.8206 220.583L32.5698 219.306L30.3368 217.991L28.1314 216.638L25.9634 215.244L23.8428 213.81L21.7795 212.336L19.7836 210.82L17.865 209.265L16.0337 207.67L14.2993 206.037L12.6713 204.367L11.1589 202.662L9.77095 200.924L8.51575 199.156L7.40124 197.36L6.43476 195.54L5.62306 193.699L4.9722 191.841L4.48753 189.97L4.17361 188.089L4.03418 186.202L4.07211 184.315L4.28936 182.431L4.68694 180.555L5.2649 178.692L6.02228 176.846L6.95715 175.02L8.06653 173.22L9.34648 171.45L10.792 169.713L12.3973 168.013L14.1554 166.353L16.0587 164.737L18.0986 163.167L20.2658 161.646L22.5504 160.175L24.9419 158.755L27.4294 157.389L30.0015 156.076L32.6467 154.817L35.3537 153.611L38.1111 152.459L40.9077 151.359L43.7334 150.31L46.5782 149.311L49.4336 148.36L52.292 147.456L55.1469 146.597L57.9927 145.782L60.824 145.01L63.6361 144.278L66.4249 143.585L69.1863 142.929L71.9167 142.308L74.6127 141.721L77.2711 141.165L79.8889 140.639L82.4632 140.14L84.9913 139.667L87.4706 139.217L89.8986 138.787L92.2731 138.376L94.5919 137.982L96.8529 137.601L99.0543 137.231L101.194 136.869L103.271 136.514L105.284 136.163L107.231 135.812L109.111 135.459L110.924 135.103L112.67 134.739L114.347 134.367L115.955 133.982L117.496 133.584L118.968 133.17L120.374 132.737L121.713 132.283L122.987 131.807L124.197 131.307L125.345 130.781L126.432 130.228L127.461 129.646L128.433 129.034L129.352 128.391L130.219 127.717L131.037 127.01L131.809 126.27L132.538 125.497L133.227 124.69L133.88 123.85L134.498 122.977L135.086 122.071L135.646 121.132L136.182 120.161L136.697 119.159L137.194 118.127L137.676 117.065L138.146 115.974L138.607 114.856L139.062 113.711L139.513 112.541L139.963 111.346L140.415 110.128L140.87 108.888L141.33 107.627L141.799 106.346L142.276 105.045L142.765 103.727L143.266 102.39L143.781 101.037L144.312 99.6676L144.858 98.2822L145.421 96.8811L146.001 95.4646L146.6 94.0326L147.218 92.585L147.855 91.1215L148.511 89.6418L149.188 88.1452L149.885 86.6311L150.603 85.0988L151.341 83.5473L152.1 81.9758L152.88 80.3831L153.683 78.7683L154.507 77.1303L155.353 75.4681L156.223 73.7806L157.116 72.0671L158.034 70.3269L158.978 68.5593L159.947 66.7642L160.944 64.9415L161.971 63.0916L163.027 61.2155L164.116 59.3143L165.239 57.3901L166.397 55.4453L167.593 53.4833L168.829 51.5082L170.107 49.5244L171.428 47.536L172.794 45.5474L174.206 43.5623L175.666 41.5838L177.172 39.615L178.727 37.6587L180.329 35.7175L181.98 33.794L183.679 31.8907L185.426 30.0104L187.221 28.1556L189.064 26.3292L190.954 24.5343L192.89 22.7739L194.873 21.0514L196.901 19.3702L198.973 17.7339L201.088 16.1462L203.245 14.6109L205.442 13.1321L207.679 11.7135L209.952 10.3593L212.26 9.07346L214.602 7.85988L216.973 6.72244L219.373 5.66491L221.797 4.69089L224.244 3.80382L226.71 3.00689L229.191 2.30307L231.686 1.69504L234.189 1.18518L236.698 0.775535L239.209 0.467814L241.718 0.263347L244.222 0.163086L246.717 0.167591L249.2 0.277023L251.666 0.491142L254.113 0.809303L256.537 1.23046L258.934 1.75319L261.302 2.37568L263.638 3.09574L265.939 3.91085L268.202 4.81815L270.426 5.8145L272.607 6.89643L274.744 8.06026L276.836 9.30207L278.881 10.6177L280.879 12.003L282.827 13.4535L284.726 14.9646L286.575 16.5318L288.374 18.1506L290.124 19.8163L291.824 21.5243L293.475 23.2702L295.078 25.0495L296.633 26.858L298.142 28.6915L299.606 30.546L301.026 32.4178L302.404 34.3032L303.74 36.199L305.036 38.102L306.295 40.0094L307.516 41.9185L308.702 43.827L309.855 45.7327L310.975 47.634L312.063 49.5291L313.122 51.4168L314.151 53.2959L315.153 55.1656L316.128 57.0251L317.077 58.8741L318 60.7121L318.899 62.5389L319.773 64.3545L320.624 66.1589L321.451 67.9521L322.255 69.7343L323.036 71.5056L323.795 73.2659L324.532 75.0154L325.248 76.7539L325.942 78.4813L326.617 80.197L327.273 81.9007L327.912 83.5914L328.535 85.2683L329.145 86.93L329.743 88.5751L330.333 90.2022L330.917 91.8104L331.498 93.3989L332.075 94.9676L332.652 96.5166L333.227 98.0463L333.803 99.5574L334.379 101.05L334.956 102.527L335.533 103.986L336.111 105.431L336.69 106.861L337.268 108.277L337.847 109.681L338.427 111.073L339.007 112.453L339.587 113.822L340.168 115.181L340.751 116.53L341.334 117.87L341.92 119.202L342.508 120.524L343.098 121.838L343.693 123.145L344.291 124.443L344.895 125.735L345.504 127.019L346.119 128.297L346.741 129.568L347.371 130.834L348.009 132.094L348.656 133.349L349.312 134.6L349.978 135.846L350.653 137.09L351.339 138.33L352.034 139.569L352.739 140.806L353.454 142.042L354.178 143.278L354.911 144.515L355.653 145.754L356.402 146.994L357.158 148.238L357.919 149.485L358.686 150.736L359.456 151.993L360.23 153.255L361.004 154.523L361.779 155.799L362.553 157.081L363.325 158.372L364.094 159.671L364.857 160.979L365.615 162.296L366.365 163.622L367.108 164.958L367.841 166.303L368.563 167.659L369.275 169.025L369.974 170.4L370.661 171.786L371.334 173.183L371.993 174.589L372.638 176.006L373.267 177.433L373.881 178.87L374.48 180.317L375.063 181.773L375.629 183.24L376.179 184.716L376.713 186.202Z" fill="url(#paint0_linear_360_1152)"/>
</g>
<defs>
<filter id="filter0_d_360_1152" x="0.670555" y="0.163086" width="392.199" height="384.126" filterUnits="userSpaceOnUse" color-interpolation-filters="sRGB">
<feFlood flood-opacity="0" result="BackgroundImageFix"/>
<feColorMatrix in="SourceAlpha" type="matrix" values="0 0 0 0 0 0 0 0 0 0 0 0 0 0 0 0 0 0 127 0" result="hardAlpha"/>
<feOffset dx="3.36362" dy="6.72725"/>
<feGaussianBlur stdDeviation="3.36362"/>
<feComposite in2="hardAlpha" operator="out"/>
<feColorMatrix type="matrix" values="0 0 0 0 0 0 0 0 0 0 0 0 0 0 0 0 0 0 0.5 0"/>
<feBlend mode="normal" in2="BackgroundImageFix" result="effect1_dropShadow_360_1152"/>
<feBlend mode="normal" in="SourceGraphic" in2="effect1_dropShadow_360_1152" result="shape"/>
</filter>
<linearGradient id="paint0_linear_360_1152" x1="40.6146" y1="355.743" x2="270.071" y2="-15.9618" gradientUnits="userSpaceOnUse">
<stop stop-color="#3B90D7"/>
<stop offset="1" stop-color="#054D89"/>
</linearGradient>
</defs>
</svg>
